%TF.GenerationSoftware,KiCad,Pcbnew,(6.0.5)*%
%TF.CreationDate,2022-11-21T17:11:25+07:00*%
%TF.ProjectId,Smart_P_ESP_3,536d6172-745f-4505-9f45-53505f332e6b,rev?*%
%TF.SameCoordinates,PX88da2e0PY8b54f20*%
%TF.FileFunction,Copper,L2,Inr*%
%TF.FilePolarity,Positive*%
%FSLAX46Y46*%
G04 Gerber Fmt 4.6, Leading zero omitted, Abs format (unit mm)*
G04 Created by KiCad (PCBNEW (6.0.5)) date 2022-11-21 17:11:25*
%MOMM*%
%LPD*%
G01*
G04 APERTURE LIST*
%TA.AperFunction,ComponentPad*%
%ADD10C,2.000000*%
%TD*%
%TA.AperFunction,ComponentPad*%
%ADD11O,1.000000X2.100000*%
%TD*%
%TA.AperFunction,ComponentPad*%
%ADD12O,1.000000X1.600000*%
%TD*%
%TA.AperFunction,ViaPad*%
%ADD13C,0.800000*%
%TD*%
%TA.AperFunction,Conductor*%
%ADD14C,0.500000*%
%TD*%
%TA.AperFunction,Conductor*%
%ADD15C,0.250000*%
%TD*%
G04 APERTURE END LIST*
D10*
%TO.N,/BT3*%
%TO.C,SW3*%
X17250000Y22600000D03*
X4750000Y22600000D03*
%TO.N,+3V3*%
X4750000Y17600000D03*
X17250000Y17600000D03*
%TO.N,/BT3_LED*%
X11000000Y13600000D03*
%TO.N,Net-(R29-Pad1)*%
X11000000Y26600000D03*
%TD*%
%TO.N,/BT2*%
%TO.C,SW2*%
X4750000Y38600000D03*
X17250000Y38600000D03*
%TO.N,+3V3*%
X4750000Y33600000D03*
X17250000Y33600000D03*
%TO.N,/BT2_LED*%
X11000000Y29600000D03*
%TO.N,Net-(R27-Pad1)*%
X11000000Y42600000D03*
%TD*%
D11*
%TO.N,GND*%
%TO.C,J1*%
X6680000Y7305000D03*
D12*
X6680000Y3125000D03*
D11*
X15320000Y7305000D03*
D12*
X15320000Y3125000D03*
%TD*%
D10*
%TO.N,/BT1*%
%TO.C,SW1*%
X17250000Y54600000D03*
X4750000Y54600000D03*
%TO.N,+3V3*%
X4750000Y49600000D03*
X17250000Y49600000D03*
%TO.N,/BT1_LED*%
X11000000Y45600000D03*
%TO.N,Net-(R25-Pad1)*%
X11000000Y58600000D03*
%TD*%
D13*
%TO.N,VBUS*%
X5350000Y8150000D03*
X4900000Y11750000D03*
%TO.N,GND*%
X10750000Y18400000D03*
X6250000Y60400000D03*
X16900000Y47500000D03*
X3125000Y1825000D03*
X11100000Y54150000D03*
X5650000Y44700000D03*
X17850000Y59900000D03*
X7800000Y28750000D03*
X900000Y39800000D03*
X7950000Y44700000D03*
X14800000Y37800000D03*
X18700000Y13100000D03*
X8950000Y54150000D03*
X21000000Y58800000D03*
X12950000Y54150000D03*
X2600000Y11150000D03*
X2700000Y28750000D03*
X17250000Y36150000D03*
X1800000Y49150000D03*
%TO.N,+3V3*%
X6850000Y17150000D03*
X20700000Y60400000D03*
X21100000Y51250000D03*
X13600000Y43400000D03*
X3150000Y44600000D03*
%TO.N,Net-(C5-Pad1)*%
X15650000Y4950000D03*
%TO.N,+BATT*%
X6350000Y1450000D03*
X16450000Y44900000D03*
%TO.N,/EN*%
X19100000Y31900000D03*
X19500000Y54700000D03*
%TO.N,+3.3VA*%
X6600000Y56900000D03*
X17900000Y58750000D03*
X19200000Y52900000D03*
X7400000Y48350000D03*
X12000000Y60250000D03*
%TO.N,/USB_DTR*%
X15850000Y31000000D03*
X14300000Y18350000D03*
%TO.N,/TXD0*%
X6156718Y51610651D03*
X11500000Y17350000D03*
%TO.N,/RXD0*%
X6125602Y50611633D03*
X12670021Y16524500D03*
%TO.N,Net-(R10-Pad2)*%
X9300000Y12900000D03*
%TO.N,Net-(R11-Pad2)*%
X12800000Y12850000D03*
%TO.N,/SDA*%
X5500000Y52950000D03*
X13625500Y45600000D03*
%TO.N,/BATT_LEVEL*%
X14650000Y47350000D03*
%TO.N,/VB_MOTOR*%
X7381485Y47350669D03*
X1050000Y30350000D03*
%TO.N,/BT2*%
X16600000Y53100000D03*
%TO.N,/BT3*%
X15550000Y53100000D03*
%TO.N,/BT1_LED*%
X16400000Y46000000D03*
%TO.N,/BT2_LED*%
X14700000Y48350000D03*
%TO.N,/BT3_LED*%
X13674500Y47000000D03*
%TO.N,Net-(D2-Pad2)*%
X7250000Y4700000D03*
%TD*%
D14*
%TO.N,+BATT*%
X6350000Y1450000D02*
X17192893Y1450000D01*
X17546447Y1596447D02*
X20153554Y4203554D01*
X17442893Y44900000D02*
X16450000Y44900000D01*
X20300000Y4557107D02*
X20300000Y42042893D01*
X20153553Y42396447D02*
X17796446Y44753554D01*
X20153557Y4203551D02*
G75*
G03*
X20300000Y4557107I-353557J353549D01*
G01*
X20153556Y42396450D02*
G75*
G02*
X20300000Y42042893I-353556J-353550D01*
G01*
X17796449Y44753557D02*
G75*
G03*
X17442893Y44900000I-353549J-353557D01*
G01*
X17546450Y1596444D02*
G75*
G02*
X17192893Y1450000I-353550J353556D01*
G01*
D15*
%TO.N,/BT1*%
X16296447Y55553553D02*
X17250000Y54600000D01*
X6057107Y55700000D02*
X15942893Y55700000D01*
X4750000Y54600000D02*
X5703554Y55553554D01*
X16296450Y55553556D02*
G75*
G03*
X15942893Y55700000I-353550J-353556D01*
G01*
X5703551Y55553557D02*
G75*
G02*
X6057107Y55700000I353549J-353557D01*
G01*
%TO.N,/BT2*%
X4750000Y38600000D02*
X17250000Y38600000D01*
%TO.N,/BT3*%
X4750000Y22600000D02*
X17250000Y22600000D01*
%TD*%
%TA.AperFunction,Conductor*%
%TO.N,+3V3*%
G36*
X5943254Y61471498D02*
G01*
X5989747Y61417842D01*
X5999851Y61347568D01*
X5970357Y61282988D01*
X5926382Y61250393D01*
X5799278Y61193803D01*
X5799276Y61193802D01*
X5793248Y61191118D01*
X5638747Y61078866D01*
X5634326Y61073956D01*
X5634325Y61073955D01*
X5604759Y61041118D01*
X5510960Y60936944D01*
X5507659Y60931226D01*
X5436011Y60807128D01*
X5415473Y60771556D01*
X5356458Y60589928D01*
X5336496Y60400000D01*
X5337186Y60393435D01*
X5353646Y60236830D01*
X5356458Y60210072D01*
X5415473Y60028444D01*
X5510960Y59863056D01*
X5638747Y59721134D01*
X5793248Y59608882D01*
X5799276Y59606198D01*
X5799278Y59606197D01*
X5959799Y59534729D01*
X5967712Y59531206D01*
X6061112Y59511353D01*
X6148056Y59492872D01*
X6148061Y59492872D01*
X6154513Y59491500D01*
X6345487Y59491500D01*
X6351939Y59492872D01*
X6351944Y59492872D01*
X6438887Y59511353D01*
X6532288Y59531206D01*
X6540201Y59534729D01*
X6700722Y59606197D01*
X6700724Y59606198D01*
X6706752Y59608882D01*
X6861253Y59721134D01*
X6989040Y59863056D01*
X7084527Y60028444D01*
X7143542Y60210072D01*
X7146355Y60236830D01*
X7162814Y60393435D01*
X7163504Y60400000D01*
X7143542Y60589928D01*
X7084527Y60771556D01*
X7063990Y60807128D01*
X6992341Y60931226D01*
X6989040Y60936944D01*
X6895242Y61041118D01*
X6865675Y61073955D01*
X6865674Y61073956D01*
X6861253Y61078866D01*
X6706752Y61191118D01*
X6700724Y61193802D01*
X6700722Y61193803D01*
X6573618Y61250393D01*
X6519522Y61296373D01*
X6498873Y61364300D01*
X6518225Y61432609D01*
X6571436Y61479610D01*
X6624867Y61491500D01*
X20450633Y61491500D01*
X20470018Y61490000D01*
X20484851Y61487690D01*
X20484855Y61487690D01*
X20493724Y61486309D01*
X20506397Y61487966D01*
X20533707Y61488551D01*
X20661194Y61477397D01*
X20682817Y61473585D01*
X20828466Y61434558D01*
X20849104Y61427046D01*
X20985760Y61363322D01*
X21004780Y61352340D01*
X21128297Y61265853D01*
X21145122Y61251735D01*
X21251735Y61145122D01*
X21265853Y61128297D01*
X21352340Y61004780D01*
X21363322Y60985760D01*
X21427046Y60849104D01*
X21434557Y60828466D01*
X21473583Y60682822D01*
X21477398Y60661191D01*
X21487947Y60540607D01*
X21487393Y60524129D01*
X21487800Y60524124D01*
X21487690Y60515147D01*
X21486309Y60506276D01*
X21487473Y60497374D01*
X21487473Y60497372D01*
X21490436Y60474717D01*
X21491500Y60458379D01*
X21491500Y59769670D01*
X21471498Y59701549D01*
X21417842Y59655056D01*
X21347568Y59644952D01*
X21314252Y59654563D01*
X21282288Y59668794D01*
X21188887Y59688647D01*
X21101944Y59707128D01*
X21101939Y59707128D01*
X21095487Y59708500D01*
X20904513Y59708500D01*
X20898061Y59707128D01*
X20898056Y59707128D01*
X20811113Y59688647D01*
X20717712Y59668794D01*
X20711682Y59666109D01*
X20711681Y59666109D01*
X20549278Y59593803D01*
X20549276Y59593802D01*
X20543248Y59591118D01*
X20388747Y59478866D01*
X20260960Y59336944D01*
X20229463Y59282389D01*
X20193904Y59220799D01*
X20165473Y59171556D01*
X20106458Y58989928D01*
X20086496Y58800000D01*
X20106458Y58610072D01*
X20165473Y58428444D01*
X20260960Y58263056D01*
X20265378Y58258149D01*
X20265379Y58258148D01*
X20305980Y58213056D01*
X20388747Y58121134D01*
X20543248Y58008882D01*
X20549276Y58006198D01*
X20549278Y58006197D01*
X20646833Y57962763D01*
X20717712Y57931206D01*
X20803190Y57913037D01*
X20898056Y57892872D01*
X20898061Y57892872D01*
X20904513Y57891500D01*
X21095487Y57891500D01*
X21101939Y57892872D01*
X21101944Y57892872D01*
X21196810Y57913037D01*
X21282288Y57931206D01*
X21314252Y57945437D01*
X21384618Y57954871D01*
X21448915Y57924765D01*
X21486728Y57864676D01*
X21491500Y57830330D01*
X21491500Y1549367D01*
X21490000Y1529982D01*
X21487690Y1515149D01*
X21487690Y1515145D01*
X21486309Y1506276D01*
X21487966Y1493603D01*
X21488551Y1466293D01*
X21477398Y1338809D01*
X21473585Y1317183D01*
X21458282Y1260072D01*
X21434558Y1171534D01*
X21427046Y1150896D01*
X21363322Y1014240D01*
X21352340Y995220D01*
X21265853Y871703D01*
X21251735Y854878D01*
X21145122Y748265D01*
X21128297Y734147D01*
X21004780Y647660D01*
X20985760Y636678D01*
X20849104Y572954D01*
X20828466Y565443D01*
X20682822Y526417D01*
X20661194Y522603D01*
X20604659Y517656D01*
X20540607Y512053D01*
X20524129Y512607D01*
X20524124Y512200D01*
X20515147Y512310D01*
X20506276Y513691D01*
X20497374Y512527D01*
X20497372Y512527D01*
X20483548Y510719D01*
X20474714Y509564D01*
X20458379Y508500D01*
X17634873Y508500D01*
X17566752Y528502D01*
X17520259Y582158D01*
X17510155Y652432D01*
X17539649Y717012D01*
X17586656Y750909D01*
X17761423Y823297D01*
X17761427Y823299D01*
X17766002Y825194D01*
X17770222Y827780D01*
X17770228Y827783D01*
X17930686Y926110D01*
X17934906Y928696D01*
X17992744Y978094D01*
X18009209Y990002D01*
X18010755Y990940D01*
X18015554Y993852D01*
X18023931Y1001250D01*
X18038837Y1016156D01*
X18052098Y1027685D01*
X18070895Y1041849D01*
X18073736Y1044612D01*
X18073741Y1044616D01*
X18083340Y1053951D01*
X18083341Y1053952D01*
X18086176Y1056709D01*
X18108647Y1084857D01*
X18118022Y1095341D01*
X20645947Y3623266D01*
X20659212Y3634798D01*
X20674850Y3646582D01*
X20674854Y3646586D01*
X20678013Y3648966D01*
X20693294Y3663826D01*
X20708924Y3683405D01*
X20711583Y3686625D01*
X20817950Y3811169D01*
X20821305Y3815097D01*
X20924807Y3984000D01*
X20928172Y3992123D01*
X20998719Y4162446D01*
X20998721Y4162451D01*
X21000611Y4167015D01*
X21008277Y4198945D01*
X21022228Y4257061D01*
X21046853Y4359635D01*
X21052817Y4435429D01*
X21056041Y4455498D01*
X21056475Y4457270D01*
X21057808Y4462717D01*
X21058500Y4473871D01*
X21058500Y4494965D01*
X21059726Y4512498D01*
X21062451Y4531890D01*
X21062451Y4531892D01*
X21063001Y4535805D01*
X21063299Y4557118D01*
X21059285Y4592900D01*
X21058500Y4606946D01*
X21058500Y41980731D01*
X21059727Y41998269D01*
X21062449Y42017634D01*
X21062450Y42017651D01*
X21063001Y42021569D01*
X21063299Y42042882D01*
X21060488Y42067941D01*
X21060095Y42072066D01*
X21055347Y42132406D01*
X21046852Y42240366D01*
X21000611Y42432986D01*
X20924806Y42616002D01*
X20922220Y42620222D01*
X20922217Y42620228D01*
X20823891Y42780684D01*
X20821304Y42784906D01*
X20771899Y42842754D01*
X20759998Y42859209D01*
X20759058Y42860758D01*
X20756148Y42865554D01*
X20748750Y42873931D01*
X20733844Y42888837D01*
X20722315Y42902098D01*
X20708151Y42920895D01*
X20705388Y42923736D01*
X20705384Y42923741D01*
X20696049Y42933340D01*
X20696048Y42933341D01*
X20693291Y42936176D01*
X20665143Y42958647D01*
X20654659Y42968022D01*
X18376734Y45245947D01*
X18365202Y45259212D01*
X18353418Y45274850D01*
X18353414Y45274854D01*
X18351034Y45278013D01*
X18336174Y45293294D01*
X18330273Y45298004D01*
X18316595Y45308924D01*
X18313375Y45311583D01*
X18247056Y45368223D01*
X18184903Y45421305D01*
X18016000Y45524807D01*
X18011430Y45526700D01*
X17837554Y45598719D01*
X17837549Y45598721D01*
X17832985Y45600611D01*
X17828178Y45601765D01*
X17828175Y45601766D01*
X17690867Y45634729D01*
X17640365Y45646853D01*
X17564571Y45652817D01*
X17544508Y45656040D01*
X17537283Y45657808D01*
X17531684Y45658155D01*
X17531680Y45658156D01*
X17528068Y45658380D01*
X17528058Y45658380D01*
X17526129Y45658500D01*
X17505035Y45658500D01*
X17487502Y45659726D01*
X17468110Y45662451D01*
X17468108Y45662451D01*
X17464195Y45663001D01*
X17455630Y45663121D01*
X17446843Y45663244D01*
X17446837Y45663244D01*
X17442882Y45663299D01*
X17438943Y45662857D01*
X17438941Y45662857D01*
X17430826Y45661947D01*
X17360901Y45674232D01*
X17308717Y45722371D01*
X17290843Y45791081D01*
X17292899Y45808093D01*
X17293542Y45810072D01*
X17294231Y45816627D01*
X17294232Y45816632D01*
X17312814Y45993435D01*
X17313504Y46000000D01*
X17293542Y46189928D01*
X17234527Y46371556D01*
X17174559Y46475424D01*
X17157821Y46544418D01*
X17181041Y46611510D01*
X17232429Y46653530D01*
X17350722Y46706197D01*
X17350724Y46706198D01*
X17356752Y46708882D01*
X17511253Y46821134D01*
X17627406Y46950135D01*
X17634621Y46958148D01*
X17634622Y46958149D01*
X17639040Y46963056D01*
X17734527Y47128444D01*
X17793542Y47310072D01*
X17813504Y47500000D01*
X17793542Y47689928D01*
X17734527Y47871556D01*
X17713990Y47907128D01*
X17668034Y47986725D01*
X17651296Y48055720D01*
X17674516Y48122812D01*
X17728935Y48166134D01*
X17932163Y48250313D01*
X17940958Y48254795D01*
X18108445Y48357432D01*
X18117907Y48367890D01*
X18114124Y48376666D01*
X17262812Y49227978D01*
X17248868Y49235592D01*
X17247035Y49235461D01*
X17240420Y49231210D01*
X16388920Y48379710D01*
X16381306Y48365766D01*
X16383122Y48340376D01*
X16388850Y48325018D01*
X16373759Y48255644D01*
X16337233Y48214093D01*
X16288747Y48178866D01*
X16284326Y48173956D01*
X16284325Y48173955D01*
X16193818Y48073436D01*
X16160960Y48036944D01*
X16157659Y48031226D01*
X16086011Y47907128D01*
X16065473Y47871556D01*
X16006458Y47689928D01*
X15986496Y47500000D01*
X16006458Y47310072D01*
X16065473Y47128444D01*
X16068776Y47122722D01*
X16068777Y47122721D01*
X16125441Y47024577D01*
X16142179Y46955582D01*
X16118959Y46888490D01*
X16067571Y46846470D01*
X15949278Y46793803D01*
X15949276Y46793802D01*
X15943248Y46791118D01*
X15788747Y46678866D01*
X15784326Y46673956D01*
X15784325Y46673955D01*
X15667690Y46544418D01*
X15660960Y46536944D01*
X15565473Y46371556D01*
X15506458Y46189928D01*
X15486496Y46000000D01*
X15506458Y45810072D01*
X15565473Y45628444D01*
X15568776Y45622722D01*
X15568777Y45622721D01*
X15585685Y45593435D01*
X15656884Y45470117D01*
X15657125Y45469699D01*
X15673863Y45400704D01*
X15657125Y45343699D01*
X15615473Y45271556D01*
X15556458Y45089928D01*
X15555768Y45083367D01*
X15555768Y45083365D01*
X15553118Y45058148D01*
X15536496Y44900000D01*
X15537186Y44893435D01*
X15553955Y44733891D01*
X15556458Y44710072D01*
X15615473Y44528444D01*
X15710960Y44363056D01*
X15715378Y44358149D01*
X15715379Y44358148D01*
X15834325Y44226045D01*
X15838747Y44221134D01*
X15937843Y44149136D01*
X15987904Y44112765D01*
X15993248Y44108882D01*
X15999276Y44106198D01*
X15999278Y44106197D01*
X16161681Y44033891D01*
X16167712Y44031206D01*
X16233365Y44017251D01*
X16348056Y43992872D01*
X16348061Y43992872D01*
X16354513Y43991500D01*
X16545487Y43991500D01*
X16551939Y43992872D01*
X16551944Y43992872D01*
X16666635Y44017251D01*
X16732288Y44031206D01*
X16738319Y44033891D01*
X16900722Y44106197D01*
X16900724Y44106198D01*
X16906752Y44108882D01*
X16912091Y44112761D01*
X16912098Y44112765D01*
X16918528Y44117437D01*
X16992587Y44141500D01*
X17283629Y44141500D01*
X17351750Y44121498D01*
X17372724Y44104595D01*
X19504595Y41972724D01*
X19538621Y41910412D01*
X19541500Y41883629D01*
X19541500Y32889762D01*
X19521498Y32821641D01*
X19467842Y32775148D01*
X19397568Y32765044D01*
X19383214Y32768382D01*
X19382288Y32768794D01*
X19352395Y32775148D01*
X19201944Y32807128D01*
X19201939Y32807128D01*
X19195487Y32808500D01*
X19004513Y32808500D01*
X18998061Y32807128D01*
X18998056Y32807128D01*
X18911112Y32788647D01*
X18817712Y32768794D01*
X18811685Y32766111D01*
X18811677Y32766108D01*
X18762541Y32744231D01*
X18692174Y32734797D01*
X18627877Y32764904D01*
X18590064Y32824993D01*
X18590740Y32895986D01*
X18599027Y32916543D01*
X18599689Y32917841D01*
X18686734Y33127988D01*
X18689783Y33137373D01*
X18742885Y33358554D01*
X18744428Y33368301D01*
X18762275Y33595070D01*
X18762275Y33604930D01*
X18744428Y33831699D01*
X18742885Y33841446D01*
X18689783Y34062627D01*
X18686734Y34072012D01*
X18599687Y34282163D01*
X18595205Y34290958D01*
X18492568Y34458445D01*
X18482110Y34467907D01*
X18473334Y34464124D01*
X16388920Y32379710D01*
X16382160Y32367330D01*
X16387887Y32359680D01*
X16559042Y32254795D01*
X16567837Y32250313D01*
X16777988Y32163266D01*
X16787373Y32160217D01*
X17008554Y32107115D01*
X17018301Y32105572D01*
X17245070Y32087725D01*
X17254930Y32087725D01*
X17481699Y32105572D01*
X17491446Y32107115D01*
X17712627Y32160217D01*
X17722012Y32163266D01*
X17932163Y32250313D01*
X17940948Y32254790D01*
X18048143Y32320479D01*
X18116677Y32339017D01*
X18184353Y32317561D01*
X18229686Y32262922D01*
X18238283Y32192447D01*
X18233813Y32174118D01*
X18206458Y32089928D01*
X18186496Y31900000D01*
X18206458Y31710072D01*
X18265473Y31528444D01*
X18360960Y31363056D01*
X18365378Y31358149D01*
X18365379Y31358148D01*
X18456338Y31257128D01*
X18488747Y31221134D01*
X18643248Y31108882D01*
X18649276Y31106198D01*
X18649278Y31106197D01*
X18678066Y31093380D01*
X18817712Y31031206D01*
X18911113Y31011353D01*
X18998056Y30992872D01*
X18998061Y30992872D01*
X19004513Y30991500D01*
X19195487Y30991500D01*
X19201939Y30992872D01*
X19201944Y30992872D01*
X19375833Y31029834D01*
X19375832Y31029834D01*
X19382288Y31031206D01*
X19382493Y31030242D01*
X19447536Y31032097D01*
X19508333Y30995432D01*
X19539655Y30931719D01*
X19541500Y30910238D01*
X19541500Y13851391D01*
X19521498Y13783270D01*
X19467842Y13736777D01*
X19397568Y13726673D01*
X19332988Y13756167D01*
X19321863Y13767082D01*
X19319087Y13770166D01*
X19311253Y13778866D01*
X19156752Y13891118D01*
X19150724Y13893802D01*
X19150722Y13893803D01*
X18988319Y13966109D01*
X18988318Y13966109D01*
X18982288Y13968794D01*
X18888887Y13988647D01*
X18801944Y14007128D01*
X18801939Y14007128D01*
X18795487Y14008500D01*
X18604513Y14008500D01*
X18598061Y14007128D01*
X18598056Y14007128D01*
X18511113Y13988647D01*
X18417712Y13968794D01*
X18411682Y13966109D01*
X18411681Y13966109D01*
X18249278Y13893803D01*
X18249276Y13893802D01*
X18243248Y13891118D01*
X18088747Y13778866D01*
X18084326Y13773956D01*
X18084325Y13773955D01*
X18077261Y13766109D01*
X17960960Y13636944D01*
X17865473Y13471556D01*
X17806458Y13289928D01*
X17805768Y13283367D01*
X17805768Y13283365D01*
X17804527Y13271556D01*
X17786496Y13100000D01*
X17787186Y13093435D01*
X17793500Y13033365D01*
X17806458Y12910072D01*
X17865473Y12728444D01*
X17960960Y12563056D01*
X17965378Y12558149D01*
X17965379Y12558148D01*
X17986466Y12534729D01*
X18088747Y12421134D01*
X18176265Y12357548D01*
X18225661Y12321660D01*
X18243248Y12308882D01*
X18249276Y12306198D01*
X18249278Y12306197D01*
X18375803Y12249865D01*
X18417712Y12231206D01*
X18483365Y12217251D01*
X18598056Y12192872D01*
X18598061Y12192872D01*
X18604513Y12191500D01*
X18795487Y12191500D01*
X18801939Y12192872D01*
X18801944Y12192872D01*
X18916635Y12217251D01*
X18982288Y12231206D01*
X19024197Y12249865D01*
X19150722Y12306197D01*
X19150724Y12306198D01*
X19156752Y12308882D01*
X19174340Y12321660D01*
X19223735Y12357548D01*
X19311253Y12421134D01*
X19321864Y12432918D01*
X19382308Y12470159D01*
X19453292Y12468808D01*
X19512277Y12429295D01*
X19540536Y12364164D01*
X19541500Y12348609D01*
X19541500Y4716371D01*
X19521498Y4648250D01*
X19504595Y4627276D01*
X17122724Y2245405D01*
X17060412Y2211379D01*
X17033629Y2208500D01*
X16345033Y2208500D01*
X16276912Y2228502D01*
X16230419Y2282158D01*
X16220315Y2352432D01*
X16234619Y2395202D01*
X16248466Y2420389D01*
X16248468Y2420394D01*
X16251433Y2425787D01*
X16253846Y2433392D01*
X16309373Y2608436D01*
X16309373Y2608437D01*
X16311235Y2614306D01*
X16328500Y2768227D01*
X16328500Y3474769D01*
X16327814Y3481773D01*
X16314681Y3615699D01*
X16314080Y3621833D01*
X16302236Y3661064D01*
X16258697Y3805269D01*
X16256916Y3811169D01*
X16164066Y3985796D01*
X16160170Y3990573D01*
X16160166Y3990579D01*
X16138313Y4017373D01*
X16110758Y4082804D01*
X16122953Y4152745D01*
X16161894Y4198945D01*
X16190633Y4219825D01*
X16261253Y4271134D01*
X16318514Y4334729D01*
X16384621Y4408148D01*
X16384622Y4408149D01*
X16389040Y4413056D01*
X16469928Y4553157D01*
X16481223Y4572721D01*
X16481224Y4572722D01*
X16484527Y4578444D01*
X16543542Y4760072D01*
X16556501Y4883365D01*
X16562814Y4943435D01*
X16563504Y4950000D01*
X16543542Y5139928D01*
X16484527Y5321556D01*
X16389040Y5486944D01*
X16382862Y5493806D01*
X16265675Y5623955D01*
X16265674Y5623956D01*
X16261253Y5628866D01*
X16155100Y5705991D01*
X16112094Y5737237D01*
X16112093Y5737238D01*
X16106752Y5741118D01*
X16100726Y5743801D01*
X16100719Y5743805D01*
X16013283Y5782733D01*
X15959187Y5828713D01*
X15938537Y5896640D01*
X15957889Y5964948D01*
X15985578Y5996036D01*
X16029025Y6030968D01*
X16156154Y6182474D01*
X16159121Y6187872D01*
X16159125Y6187877D01*
X16248467Y6350392D01*
X16251433Y6355787D01*
X16253846Y6363392D01*
X16309373Y6538436D01*
X16309373Y6538437D01*
X16311235Y6544306D01*
X16328500Y6698227D01*
X16328500Y7904769D01*
X16327814Y7911773D01*
X16314681Y8045699D01*
X16314080Y8051833D01*
X16256916Y8241169D01*
X16164066Y8415796D01*
X16077810Y8521556D01*
X16042960Y8564287D01*
X16042957Y8564290D01*
X16039065Y8569062D01*
X16032724Y8574308D01*
X15891425Y8691201D01*
X15891421Y8691203D01*
X15886675Y8695130D01*
X15712701Y8789198D01*
X15523768Y8847682D01*
X15517643Y8848326D01*
X15517642Y8848326D01*
X15333204Y8867711D01*
X15333202Y8867711D01*
X15327075Y8868355D01*
X15244576Y8860847D01*
X15136251Y8850989D01*
X15136248Y8850988D01*
X15130112Y8850430D01*
X15124206Y8848692D01*
X15124202Y8848691D01*
X15040170Y8823959D01*
X14940381Y8794590D01*
X14934923Y8791737D01*
X14934919Y8791735D01*
X14869710Y8757644D01*
X14765110Y8702960D01*
X14610975Y8579032D01*
X14483846Y8427526D01*
X14480879Y8422128D01*
X14480875Y8422123D01*
X14477397Y8415796D01*
X14388567Y8254213D01*
X14386706Y8248346D01*
X14386705Y8248344D01*
X14353426Y8143435D01*
X14328765Y8065694D01*
X14311500Y7911773D01*
X14311500Y7722138D01*
X14291498Y7654017D01*
X14237842Y7607524D01*
X14167568Y7597420D01*
X14158014Y7599172D01*
X13988494Y7637064D01*
X13988495Y7637064D01*
X13983457Y7638190D01*
X13977912Y7638500D01*
X13844756Y7638500D01*
X13709963Y7623857D01*
X13591810Y7584094D01*
X13544796Y7568272D01*
X13544794Y7568271D01*
X13538325Y7566094D01*
X13383095Y7472823D01*
X13378138Y7468135D01*
X13378135Y7468133D01*
X13259767Y7356197D01*
X13251515Y7348393D01*
X13247683Y7342755D01*
X13247680Y7342751D01*
X13179802Y7242872D01*
X13149723Y7198612D01*
X13082470Y7030466D01*
X13081356Y7023738D01*
X13081355Y7023734D01*
X13054007Y6858539D01*
X13052892Y6851802D01*
X13053249Y6844985D01*
X13053249Y6844981D01*
X13058151Y6751461D01*
X13062370Y6670953D01*
X13064181Y6664380D01*
X13064181Y6664377D01*
X13087551Y6579534D01*
X13110461Y6496359D01*
X13194922Y6336164D01*
X13199327Y6330951D01*
X13199330Y6330947D01*
X13307406Y6203057D01*
X13307410Y6203053D01*
X13311813Y6197843D01*
X13317237Y6193696D01*
X13317238Y6193695D01*
X13450257Y6091994D01*
X13450261Y6091991D01*
X13455678Y6087850D01*
X13542372Y6047424D01*
X13613631Y6014195D01*
X13613634Y6014194D01*
X13619808Y6011315D01*
X13626456Y6009829D01*
X13626459Y6009828D01*
X13732421Y5986143D01*
X13796543Y5971810D01*
X13802088Y5971500D01*
X13935244Y5971500D01*
X14070037Y5986143D01*
X14217268Y6035692D01*
X14235204Y6041728D01*
X14235206Y6041729D01*
X14241675Y6043906D01*
X14314811Y6087850D01*
X14387602Y6131587D01*
X14456294Y6149527D01*
X14523781Y6127480D01*
X14550139Y6103220D01*
X14597040Y6045713D01*
X14597043Y6045710D01*
X14600935Y6040938D01*
X14605682Y6037011D01*
X14605684Y6037009D01*
X14748575Y5918799D01*
X14748579Y5918797D01*
X14753325Y5914870D01*
X14927299Y5820802D01*
X14961249Y5810293D01*
X14961397Y5810247D01*
X15020556Y5770995D01*
X15049103Y5705991D01*
X15037974Y5635872D01*
X15017773Y5605572D01*
X14917139Y5493806D01*
X14910960Y5486944D01*
X14815473Y5321556D01*
X14756458Y5139928D01*
X14736496Y4950000D01*
X14737186Y4943435D01*
X14743500Y4883365D01*
X14756458Y4760072D01*
X14815473Y4578444D01*
X14818776Y4572722D01*
X14818777Y4572721D01*
X14873579Y4477801D01*
X14890317Y4408805D01*
X14867096Y4341714D01*
X14822836Y4303140D01*
X14770576Y4275818D01*
X14770573Y4275816D01*
X14765110Y4272960D01*
X14610975Y4149032D01*
X14483846Y3997526D01*
X14480879Y3992128D01*
X14480875Y3992123D01*
X14422927Y3886714D01*
X14388567Y3824213D01*
X14386706Y3818346D01*
X14386705Y3818344D01*
X14366834Y3755703D01*
X14328765Y3635694D01*
X14311500Y3481773D01*
X14311500Y2775231D01*
X14311800Y2772175D01*
X14311800Y2772168D01*
X14312530Y2764727D01*
X14325920Y2628167D01*
X14327702Y2622266D01*
X14327702Y2622264D01*
X14331877Y2608436D01*
X14383084Y2438831D01*
X14385976Y2433392D01*
X14385978Y2433387D01*
X14407105Y2393652D01*
X14421424Y2324115D01*
X14395876Y2257874D01*
X14338570Y2215962D01*
X14295853Y2208500D01*
X7705033Y2208500D01*
X7636912Y2228502D01*
X7590419Y2282158D01*
X7580315Y2352432D01*
X7594619Y2395202D01*
X7608466Y2420389D01*
X7608468Y2420394D01*
X7611433Y2425787D01*
X7613846Y2433392D01*
X7669373Y2608436D01*
X7669373Y2608437D01*
X7671235Y2614306D01*
X7688500Y2768227D01*
X7688500Y3474769D01*
X7687814Y3481773D01*
X7674681Y3615699D01*
X7674080Y3621833D01*
X7662236Y3661064D01*
X7633662Y3755703D01*
X7633121Y3826697D01*
X7671049Y3886714D01*
X7695346Y3902295D01*
X7695000Y3902894D01*
X7700720Y3906197D01*
X7706752Y3908882D01*
X7861253Y4021134D01*
X7916781Y4082804D01*
X7984621Y4158148D01*
X7984622Y4158149D01*
X7989040Y4163056D01*
X8084527Y4328444D01*
X8143542Y4510072D01*
X8144233Y4516640D01*
X8162814Y4693435D01*
X8163504Y4700000D01*
X8157190Y4760072D01*
X8144232Y4883365D01*
X8144232Y4883367D01*
X8143542Y4889928D01*
X8084527Y5071556D01*
X7989040Y5236944D01*
X7861253Y5378866D01*
X7706752Y5491118D01*
X7700724Y5493802D01*
X7700722Y5493803D01*
X7538319Y5566109D01*
X7538318Y5566109D01*
X7532288Y5568794D01*
X7438887Y5588647D01*
X7351944Y5607128D01*
X7351939Y5607128D01*
X7345487Y5608500D01*
X7176818Y5608500D01*
X7108697Y5628502D01*
X7062204Y5682158D01*
X7052100Y5752432D01*
X7081594Y5817012D01*
X7118442Y5846161D01*
X7229425Y5904182D01*
X7229432Y5904187D01*
X7234890Y5907040D01*
X7389025Y6030968D01*
X7452733Y6106892D01*
X7511842Y6146219D01*
X7582830Y6147345D01*
X7625781Y6125999D01*
X7675678Y6087850D01*
X7762372Y6047424D01*
X7833631Y6014195D01*
X7833634Y6014194D01*
X7839808Y6011315D01*
X7846456Y6009829D01*
X7846459Y6009828D01*
X7952421Y5986143D01*
X8016543Y5971810D01*
X8022088Y5971500D01*
X8155244Y5971500D01*
X8290037Y5986143D01*
X8437268Y6035692D01*
X8455204Y6041728D01*
X8455206Y6041729D01*
X8461675Y6043906D01*
X8616905Y6137177D01*
X8621862Y6141865D01*
X8621865Y6141867D01*
X8743527Y6256918D01*
X8743529Y6256920D01*
X8748485Y6261607D01*
X8752317Y6267245D01*
X8752320Y6267249D01*
X8846442Y6405745D01*
X8850277Y6411388D01*
X8917530Y6579534D01*
X8918644Y6586262D01*
X8918645Y6586266D01*
X8945993Y6751461D01*
X8945993Y6751464D01*
X8947108Y6758198D01*
X8942203Y6851802D01*
X8937987Y6932234D01*
X8937630Y6939047D01*
X8914304Y7023734D01*
X8891352Y7107059D01*
X8889539Y7113641D01*
X8805078Y7273836D01*
X8800673Y7279049D01*
X8800670Y7279053D01*
X8692594Y7406943D01*
X8692590Y7406947D01*
X8688187Y7412157D01*
X8682762Y7416305D01*
X8549743Y7518006D01*
X8549739Y7518009D01*
X8544322Y7522150D01*
X8386478Y7595754D01*
X8386369Y7595805D01*
X8386366Y7595806D01*
X8380192Y7598685D01*
X8373544Y7600171D01*
X8373541Y7600172D01*
X8208494Y7637064D01*
X8208495Y7637064D01*
X8203457Y7638190D01*
X8197912Y7638500D01*
X8064756Y7638500D01*
X7929963Y7623857D01*
X7854688Y7598524D01*
X7783747Y7595754D01*
X7722568Y7631777D01*
X7690577Y7695158D01*
X7688500Y7717943D01*
X7688500Y7904769D01*
X7687814Y7911773D01*
X7674681Y8045699D01*
X7674080Y8051833D01*
X7616916Y8241169D01*
X7524066Y8415796D01*
X7437810Y8521556D01*
X7402960Y8564287D01*
X7402957Y8564290D01*
X7399065Y8569062D01*
X7392724Y8574308D01*
X7251425Y8691201D01*
X7251421Y8691203D01*
X7246675Y8695130D01*
X7072701Y8789198D01*
X6883768Y8847682D01*
X6877643Y8848326D01*
X6877642Y8848326D01*
X6693204Y8867711D01*
X6693202Y8867711D01*
X6687075Y8868355D01*
X6604576Y8860847D01*
X6496251Y8850989D01*
X6496248Y8850988D01*
X6490112Y8850430D01*
X6484206Y8848692D01*
X6484202Y8848691D01*
X6400170Y8823959D01*
X6300381Y8794590D01*
X6294917Y8791733D01*
X6294911Y8791731D01*
X6177393Y8730294D01*
X6107757Y8716459D01*
X6041696Y8742469D01*
X6025384Y8757641D01*
X5961253Y8828866D01*
X5806752Y8941118D01*
X5800724Y8943802D01*
X5800722Y8943803D01*
X5638319Y9016109D01*
X5638318Y9016109D01*
X5632288Y9018794D01*
X5538887Y9038647D01*
X5451944Y9057128D01*
X5451939Y9057128D01*
X5445487Y9058500D01*
X5254513Y9058500D01*
X5248061Y9057128D01*
X5248056Y9057128D01*
X5161113Y9038647D01*
X5067712Y9018794D01*
X5061682Y9016109D01*
X5061681Y9016109D01*
X4899278Y8943803D01*
X4899276Y8943802D01*
X4893248Y8941118D01*
X4738747Y8828866D01*
X4734329Y8823959D01*
X4734325Y8823955D01*
X4621903Y8699097D01*
X4610960Y8686944D01*
X4515473Y8521556D01*
X4456458Y8339928D01*
X4436496Y8150000D01*
X4456458Y7960072D01*
X4515473Y7778444D01*
X4610960Y7613056D01*
X4615378Y7608149D01*
X4615379Y7608148D01*
X4690217Y7525032D01*
X4738747Y7471134D01*
X4893248Y7358882D01*
X4899276Y7356198D01*
X4899278Y7356197D01*
X5028500Y7298664D01*
X5067712Y7281206D01*
X5161113Y7261353D01*
X5248056Y7242872D01*
X5248061Y7242872D01*
X5254513Y7241500D01*
X5445487Y7241500D01*
X5451939Y7242872D01*
X5451944Y7242872D01*
X5519303Y7257190D01*
X5590094Y7251788D01*
X5646727Y7208971D01*
X5671220Y7142333D01*
X5671500Y7133943D01*
X5671500Y6705231D01*
X5671800Y6702175D01*
X5671800Y6702168D01*
X5672530Y6694727D01*
X5685920Y6558167D01*
X5743084Y6368831D01*
X5835934Y6194204D01*
X5890353Y6127480D01*
X5957040Y6045713D01*
X5957043Y6045710D01*
X5960935Y6040938D01*
X5965682Y6037011D01*
X5965684Y6037009D01*
X6108575Y5918799D01*
X6108579Y5918797D01*
X6113325Y5914870D01*
X6287299Y5820802D01*
X6476232Y5762318D01*
X6482357Y5761674D01*
X6482358Y5761674D01*
X6666796Y5742289D01*
X6666798Y5742289D01*
X6672925Y5741645D01*
X6773452Y5750794D01*
X6843103Y5737049D01*
X6894268Y5687828D01*
X6910699Y5618759D01*
X6887181Y5551771D01*
X6836120Y5510207D01*
X6799283Y5493806D01*
X6799275Y5493801D01*
X6793248Y5491118D01*
X6638747Y5378866D01*
X6510960Y5236944D01*
X6415473Y5071556D01*
X6356458Y4889928D01*
X6355768Y4883367D01*
X6355768Y4883365D01*
X6342810Y4760072D01*
X6336496Y4700000D01*
X6356458Y4510072D01*
X6358498Y4503794D01*
X6359431Y4499405D01*
X6354029Y4428615D01*
X6311212Y4371982D01*
X6294560Y4361548D01*
X6130575Y4275818D01*
X6130568Y4275813D01*
X6125110Y4272960D01*
X5970975Y4149032D01*
X5843846Y3997526D01*
X5840879Y3992128D01*
X5840875Y3992123D01*
X5782927Y3886714D01*
X5748567Y3824213D01*
X5746706Y3818346D01*
X5746705Y3818344D01*
X5726834Y3755703D01*
X5688765Y3635694D01*
X5671500Y3481773D01*
X5671500Y2775231D01*
X5671800Y2772175D01*
X5671800Y2772168D01*
X5672530Y2764727D01*
X5685920Y2628167D01*
X5687702Y2622266D01*
X5687702Y2622264D01*
X5691877Y2608436D01*
X5743084Y2438831D01*
X5745976Y2433392D01*
X5809339Y2314222D01*
X5823658Y2244684D01*
X5798110Y2178444D01*
X5772147Y2153133D01*
X5744095Y2132753D01*
X5744087Y2132746D01*
X5738747Y2128866D01*
X5734326Y2123956D01*
X5734325Y2123955D01*
X5630248Y2008365D01*
X5610960Y1986944D01*
X5515473Y1821556D01*
X5456458Y1639928D01*
X5455768Y1633367D01*
X5455768Y1633365D01*
X5443343Y1515149D01*
X5436496Y1450000D01*
X5437186Y1443435D01*
X5454033Y1283148D01*
X5456458Y1260072D01*
X5515473Y1078444D01*
X5518776Y1072722D01*
X5518777Y1072721D01*
X5573410Y978094D01*
X5610960Y913056D01*
X5615378Y908149D01*
X5615379Y908148D01*
X5687740Y827783D01*
X5738747Y771134D01*
X5780957Y740467D01*
X5786505Y736436D01*
X5829859Y680214D01*
X5835934Y609478D01*
X5802803Y546686D01*
X5740983Y511775D01*
X5712444Y508500D01*
X1549367Y508500D01*
X1529982Y510000D01*
X1515149Y512310D01*
X1515145Y512310D01*
X1506276Y513691D01*
X1493603Y512034D01*
X1466293Y511449D01*
X1338806Y522603D01*
X1317183Y526415D01*
X1171531Y565443D01*
X1150896Y572954D01*
X1014240Y636678D01*
X995220Y647660D01*
X871703Y734147D01*
X854878Y748265D01*
X748265Y854878D01*
X734147Y871703D01*
X647660Y995220D01*
X636678Y1014240D01*
X572954Y1150896D01*
X565443Y1171534D01*
X526417Y1317178D01*
X522602Y1338809D01*
X512349Y1456007D01*
X512374Y1478242D01*
X512770Y1482656D01*
X513576Y1487448D01*
X513729Y1500000D01*
X509773Y1527624D01*
X508500Y1545486D01*
X508500Y1825000D01*
X2211496Y1825000D01*
X2231458Y1635072D01*
X2290473Y1453444D01*
X2385960Y1288056D01*
X2390378Y1283149D01*
X2390379Y1283148D01*
X2431682Y1237276D01*
X2513747Y1146134D01*
X2583657Y1095341D01*
X2640626Y1053951D01*
X2668248Y1033882D01*
X2674276Y1031198D01*
X2674278Y1031197D01*
X2836681Y958891D01*
X2842712Y956206D01*
X2936113Y936353D01*
X3023056Y917872D01*
X3023061Y917872D01*
X3029513Y916500D01*
X3220487Y916500D01*
X3226939Y917872D01*
X3226944Y917872D01*
X3313887Y936353D01*
X3407288Y956206D01*
X3413319Y958891D01*
X3575722Y1031197D01*
X3575724Y1031198D01*
X3581752Y1033882D01*
X3609375Y1053951D01*
X3666343Y1095341D01*
X3736253Y1146134D01*
X3818318Y1237276D01*
X3859621Y1283148D01*
X3859622Y1283149D01*
X3864040Y1288056D01*
X3959527Y1453444D01*
X4018542Y1635072D01*
X4038504Y1825000D01*
X4021483Y1986944D01*
X4019232Y2008365D01*
X4019232Y2008367D01*
X4018542Y2014928D01*
X3959527Y2196556D01*
X3864040Y2361944D01*
X3834095Y2395202D01*
X3740675Y2498955D01*
X3740674Y2498956D01*
X3736253Y2503866D01*
X3637157Y2575864D01*
X3587094Y2612237D01*
X3587093Y2612238D01*
X3581752Y2616118D01*
X3575724Y2618802D01*
X3575722Y2618803D01*
X3413319Y2691109D01*
X3413318Y2691109D01*
X3407288Y2693794D01*
X3313887Y2713647D01*
X3226944Y2732128D01*
X3226939Y2732128D01*
X3220487Y2733500D01*
X3029513Y2733500D01*
X3023061Y2732128D01*
X3023056Y2732128D01*
X2936113Y2713647D01*
X2842712Y2693794D01*
X2836682Y2691109D01*
X2836681Y2691109D01*
X2674278Y2618803D01*
X2674276Y2618802D01*
X2668248Y2616118D01*
X2662907Y2612238D01*
X2662906Y2612237D01*
X2612843Y2575864D01*
X2513747Y2503866D01*
X2509326Y2498956D01*
X2509325Y2498955D01*
X2415906Y2395202D01*
X2385960Y2361944D01*
X2290473Y2196556D01*
X2231458Y2014928D01*
X2230768Y2008367D01*
X2230768Y2008365D01*
X2228517Y1986944D01*
X2211496Y1825000D01*
X508500Y1825000D01*
X508500Y11150000D01*
X1686496Y11150000D01*
X1706458Y10960072D01*
X1765473Y10778444D01*
X1860960Y10613056D01*
X1988747Y10471134D01*
X2143248Y10358882D01*
X2149276Y10356198D01*
X2149278Y10356197D01*
X2311681Y10283891D01*
X2317712Y10281206D01*
X2411112Y10261353D01*
X2498056Y10242872D01*
X2498061Y10242872D01*
X2504513Y10241500D01*
X2695487Y10241500D01*
X2701939Y10242872D01*
X2701944Y10242872D01*
X2788888Y10261353D01*
X2882288Y10281206D01*
X2888319Y10283891D01*
X3050722Y10356197D01*
X3050724Y10356198D01*
X3056752Y10358882D01*
X3211253Y10471134D01*
X3339040Y10613056D01*
X3434527Y10778444D01*
X3493542Y10960072D01*
X3513504Y11150000D01*
X3512814Y11156565D01*
X3494232Y11333365D01*
X3494232Y11333367D01*
X3493542Y11339928D01*
X3434527Y11521556D01*
X3339040Y11686944D01*
X3282264Y11750000D01*
X3986496Y11750000D01*
X3987186Y11743435D01*
X3992608Y11691852D01*
X4006458Y11560072D01*
X4065473Y11378444D01*
X4160960Y11213056D01*
X4288747Y11071134D01*
X4443248Y10958882D01*
X4449276Y10956198D01*
X4449278Y10956197D01*
X4611681Y10883891D01*
X4617712Y10881206D01*
X4711112Y10861353D01*
X4798056Y10842872D01*
X4798061Y10842872D01*
X4804513Y10841500D01*
X4995487Y10841500D01*
X5001939Y10842872D01*
X5001944Y10842872D01*
X5088888Y10861353D01*
X5182288Y10881206D01*
X5188319Y10883891D01*
X5350722Y10956197D01*
X5350724Y10956198D01*
X5356752Y10958882D01*
X5511253Y11071134D01*
X5639040Y11213056D01*
X5734527Y11378444D01*
X5793542Y11560072D01*
X5807393Y11691852D01*
X5812814Y11743435D01*
X5813504Y11750000D01*
X5793542Y11939928D01*
X5734527Y12121556D01*
X5639040Y12286944D01*
X5615793Y12312763D01*
X5515675Y12423955D01*
X5515674Y12423956D01*
X5511253Y12428866D01*
X5356752Y12541118D01*
X5350724Y12543802D01*
X5350722Y12543803D01*
X5188319Y12616109D01*
X5188318Y12616109D01*
X5182288Y12618794D01*
X5088887Y12638647D01*
X5001944Y12657128D01*
X5001939Y12657128D01*
X4995487Y12658500D01*
X4804513Y12658500D01*
X4798061Y12657128D01*
X4798056Y12657128D01*
X4711113Y12638647D01*
X4617712Y12618794D01*
X4611682Y12616109D01*
X4611681Y12616109D01*
X4449278Y12543803D01*
X4449276Y12543802D01*
X4443248Y12541118D01*
X4288747Y12428866D01*
X4284326Y12423956D01*
X4284325Y12423955D01*
X4184208Y12312763D01*
X4160960Y12286944D01*
X4065473Y12121556D01*
X4006458Y11939928D01*
X3986496Y11750000D01*
X3282264Y11750000D01*
X3211253Y11828866D01*
X3056752Y11941118D01*
X3050724Y11943802D01*
X3050722Y11943803D01*
X2888319Y12016109D01*
X2888318Y12016109D01*
X2882288Y12018794D01*
X2788888Y12038647D01*
X2701944Y12057128D01*
X2701939Y12057128D01*
X2695487Y12058500D01*
X2504513Y12058500D01*
X2498061Y12057128D01*
X2498056Y12057128D01*
X2411112Y12038647D01*
X2317712Y12018794D01*
X2311682Y12016109D01*
X2311681Y12016109D01*
X2149278Y11943803D01*
X2149276Y11943802D01*
X2143248Y11941118D01*
X1988747Y11828866D01*
X1860960Y11686944D01*
X1765473Y11521556D01*
X1706458Y11339928D01*
X1705768Y11333367D01*
X1705768Y11333365D01*
X1687186Y11156565D01*
X1686496Y11150000D01*
X508500Y11150000D01*
X508500Y12900000D01*
X8386496Y12900000D01*
X8387186Y12893435D01*
X8405129Y12722721D01*
X8406458Y12710072D01*
X8465473Y12528444D01*
X8560960Y12363056D01*
X8565378Y12358149D01*
X8565379Y12358148D01*
X8679678Y12231206D01*
X8688747Y12221134D01*
X8843248Y12108882D01*
X8849276Y12106198D01*
X8849278Y12106197D01*
X8946833Y12062763D01*
X9017712Y12031206D01*
X9111112Y12011353D01*
X9198056Y11992872D01*
X9198061Y11992872D01*
X9204513Y11991500D01*
X9395487Y11991500D01*
X9401939Y11992872D01*
X9401944Y11992872D01*
X9488888Y12011353D01*
X9582288Y12031206D01*
X9653167Y12062763D01*
X9750722Y12106197D01*
X9750724Y12106198D01*
X9756752Y12108882D01*
X9911253Y12221134D01*
X9922740Y12233891D01*
X10001767Y12321660D01*
X10062213Y12358900D01*
X10133197Y12357548D01*
X10161238Y12344783D01*
X10213012Y12313056D01*
X10313037Y12251760D01*
X10317607Y12249867D01*
X10317611Y12249865D01*
X10517061Y12167251D01*
X10532406Y12160895D01*
X10612609Y12141640D01*
X10758476Y12106620D01*
X10758482Y12106619D01*
X10763289Y12105465D01*
X11000000Y12086835D01*
X11236711Y12105465D01*
X11241518Y12106619D01*
X11241524Y12106620D01*
X11387391Y12141640D01*
X11467594Y12160895D01*
X11482939Y12167251D01*
X11682389Y12249865D01*
X11682393Y12249867D01*
X11686963Y12251760D01*
X11691183Y12254346D01*
X11691193Y12254351D01*
X11879078Y12369488D01*
X11947611Y12388027D01*
X12015288Y12366571D01*
X12054031Y12325057D01*
X12060960Y12313056D01*
X12188747Y12171134D01*
X12343248Y12058882D01*
X12349276Y12056198D01*
X12349278Y12056197D01*
X12494591Y11991500D01*
X12517712Y11981206D01*
X12611113Y11961353D01*
X12698056Y11942872D01*
X12698061Y11942872D01*
X12704513Y11941500D01*
X12895487Y11941500D01*
X12901939Y11942872D01*
X12901944Y11942872D01*
X12988887Y11961353D01*
X13082288Y11981206D01*
X13105409Y11991500D01*
X13250722Y12056197D01*
X13250724Y12056198D01*
X13256752Y12058882D01*
X13411253Y12171134D01*
X13539040Y12313056D01*
X13608145Y12432749D01*
X13631223Y12472721D01*
X13631224Y12472722D01*
X13634527Y12478444D01*
X13693542Y12660072D01*
X13713504Y12850000D01*
X13707190Y12910072D01*
X13694232Y13033365D01*
X13694232Y13033367D01*
X13693542Y13039928D01*
X13634527Y13221556D01*
X13539040Y13386944D01*
X13499169Y13431226D01*
X13415675Y13523955D01*
X13415674Y13523956D01*
X13411253Y13528866D01*
X13256752Y13641118D01*
X13250724Y13643802D01*
X13250722Y13643803D01*
X13088319Y13716109D01*
X13088318Y13716109D01*
X13082288Y13718794D01*
X12988887Y13738647D01*
X12901944Y13757128D01*
X12901939Y13757128D01*
X12895487Y13758500D01*
X12704513Y13758500D01*
X12698061Y13757128D01*
X12698056Y13757128D01*
X12642657Y13745352D01*
X12571866Y13750754D01*
X12515234Y13793571D01*
X12493941Y13839185D01*
X12462495Y13970166D01*
X12439105Y14067594D01*
X12348240Y14286963D01*
X12345654Y14291183D01*
X12226759Y14485202D01*
X12226755Y14485208D01*
X12224176Y14489416D01*
X12069969Y14669969D01*
X11889416Y14824176D01*
X11885208Y14826755D01*
X11885202Y14826759D01*
X11691183Y14945654D01*
X11686963Y14948240D01*
X11682393Y14950133D01*
X11682389Y14950135D01*
X11472167Y15037211D01*
X11472165Y15037212D01*
X11467594Y15039105D01*
X11387391Y15058360D01*
X11241524Y15093380D01*
X11241518Y15093381D01*
X11236711Y15094535D01*
X11000000Y15113165D01*
X10763289Y15094535D01*
X10758482Y15093381D01*
X10758476Y15093380D01*
X10612609Y15058360D01*
X10532406Y15039105D01*
X10527835Y15037212D01*
X10527833Y15037211D01*
X10317611Y14950135D01*
X10317607Y14950133D01*
X10313037Y14948240D01*
X10308817Y14945654D01*
X10114798Y14826759D01*
X10114792Y14826755D01*
X10110584Y14824176D01*
X9930031Y14669969D01*
X9775824Y14489416D01*
X9773245Y14485208D01*
X9773241Y14485202D01*
X9654346Y14291183D01*
X9651760Y14286963D01*
X9560895Y14067594D01*
X9537505Y13970166D01*
X9521785Y13904689D01*
X9486433Y13843120D01*
X9423406Y13810437D01*
X9395487Y13809207D01*
X9395487Y13808500D01*
X9204513Y13808500D01*
X9198061Y13807128D01*
X9198056Y13807128D01*
X9111113Y13788647D01*
X9017712Y13768794D01*
X9011682Y13766109D01*
X9011681Y13766109D01*
X8849278Y13693803D01*
X8849276Y13693802D01*
X8843248Y13691118D01*
X8688747Y13578866D01*
X8560960Y13436944D01*
X8465473Y13271556D01*
X8406458Y13089928D01*
X8386496Y12900000D01*
X508500Y12900000D01*
X508500Y16367330D01*
X3882160Y16367330D01*
X3887887Y16359680D01*
X4059042Y16254795D01*
X4067837Y16250313D01*
X4277988Y16163266D01*
X4287373Y16160217D01*
X4508554Y16107115D01*
X4518301Y16105572D01*
X4745070Y16087725D01*
X4754930Y16087725D01*
X4981699Y16105572D01*
X4991446Y16107115D01*
X5212627Y16160217D01*
X5222012Y16163266D01*
X5432163Y16250313D01*
X5440958Y16254795D01*
X5608445Y16357432D01*
X5617907Y16367890D01*
X5614124Y16376666D01*
X4762812Y17227978D01*
X4748868Y17235592D01*
X4747035Y17235461D01*
X4740420Y17231210D01*
X3888920Y16379710D01*
X3882160Y16367330D01*
X508500Y16367330D01*
X508500Y17595070D01*
X3237725Y17595070D01*
X3255572Y17368301D01*
X3257115Y17358554D01*
X3310217Y17137373D01*
X3313266Y17127988D01*
X3400313Y16917837D01*
X3404795Y16909042D01*
X3507432Y16741555D01*
X3517890Y16732093D01*
X3526666Y16735876D01*
X4377978Y17587188D01*
X4384356Y17598868D01*
X5114408Y17598868D01*
X5114539Y17597035D01*
X5118790Y17590420D01*
X5970290Y16738920D01*
X5982670Y16732160D01*
X5990320Y16737887D01*
X6095205Y16909042D01*
X6099687Y16917837D01*
X6186734Y17127988D01*
X6189783Y17137373D01*
X6242885Y17358554D01*
X6244428Y17368301D01*
X6262275Y17595070D01*
X6262275Y17604930D01*
X6244428Y17831699D01*
X6242885Y17841446D01*
X6189783Y18062627D01*
X6186734Y18072012D01*
X6099687Y18282163D01*
X6095205Y18290958D01*
X6028383Y18400000D01*
X9836496Y18400000D01*
X9856458Y18210072D01*
X9915473Y18028444D01*
X10010960Y17863056D01*
X10015378Y17858149D01*
X10015379Y17858148D01*
X10055980Y17813056D01*
X10138747Y17721134D01*
X10293248Y17608882D01*
X10299276Y17606198D01*
X10299278Y17606197D01*
X10396833Y17562763D01*
X10467712Y17531206D01*
X10474173Y17529833D01*
X10474175Y17529832D01*
X10491560Y17526136D01*
X10554033Y17492407D01*
X10588353Y17430257D01*
X10590671Y17389722D01*
X10586496Y17350000D01*
X10587186Y17343435D01*
X10601500Y17207249D01*
X10606458Y17160072D01*
X10665473Y16978444D01*
X10760960Y16813056D01*
X10888747Y16671134D01*
X11043248Y16558882D01*
X11049276Y16556198D01*
X11049278Y16556197D01*
X11211681Y16483891D01*
X11217712Y16481206D01*
X11311112Y16461353D01*
X11398056Y16442872D01*
X11398061Y16442872D01*
X11404513Y16441500D01*
X11595487Y16441500D01*
X11601939Y16442872D01*
X11601944Y16442872D01*
X11624651Y16447699D01*
X11695442Y16442297D01*
X11752074Y16399480D01*
X11772441Y16347180D01*
X11774415Y16347600D01*
X11775789Y16341136D01*
X11776479Y16334572D01*
X11835494Y16152944D01*
X11930981Y15987556D01*
X12058768Y15845634D01*
X12213269Y15733382D01*
X12219297Y15730698D01*
X12219299Y15730697D01*
X12381702Y15658391D01*
X12387733Y15655706D01*
X12481134Y15635853D01*
X12568077Y15617372D01*
X12568082Y15617372D01*
X12574534Y15616000D01*
X12765508Y15616000D01*
X12771960Y15617372D01*
X12771965Y15617372D01*
X12858908Y15635853D01*
X12952309Y15655706D01*
X12958340Y15658391D01*
X13120743Y15730697D01*
X13120745Y15730698D01*
X13126773Y15733382D01*
X13281274Y15845634D01*
X13409061Y15987556D01*
X13504548Y16152944D01*
X13563563Y16334572D01*
X13567006Y16367330D01*
X16382160Y16367330D01*
X16387887Y16359680D01*
X16559042Y16254795D01*
X16567837Y16250313D01*
X16777988Y16163266D01*
X16787373Y16160217D01*
X17008554Y16107115D01*
X17018301Y16105572D01*
X17245070Y16087725D01*
X17254930Y16087725D01*
X17481699Y16105572D01*
X17491446Y16107115D01*
X17712627Y16160217D01*
X17722012Y16163266D01*
X17932163Y16250313D01*
X17940958Y16254795D01*
X18108445Y16357432D01*
X18117907Y16367890D01*
X18114124Y16376666D01*
X17262812Y17227978D01*
X17248868Y17235592D01*
X17247035Y17235461D01*
X17240420Y17231210D01*
X16388920Y16379710D01*
X16382160Y16367330D01*
X13567006Y16367330D01*
X13574802Y16441500D01*
X13582835Y16517935D01*
X13583525Y16524500D01*
X13579503Y16562763D01*
X13564253Y16707865D01*
X13564253Y16707867D01*
X13563563Y16714428D01*
X13504548Y16896056D01*
X13409061Y17061444D01*
X13281274Y17203366D01*
X13126773Y17315618D01*
X13120745Y17318302D01*
X13120743Y17318303D01*
X12958340Y17390609D01*
X12958339Y17390609D01*
X12952309Y17393294D01*
X12858909Y17413147D01*
X12771965Y17431628D01*
X12771960Y17431628D01*
X12765508Y17433000D01*
X12574534Y17433000D01*
X12568082Y17431628D01*
X12568077Y17431628D01*
X12545370Y17426801D01*
X12474579Y17432203D01*
X12417947Y17475020D01*
X12397580Y17527320D01*
X12395606Y17526900D01*
X12394232Y17533364D01*
X12393542Y17539928D01*
X12334527Y17721556D01*
X12239040Y17886944D01*
X12111253Y18028866D01*
X11956752Y18141118D01*
X11950724Y18143802D01*
X11950722Y18143803D01*
X11788319Y18216109D01*
X11788318Y18216109D01*
X11782288Y18218794D01*
X11775827Y18220167D01*
X11775825Y18220168D01*
X11758440Y18223864D01*
X11695967Y18257593D01*
X11661647Y18319743D01*
X11659917Y18350000D01*
X13386496Y18350000D01*
X13406458Y18160072D01*
X13465473Y17978444D01*
X13560960Y17813056D01*
X13688747Y17671134D01*
X13843248Y17558882D01*
X13849276Y17556198D01*
X13849278Y17556197D01*
X13915081Y17526900D01*
X14017712Y17481206D01*
X14111113Y17461353D01*
X14198056Y17442872D01*
X14198061Y17442872D01*
X14204513Y17441500D01*
X14395487Y17441500D01*
X14401939Y17442872D01*
X14401944Y17442872D01*
X14488887Y17461353D01*
X14582288Y17481206D01*
X14684919Y17526900D01*
X14750722Y17556197D01*
X14750724Y17556198D01*
X14756752Y17558882D01*
X14806560Y17595070D01*
X15737725Y17595070D01*
X15755572Y17368301D01*
X15757115Y17358554D01*
X15810217Y17137373D01*
X15813266Y17127988D01*
X15900313Y16917837D01*
X15904795Y16909042D01*
X16007432Y16741555D01*
X16017890Y16732093D01*
X16026666Y16735876D01*
X16877978Y17587188D01*
X16884356Y17598868D01*
X17614408Y17598868D01*
X17614539Y17597035D01*
X17618790Y17590420D01*
X18470290Y16738920D01*
X18482670Y16732160D01*
X18490320Y16737887D01*
X18595205Y16909042D01*
X18599687Y16917837D01*
X18686734Y17127988D01*
X18689783Y17137373D01*
X18742885Y17358554D01*
X18744428Y17368301D01*
X18762275Y17595070D01*
X18762275Y17604930D01*
X18744428Y17831699D01*
X18742885Y17841446D01*
X18689783Y18062627D01*
X18686734Y18072012D01*
X18599687Y18282163D01*
X18595205Y18290958D01*
X18492568Y18458445D01*
X18482110Y18467907D01*
X18473334Y18464124D01*
X17622022Y17612812D01*
X17614408Y17598868D01*
X16884356Y17598868D01*
X16885592Y17601132D01*
X16885461Y17602965D01*
X16881210Y17609580D01*
X16029710Y18461080D01*
X16017330Y18467840D01*
X16009680Y18462113D01*
X15904795Y18290958D01*
X15900313Y18282163D01*
X15813266Y18072012D01*
X15810217Y18062627D01*
X15757115Y17841446D01*
X15755572Y17831699D01*
X15737725Y17604930D01*
X15737725Y17595070D01*
X14806560Y17595070D01*
X14911253Y17671134D01*
X15039040Y17813056D01*
X15134527Y17978444D01*
X15193542Y18160072D01*
X15213504Y18350000D01*
X15193542Y18539928D01*
X15134527Y18721556D01*
X15070698Y18832110D01*
X16382093Y18832110D01*
X16385876Y18823334D01*
X17237188Y17972022D01*
X17251132Y17964408D01*
X17252965Y17964539D01*
X17259580Y17968790D01*
X18111080Y18820290D01*
X18117840Y18832670D01*
X18112113Y18840320D01*
X17940958Y18945205D01*
X17932163Y18949687D01*
X17722012Y19036734D01*
X17712627Y19039783D01*
X17491446Y19092885D01*
X17481699Y19094428D01*
X17254930Y19112275D01*
X17245070Y19112275D01*
X17018301Y19094428D01*
X17008554Y19092885D01*
X16787373Y19039783D01*
X16777988Y19036734D01*
X16567837Y18949687D01*
X16559042Y18945205D01*
X16391555Y18842568D01*
X16382093Y18832110D01*
X15070698Y18832110D01*
X15039040Y18886944D01*
X14999169Y18931226D01*
X14915675Y19023955D01*
X14915674Y19023956D01*
X14911253Y19028866D01*
X14756752Y19141118D01*
X14750724Y19143802D01*
X14750722Y19143803D01*
X14588319Y19216109D01*
X14588318Y19216109D01*
X14582288Y19218794D01*
X14488888Y19238647D01*
X14401944Y19257128D01*
X14401939Y19257128D01*
X14395487Y19258500D01*
X14204513Y19258500D01*
X14198061Y19257128D01*
X14198056Y19257128D01*
X14111112Y19238647D01*
X14017712Y19218794D01*
X14011682Y19216109D01*
X14011681Y19216109D01*
X13849278Y19143803D01*
X13849276Y19143802D01*
X13843248Y19141118D01*
X13688747Y19028866D01*
X13684326Y19023956D01*
X13684325Y19023955D01*
X13600832Y18931226D01*
X13560960Y18886944D01*
X13465473Y18721556D01*
X13406458Y18539928D01*
X13386496Y18350000D01*
X11659917Y18350000D01*
X11659329Y18360278D01*
X11663504Y18400000D01*
X11643542Y18589928D01*
X11584527Y18771556D01*
X11489040Y18936944D01*
X11396444Y19039783D01*
X11365675Y19073955D01*
X11365674Y19073956D01*
X11361253Y19078866D01*
X11206752Y19191118D01*
X11200724Y19193802D01*
X11200722Y19193803D01*
X11038319Y19266109D01*
X11038318Y19266109D01*
X11032288Y19268794D01*
X10938887Y19288647D01*
X10851944Y19307128D01*
X10851939Y19307128D01*
X10845487Y19308500D01*
X10654513Y19308500D01*
X10648061Y19307128D01*
X10648056Y19307128D01*
X10561113Y19288647D01*
X10467712Y19268794D01*
X10461682Y19266109D01*
X10461681Y19266109D01*
X10299278Y19193803D01*
X10299276Y19193802D01*
X10293248Y19191118D01*
X10138747Y19078866D01*
X10134326Y19073956D01*
X10134325Y19073955D01*
X10103557Y19039783D01*
X10010960Y18936944D01*
X9915473Y18771556D01*
X9856458Y18589928D01*
X9836496Y18400000D01*
X6028383Y18400000D01*
X5992568Y18458445D01*
X5982110Y18467907D01*
X5973334Y18464124D01*
X5122022Y17612812D01*
X5114408Y17598868D01*
X4384356Y17598868D01*
X4385592Y17601132D01*
X4385461Y17602965D01*
X4381210Y17609580D01*
X3529710Y18461080D01*
X3517330Y18467840D01*
X3509680Y18462113D01*
X3404795Y18290958D01*
X3400313Y18282163D01*
X3313266Y18072012D01*
X3310217Y18062627D01*
X3257115Y17841446D01*
X3255572Y17831699D01*
X3237725Y17604930D01*
X3237725Y17595070D01*
X508500Y17595070D01*
X508500Y18832110D01*
X3882093Y18832110D01*
X3885876Y18823334D01*
X4737188Y17972022D01*
X4751132Y17964408D01*
X4752965Y17964539D01*
X4759580Y17968790D01*
X5611080Y18820290D01*
X5617840Y18832670D01*
X5612113Y18840320D01*
X5440958Y18945205D01*
X5432163Y18949687D01*
X5222012Y19036734D01*
X5212627Y19039783D01*
X4991446Y19092885D01*
X4981699Y19094428D01*
X4754930Y19112275D01*
X4745070Y19112275D01*
X4518301Y19094428D01*
X4508554Y19092885D01*
X4287373Y19039783D01*
X4277988Y19036734D01*
X4067837Y18949687D01*
X4059042Y18945205D01*
X3891555Y18842568D01*
X3882093Y18832110D01*
X508500Y18832110D01*
X508500Y22600000D01*
X3236835Y22600000D01*
X3255465Y22363289D01*
X3310895Y22132406D01*
X3312788Y22127835D01*
X3312789Y22127833D01*
X3384807Y21953966D01*
X3401760Y21913037D01*
X3404346Y21908817D01*
X3523241Y21714798D01*
X3523245Y21714792D01*
X3525824Y21710584D01*
X3680031Y21530031D01*
X3860584Y21375824D01*
X3864792Y21373245D01*
X3864798Y21373241D01*
X4058817Y21254346D01*
X4063037Y21251760D01*
X4067607Y21249867D01*
X4067611Y21249865D01*
X4277833Y21162789D01*
X4282406Y21160895D01*
X4362609Y21141640D01*
X4508476Y21106620D01*
X4508482Y21106619D01*
X4513289Y21105465D01*
X4750000Y21086835D01*
X4986711Y21105465D01*
X4991518Y21106619D01*
X4991524Y21106620D01*
X5137391Y21141640D01*
X5217594Y21160895D01*
X5222167Y21162789D01*
X5432389Y21249865D01*
X5432393Y21249867D01*
X5436963Y21251760D01*
X5441183Y21254346D01*
X5635202Y21373241D01*
X5635208Y21373245D01*
X5639416Y21375824D01*
X5819969Y21530031D01*
X5974176Y21710584D01*
X5976755Y21714792D01*
X5976759Y21714798D01*
X6094133Y21906335D01*
X6146781Y21953966D01*
X6201566Y21966500D01*
X15798434Y21966500D01*
X15866555Y21946498D01*
X15905867Y21906335D01*
X16023241Y21714798D01*
X16023245Y21714792D01*
X16025824Y21710584D01*
X16180031Y21530031D01*
X16360584Y21375824D01*
X16364792Y21373245D01*
X16364798Y21373241D01*
X16558817Y21254346D01*
X16563037Y21251760D01*
X16567607Y21249867D01*
X16567611Y21249865D01*
X16777833Y21162789D01*
X16782406Y21160895D01*
X16862609Y21141640D01*
X17008476Y21106620D01*
X17008482Y21106619D01*
X17013289Y21105465D01*
X17250000Y21086835D01*
X17486711Y21105465D01*
X17491518Y21106619D01*
X17491524Y21106620D01*
X17637391Y21141640D01*
X17717594Y21160895D01*
X17722167Y21162789D01*
X17932389Y21249865D01*
X17932393Y21249867D01*
X17936963Y21251760D01*
X17941183Y21254346D01*
X18135202Y21373241D01*
X18135208Y21373245D01*
X18139416Y21375824D01*
X18319969Y21530031D01*
X18474176Y21710584D01*
X18476755Y21714792D01*
X18476759Y21714798D01*
X18595654Y21908817D01*
X18598240Y21913037D01*
X18615194Y21953966D01*
X18687211Y22127833D01*
X18687212Y22127835D01*
X18689105Y22132406D01*
X18744535Y22363289D01*
X18763165Y22600000D01*
X18744535Y22836711D01*
X18689105Y23067594D01*
X18620385Y23233500D01*
X18600135Y23282389D01*
X18600133Y23282393D01*
X18598240Y23286963D01*
X18594133Y23293665D01*
X18476759Y23485202D01*
X18476755Y23485208D01*
X18474176Y23489416D01*
X18319969Y23669969D01*
X18139416Y23824176D01*
X18135208Y23826755D01*
X18135202Y23826759D01*
X17941183Y23945654D01*
X17936963Y23948240D01*
X17932393Y23950133D01*
X17932389Y23950135D01*
X17722167Y24037211D01*
X17722165Y24037212D01*
X17717594Y24039105D01*
X17637391Y24058360D01*
X17491524Y24093380D01*
X17491518Y24093381D01*
X17486711Y24094535D01*
X17250000Y24113165D01*
X17013289Y24094535D01*
X17008482Y24093381D01*
X17008476Y24093380D01*
X16862609Y24058360D01*
X16782406Y24039105D01*
X16777835Y24037212D01*
X16777833Y24037211D01*
X16567611Y23950135D01*
X16567607Y23950133D01*
X16563037Y23948240D01*
X16558817Y23945654D01*
X16364798Y23826759D01*
X16364792Y23826755D01*
X16360584Y23824176D01*
X16180031Y23669969D01*
X16025824Y23489416D01*
X16023245Y23485208D01*
X16023241Y23485202D01*
X15905867Y23293665D01*
X15853219Y23246034D01*
X15798434Y23233500D01*
X6201566Y23233500D01*
X6133445Y23253502D01*
X6094133Y23293665D01*
X5976759Y23485202D01*
X5976755Y23485208D01*
X5974176Y23489416D01*
X5819969Y23669969D01*
X5639416Y23824176D01*
X5635208Y23826755D01*
X5635202Y23826759D01*
X5441183Y23945654D01*
X5436963Y23948240D01*
X5432393Y23950133D01*
X5432389Y23950135D01*
X5222167Y24037211D01*
X5222165Y24037212D01*
X5217594Y24039105D01*
X5137391Y24058360D01*
X4991524Y24093380D01*
X4991518Y24093381D01*
X4986711Y24094535D01*
X4750000Y24113165D01*
X4513289Y24094535D01*
X4508482Y24093381D01*
X4508476Y24093380D01*
X4362609Y24058360D01*
X4282406Y24039105D01*
X4277835Y24037212D01*
X4277833Y24037211D01*
X4067611Y23950135D01*
X4067607Y23950133D01*
X4063037Y23948240D01*
X4058817Y23945654D01*
X3864798Y23826759D01*
X3864792Y23826755D01*
X3860584Y23824176D01*
X3680031Y23669969D01*
X3525824Y23489416D01*
X3523245Y23485208D01*
X3523241Y23485202D01*
X3405867Y23293665D01*
X3401760Y23286963D01*
X3399867Y23282393D01*
X3399865Y23282389D01*
X3379615Y23233500D01*
X3310895Y23067594D01*
X3255465Y22836711D01*
X3236835Y22600000D01*
X508500Y22600000D01*
X508500Y26600000D01*
X9486835Y26600000D01*
X9505465Y26363289D01*
X9560895Y26132406D01*
X9651760Y25913037D01*
X9654346Y25908817D01*
X9773241Y25714798D01*
X9773245Y25714792D01*
X9775824Y25710584D01*
X9930031Y25530031D01*
X10110584Y25375824D01*
X10114792Y25373245D01*
X10114798Y25373241D01*
X10308817Y25254346D01*
X10313037Y25251760D01*
X10317607Y25249867D01*
X10317611Y25249865D01*
X10527833Y25162789D01*
X10532406Y25160895D01*
X10612609Y25141640D01*
X10758476Y25106620D01*
X10758482Y25106619D01*
X10763289Y25105465D01*
X11000000Y25086835D01*
X11236711Y25105465D01*
X11241518Y25106619D01*
X11241524Y25106620D01*
X11387391Y25141640D01*
X11467594Y25160895D01*
X11472167Y25162789D01*
X11682389Y25249865D01*
X11682393Y25249867D01*
X11686963Y25251760D01*
X11691183Y25254346D01*
X11885202Y25373241D01*
X11885208Y25373245D01*
X11889416Y25375824D01*
X12069969Y25530031D01*
X12224176Y25710584D01*
X12226755Y25714792D01*
X12226759Y25714798D01*
X12345654Y25908817D01*
X12348240Y25913037D01*
X12439105Y26132406D01*
X12494535Y26363289D01*
X12513165Y26600000D01*
X12494535Y26836711D01*
X12439105Y27067594D01*
X12348240Y27286963D01*
X12345654Y27291183D01*
X12226759Y27485202D01*
X12226755Y27485208D01*
X12224176Y27489416D01*
X12069969Y27669969D01*
X11889416Y27824176D01*
X11885208Y27826755D01*
X11885202Y27826759D01*
X11691183Y27945654D01*
X11686963Y27948240D01*
X11682393Y27950133D01*
X11682389Y27950135D01*
X11601618Y27983591D01*
X11546337Y28028139D01*
X11523916Y28095503D01*
X11541474Y28164294D01*
X11593436Y28212672D01*
X11601618Y28216409D01*
X11682389Y28249865D01*
X11682393Y28249867D01*
X11686963Y28251760D01*
X11691183Y28254346D01*
X11885202Y28373241D01*
X11885208Y28373245D01*
X11889416Y28375824D01*
X12069969Y28530031D01*
X12224176Y28710584D01*
X12226755Y28714792D01*
X12226759Y28714798D01*
X12345654Y28908817D01*
X12348240Y28913037D01*
X12432008Y29115271D01*
X12437211Y29127833D01*
X12437212Y29127835D01*
X12439105Y29132406D01*
X12458360Y29212609D01*
X12493380Y29358476D01*
X12493381Y29358482D01*
X12494535Y29363289D01*
X12513165Y29600000D01*
X12494535Y29836711D01*
X12439105Y30067594D01*
X12380582Y30208882D01*
X12350135Y30282389D01*
X12350133Y30282393D01*
X12348240Y30286963D01*
X12345654Y30291183D01*
X12226759Y30485202D01*
X12226755Y30485208D01*
X12224176Y30489416D01*
X12069969Y30669969D01*
X11889416Y30824176D01*
X11885208Y30826755D01*
X11885202Y30826759D01*
X11691183Y30945654D01*
X11686963Y30948240D01*
X11682393Y30950133D01*
X11682389Y30950135D01*
X11562003Y31000000D01*
X14936496Y31000000D01*
X14937186Y30993435D01*
X14954976Y30824176D01*
X14956458Y30810072D01*
X15015473Y30628444D01*
X15110960Y30463056D01*
X15238747Y30321134D01*
X15393248Y30208882D01*
X15399276Y30206198D01*
X15399278Y30206197D01*
X15516978Y30153794D01*
X15567712Y30131206D01*
X15661113Y30111353D01*
X15748056Y30092872D01*
X15748061Y30092872D01*
X15754513Y30091500D01*
X15945487Y30091500D01*
X15951939Y30092872D01*
X15951944Y30092872D01*
X16038887Y30111353D01*
X16132288Y30131206D01*
X16183022Y30153794D01*
X16300722Y30206197D01*
X16300724Y30206198D01*
X16306752Y30208882D01*
X16461253Y30321134D01*
X16589040Y30463056D01*
X16684527Y30628444D01*
X16743542Y30810072D01*
X16745025Y30824176D01*
X16762814Y30993435D01*
X16763504Y31000000D01*
X16760342Y31030086D01*
X16744232Y31183365D01*
X16744232Y31183367D01*
X16743542Y31189928D01*
X16684527Y31371556D01*
X16589040Y31536944D01*
X16461253Y31678866D01*
X16306752Y31791118D01*
X16300724Y31793802D01*
X16300722Y31793803D01*
X16138319Y31866109D01*
X16138318Y31866109D01*
X16132288Y31868794D01*
X16016362Y31893435D01*
X15951944Y31907128D01*
X15951939Y31907128D01*
X15945487Y31908500D01*
X15754513Y31908500D01*
X15748061Y31907128D01*
X15748056Y31907128D01*
X15683638Y31893435D01*
X15567712Y31868794D01*
X15561682Y31866109D01*
X15561681Y31866109D01*
X15399278Y31793803D01*
X15399276Y31793802D01*
X15393248Y31791118D01*
X15238747Y31678866D01*
X15110960Y31536944D01*
X15015473Y31371556D01*
X14956458Y31189928D01*
X14955768Y31183367D01*
X14955768Y31183365D01*
X14939658Y31030086D01*
X14936496Y31000000D01*
X11562003Y31000000D01*
X11472167Y31037211D01*
X11472165Y31037212D01*
X11467594Y31039105D01*
X11387391Y31058360D01*
X11241524Y31093380D01*
X11241518Y31093381D01*
X11236711Y31094535D01*
X11000000Y31113165D01*
X10763289Y31094535D01*
X10758482Y31093381D01*
X10758476Y31093380D01*
X10612609Y31058360D01*
X10532406Y31039105D01*
X10527835Y31037212D01*
X10527833Y31037211D01*
X10317611Y30950135D01*
X10317607Y30950133D01*
X10313037Y30948240D01*
X10308817Y30945654D01*
X10114798Y30826759D01*
X10114792Y30826755D01*
X10110584Y30824176D01*
X9930031Y30669969D01*
X9775824Y30489416D01*
X9773245Y30485208D01*
X9773241Y30485202D01*
X9654346Y30291183D01*
X9651760Y30286963D01*
X9649867Y30282393D01*
X9649865Y30282389D01*
X9619418Y30208882D01*
X9560895Y30067594D01*
X9505465Y29836711D01*
X9486835Y29600000D01*
X9505465Y29363289D01*
X9506619Y29358482D01*
X9506620Y29358476D01*
X9541640Y29212609D01*
X9560895Y29132406D01*
X9562788Y29127835D01*
X9562789Y29127833D01*
X9567993Y29115271D01*
X9651760Y28913037D01*
X9654346Y28908817D01*
X9773241Y28714798D01*
X9773245Y28714792D01*
X9775824Y28710584D01*
X9930031Y28530031D01*
X10110584Y28375824D01*
X10114792Y28373245D01*
X10114798Y28373241D01*
X10308817Y28254346D01*
X10313037Y28251760D01*
X10317607Y28249867D01*
X10317611Y28249865D01*
X10398382Y28216409D01*
X10453663Y28171861D01*
X10476084Y28104497D01*
X10458526Y28035706D01*
X10406564Y27987328D01*
X10398382Y27983591D01*
X10317611Y27950135D01*
X10317607Y27950133D01*
X10313037Y27948240D01*
X10308817Y27945654D01*
X10114798Y27826759D01*
X10114792Y27826755D01*
X10110584Y27824176D01*
X9930031Y27669969D01*
X9775824Y27489416D01*
X9773245Y27485208D01*
X9773241Y27485202D01*
X9654346Y27291183D01*
X9651760Y27286963D01*
X9560895Y27067594D01*
X9505465Y26836711D01*
X9486835Y26600000D01*
X508500Y26600000D01*
X508500Y28750000D01*
X1786496Y28750000D01*
X1806458Y28560072D01*
X1865473Y28378444D01*
X1960960Y28213056D01*
X2088747Y28071134D01*
X2243248Y27958882D01*
X2249276Y27956198D01*
X2249278Y27956197D01*
X2411681Y27883891D01*
X2417712Y27881206D01*
X2511112Y27861353D01*
X2598056Y27842872D01*
X2598061Y27842872D01*
X2604513Y27841500D01*
X2795487Y27841500D01*
X2801939Y27842872D01*
X2801944Y27842872D01*
X2888888Y27861353D01*
X2982288Y27881206D01*
X2988319Y27883891D01*
X3150722Y27956197D01*
X3150724Y27956198D01*
X3156752Y27958882D01*
X3311253Y28071134D01*
X3439040Y28213056D01*
X3534527Y28378444D01*
X3593542Y28560072D01*
X3613504Y28750000D01*
X6886496Y28750000D01*
X6906458Y28560072D01*
X6965473Y28378444D01*
X7060960Y28213056D01*
X7188747Y28071134D01*
X7343248Y27958882D01*
X7349276Y27956198D01*
X7349278Y27956197D01*
X7511681Y27883891D01*
X7517712Y27881206D01*
X7611112Y27861353D01*
X7698056Y27842872D01*
X7698061Y27842872D01*
X7704513Y27841500D01*
X7895487Y27841500D01*
X7901939Y27842872D01*
X7901944Y27842872D01*
X7988888Y27861353D01*
X8082288Y27881206D01*
X8088319Y27883891D01*
X8250722Y27956197D01*
X8250724Y27956198D01*
X8256752Y27958882D01*
X8411253Y28071134D01*
X8539040Y28213056D01*
X8634527Y28378444D01*
X8693542Y28560072D01*
X8713504Y28750000D01*
X8696812Y28908817D01*
X8694232Y28933365D01*
X8694232Y28933367D01*
X8693542Y28939928D01*
X8634527Y29121556D01*
X8539040Y29286944D01*
X8474633Y29358476D01*
X8415675Y29423955D01*
X8415674Y29423956D01*
X8411253Y29428866D01*
X8288987Y29517698D01*
X8262094Y29537237D01*
X8262093Y29537238D01*
X8256752Y29541118D01*
X8250724Y29543802D01*
X8250722Y29543803D01*
X8088319Y29616109D01*
X8088318Y29616109D01*
X8082288Y29618794D01*
X7988888Y29638647D01*
X7901944Y29657128D01*
X7901939Y29657128D01*
X7895487Y29658500D01*
X7704513Y29658500D01*
X7698061Y29657128D01*
X7698056Y29657128D01*
X7611112Y29638647D01*
X7517712Y29618794D01*
X7511682Y29616109D01*
X7511681Y29616109D01*
X7349278Y29543803D01*
X7349276Y29543802D01*
X7343248Y29541118D01*
X7337907Y29537238D01*
X7337906Y29537237D01*
X7311013Y29517698D01*
X7188747Y29428866D01*
X7184326Y29423956D01*
X7184325Y29423955D01*
X7125368Y29358476D01*
X7060960Y29286944D01*
X6965473Y29121556D01*
X6906458Y28939928D01*
X6905768Y28933367D01*
X6905768Y28933365D01*
X6903188Y28908817D01*
X6886496Y28750000D01*
X3613504Y28750000D01*
X3596812Y28908817D01*
X3594232Y28933365D01*
X3594232Y28933367D01*
X3593542Y28939928D01*
X3534527Y29121556D01*
X3439040Y29286944D01*
X3374633Y29358476D01*
X3315675Y29423955D01*
X3315674Y29423956D01*
X3311253Y29428866D01*
X3188987Y29517698D01*
X3162094Y29537237D01*
X3162093Y29537238D01*
X3156752Y29541118D01*
X3150724Y29543802D01*
X3150722Y29543803D01*
X2988319Y29616109D01*
X2988318Y29616109D01*
X2982288Y29618794D01*
X2888888Y29638647D01*
X2801944Y29657128D01*
X2801939Y29657128D01*
X2795487Y29658500D01*
X2604513Y29658500D01*
X2598061Y29657128D01*
X2598056Y29657128D01*
X2511112Y29638647D01*
X2417712Y29618794D01*
X2411682Y29616109D01*
X2411681Y29616109D01*
X2249278Y29543803D01*
X2249276Y29543802D01*
X2243248Y29541118D01*
X2237907Y29537238D01*
X2237906Y29537237D01*
X2211013Y29517698D01*
X2088747Y29428866D01*
X2084326Y29423956D01*
X2084325Y29423955D01*
X2025368Y29358476D01*
X1960960Y29286944D01*
X1865473Y29121556D01*
X1806458Y28939928D01*
X1805768Y28933367D01*
X1805768Y28933365D01*
X1803188Y28908817D01*
X1786496Y28750000D01*
X508500Y28750000D01*
X508500Y29402591D01*
X528502Y29470712D01*
X582158Y29517205D01*
X652432Y29527309D01*
X685748Y29517698D01*
X761677Y29483892D01*
X761685Y29483889D01*
X767712Y29481206D01*
X861113Y29461353D01*
X948056Y29442872D01*
X948061Y29442872D01*
X954513Y29441500D01*
X1145487Y29441500D01*
X1151939Y29442872D01*
X1151944Y29442872D01*
X1238887Y29461353D01*
X1332288Y29481206D01*
X1338321Y29483892D01*
X1500722Y29556197D01*
X1500724Y29556198D01*
X1506752Y29558882D01*
X1661253Y29671134D01*
X1789040Y29813056D01*
X1884527Y29978444D01*
X1943542Y30160072D01*
X1963504Y30350000D01*
X1952137Y30458148D01*
X1944232Y30533365D01*
X1944232Y30533367D01*
X1943542Y30539928D01*
X1884527Y30721556D01*
X1789040Y30886944D01*
X1748725Y30931719D01*
X1665675Y31023955D01*
X1665674Y31023956D01*
X1661253Y31028866D01*
X1506752Y31141118D01*
X1500724Y31143802D01*
X1500722Y31143803D01*
X1338319Y31216109D01*
X1338318Y31216109D01*
X1332288Y31218794D01*
X1238888Y31238647D01*
X1151944Y31257128D01*
X1151939Y31257128D01*
X1145487Y31258500D01*
X954513Y31258500D01*
X948061Y31257128D01*
X948056Y31257128D01*
X861112Y31238647D01*
X767712Y31218794D01*
X761685Y31216111D01*
X761677Y31216108D01*
X685748Y31182302D01*
X615381Y31172868D01*
X551084Y31202975D01*
X513271Y31263064D01*
X508500Y31297409D01*
X508500Y32367330D01*
X3882160Y32367330D01*
X3887887Y32359680D01*
X4059042Y32254795D01*
X4067837Y32250313D01*
X4277988Y32163266D01*
X4287373Y32160217D01*
X4508554Y32107115D01*
X4518301Y32105572D01*
X4745070Y32087725D01*
X4754930Y32087725D01*
X4981699Y32105572D01*
X4991446Y32107115D01*
X5212627Y32160217D01*
X5222012Y32163266D01*
X5432163Y32250313D01*
X5440958Y32254795D01*
X5608445Y32357432D01*
X5617907Y32367890D01*
X5614124Y32376666D01*
X4762812Y33227978D01*
X4748868Y33235592D01*
X4747035Y33235461D01*
X4740420Y33231210D01*
X3888920Y32379710D01*
X3882160Y32367330D01*
X508500Y32367330D01*
X508500Y33595070D01*
X3237725Y33595070D01*
X3255572Y33368301D01*
X3257115Y33358554D01*
X3310217Y33137373D01*
X3313266Y33127988D01*
X3400313Y32917837D01*
X3404795Y32909042D01*
X3507432Y32741555D01*
X3517890Y32732093D01*
X3526666Y32735876D01*
X4377978Y33587188D01*
X4384356Y33598868D01*
X5114408Y33598868D01*
X5114539Y33597035D01*
X5118790Y33590420D01*
X5970290Y32738920D01*
X5982670Y32732160D01*
X5990320Y32737887D01*
X6095205Y32909042D01*
X6099687Y32917837D01*
X6186734Y33127988D01*
X6189783Y33137373D01*
X6242885Y33358554D01*
X6244428Y33368301D01*
X6262275Y33595070D01*
X15737725Y33595070D01*
X15755572Y33368301D01*
X15757115Y33358554D01*
X15810217Y33137373D01*
X15813266Y33127988D01*
X15900313Y32917837D01*
X15904795Y32909042D01*
X16007432Y32741555D01*
X16017890Y32732093D01*
X16026666Y32735876D01*
X16877978Y33587188D01*
X16885592Y33601132D01*
X16885461Y33602965D01*
X16881210Y33609580D01*
X16029710Y34461080D01*
X16017330Y34467840D01*
X16009680Y34462113D01*
X15904795Y34290958D01*
X15900313Y34282163D01*
X15813266Y34072012D01*
X15810217Y34062627D01*
X15757115Y33841446D01*
X15755572Y33831699D01*
X15737725Y33604930D01*
X15737725Y33595070D01*
X6262275Y33595070D01*
X6262275Y33604930D01*
X6244428Y33831699D01*
X6242885Y33841446D01*
X6189783Y34062627D01*
X6186734Y34072012D01*
X6099687Y34282163D01*
X6095205Y34290958D01*
X5992568Y34458445D01*
X5982110Y34467907D01*
X5973334Y34464124D01*
X5122022Y33612812D01*
X5114408Y33598868D01*
X4384356Y33598868D01*
X4385592Y33601132D01*
X4385461Y33602965D01*
X4381210Y33609580D01*
X3529710Y34461080D01*
X3517330Y34467840D01*
X3509680Y34462113D01*
X3404795Y34290958D01*
X3400313Y34282163D01*
X3313266Y34072012D01*
X3310217Y34062627D01*
X3257115Y33841446D01*
X3255572Y33831699D01*
X3237725Y33604930D01*
X3237725Y33595070D01*
X508500Y33595070D01*
X508500Y34832110D01*
X3882093Y34832110D01*
X3885876Y34823334D01*
X4737188Y33972022D01*
X4751132Y33964408D01*
X4752965Y33964539D01*
X4759580Y33968790D01*
X5611080Y34820290D01*
X5617840Y34832670D01*
X5612113Y34840320D01*
X5440958Y34945205D01*
X5432163Y34949687D01*
X5222012Y35036734D01*
X5212627Y35039783D01*
X4991446Y35092885D01*
X4981699Y35094428D01*
X4754930Y35112275D01*
X4745070Y35112275D01*
X4518301Y35094428D01*
X4508554Y35092885D01*
X4287373Y35039783D01*
X4277988Y35036734D01*
X4067837Y34949687D01*
X4059042Y34945205D01*
X3891555Y34842568D01*
X3882093Y34832110D01*
X508500Y34832110D01*
X508500Y38600000D01*
X3236835Y38600000D01*
X3255465Y38363289D01*
X3310895Y38132406D01*
X3312788Y38127835D01*
X3312789Y38127833D01*
X3384807Y37953966D01*
X3401760Y37913037D01*
X3404346Y37908817D01*
X3523241Y37714798D01*
X3523245Y37714792D01*
X3525824Y37710584D01*
X3680031Y37530031D01*
X3860584Y37375824D01*
X3864792Y37373245D01*
X3864798Y37373241D01*
X4035273Y37268774D01*
X4063037Y37251760D01*
X4067607Y37249867D01*
X4067611Y37249865D01*
X4275115Y37163915D01*
X4282406Y37160895D01*
X4362609Y37141640D01*
X4508476Y37106620D01*
X4508482Y37106619D01*
X4513289Y37105465D01*
X4750000Y37086835D01*
X4986711Y37105465D01*
X4991518Y37106619D01*
X4991524Y37106620D01*
X5137391Y37141640D01*
X5217594Y37160895D01*
X5224885Y37163915D01*
X5432389Y37249865D01*
X5432393Y37249867D01*
X5436963Y37251760D01*
X5464727Y37268774D01*
X5635202Y37373241D01*
X5635208Y37373245D01*
X5639416Y37375824D01*
X5819969Y37530031D01*
X5974176Y37710584D01*
X5976755Y37714792D01*
X5976759Y37714798D01*
X6094133Y37906335D01*
X6146781Y37953966D01*
X6201566Y37966500D01*
X13764058Y37966500D01*
X13832179Y37946498D01*
X13878672Y37892842D01*
X13889368Y37827331D01*
X13887186Y37806568D01*
X13886496Y37800000D01*
X13906458Y37610072D01*
X13965473Y37428444D01*
X14060960Y37263056D01*
X14065378Y37258149D01*
X14065379Y37258148D01*
X14071131Y37251760D01*
X14188747Y37121134D01*
X14343248Y37008882D01*
X14349276Y37006198D01*
X14349278Y37006197D01*
X14511681Y36933891D01*
X14517712Y36931206D01*
X14611113Y36911353D01*
X14698056Y36892872D01*
X14698061Y36892872D01*
X14704513Y36891500D01*
X14895487Y36891500D01*
X14901939Y36892872D01*
X14901944Y36892872D01*
X14988888Y36911353D01*
X15082288Y36931206D01*
X15088319Y36933891D01*
X15250722Y37006197D01*
X15250724Y37006198D01*
X15256752Y37008882D01*
X15411253Y37121134D01*
X15528869Y37251760D01*
X15534621Y37258148D01*
X15534622Y37258149D01*
X15539040Y37263056D01*
X15634527Y37428444D01*
X15693542Y37610072D01*
X15712407Y37789567D01*
X15739420Y37855223D01*
X15797641Y37895853D01*
X15868587Y37898556D01*
X15929731Y37862474D01*
X15945149Y37842231D01*
X16023235Y37714807D01*
X16023242Y37714798D01*
X16025824Y37710584D01*
X16180031Y37530031D01*
X16360584Y37375824D01*
X16364792Y37373245D01*
X16364798Y37373241D01*
X16535273Y37268774D01*
X16563037Y37251760D01*
X16567607Y37249867D01*
X16567611Y37249865D01*
X16775115Y37163915D01*
X16830396Y37119367D01*
X16852817Y37052004D01*
X16835259Y36983212D01*
X16793004Y36941454D01*
X16793248Y36941118D01*
X16638747Y36828866D01*
X16510960Y36686944D01*
X16415473Y36521556D01*
X16356458Y36339928D01*
X16336496Y36150000D01*
X16356458Y35960072D01*
X16415473Y35778444D01*
X16510960Y35613056D01*
X16638747Y35471134D01*
X16793248Y35358882D01*
X16799276Y35356198D01*
X16799278Y35356197D01*
X16917724Y35303462D01*
X16971820Y35257482D01*
X16992469Y35189555D01*
X16973117Y35121247D01*
X16919906Y35074245D01*
X16895889Y35065836D01*
X16787373Y35039783D01*
X16777988Y35036734D01*
X16567837Y34949687D01*
X16559042Y34945205D01*
X16391555Y34842568D01*
X16382093Y34832110D01*
X16385876Y34823334D01*
X17237188Y33972022D01*
X17251132Y33964408D01*
X17252965Y33964539D01*
X17259580Y33968790D01*
X18111080Y34820290D01*
X18117840Y34832670D01*
X18112113Y34840320D01*
X17940958Y34945205D01*
X17932163Y34949687D01*
X17722012Y35036734D01*
X17712627Y35039783D01*
X17604111Y35065836D01*
X17542541Y35101189D01*
X17509859Y35164215D01*
X17516440Y35234906D01*
X17560194Y35290818D01*
X17582276Y35303462D01*
X17700722Y35356197D01*
X17700724Y35356198D01*
X17706752Y35358882D01*
X17861253Y35471134D01*
X17989040Y35613056D01*
X18084527Y35778444D01*
X18143542Y35960072D01*
X18163504Y36150000D01*
X18143542Y36339928D01*
X18084527Y36521556D01*
X17989040Y36686944D01*
X17861253Y36828866D01*
X17706752Y36941118D01*
X17707074Y36941561D01*
X17661106Y36989776D01*
X17647674Y37059491D01*
X17674065Y37125400D01*
X17724885Y37163915D01*
X17932389Y37249865D01*
X17932393Y37249867D01*
X17936963Y37251760D01*
X17964727Y37268774D01*
X18135202Y37373241D01*
X18135208Y37373245D01*
X18139416Y37375824D01*
X18319969Y37530031D01*
X18474176Y37710584D01*
X18476755Y37714792D01*
X18476759Y37714798D01*
X18595654Y37908817D01*
X18598240Y37913037D01*
X18615194Y37953966D01*
X18687211Y38127833D01*
X18687212Y38127835D01*
X18689105Y38132406D01*
X18744535Y38363289D01*
X18763165Y38600000D01*
X18744535Y38836711D01*
X18731382Y38891500D01*
X18690260Y39062782D01*
X18689105Y39067594D01*
X18620385Y39233500D01*
X18600135Y39282389D01*
X18600133Y39282393D01*
X18598240Y39286963D01*
X18511540Y39428444D01*
X18476759Y39485202D01*
X18476755Y39485208D01*
X18474176Y39489416D01*
X18319969Y39669969D01*
X18139416Y39824176D01*
X18135208Y39826755D01*
X18135202Y39826759D01*
X17941183Y39945654D01*
X17936963Y39948240D01*
X17932393Y39950133D01*
X17932389Y39950135D01*
X17722167Y40037211D01*
X17722165Y40037212D01*
X17717594Y40039105D01*
X17637391Y40058360D01*
X17491524Y40093380D01*
X17491518Y40093381D01*
X17486711Y40094535D01*
X17250000Y40113165D01*
X17013289Y40094535D01*
X17008482Y40093381D01*
X17008476Y40093380D01*
X16862609Y40058360D01*
X16782406Y40039105D01*
X16777835Y40037212D01*
X16777833Y40037211D01*
X16567611Y39950135D01*
X16567607Y39950133D01*
X16563037Y39948240D01*
X16558817Y39945654D01*
X16364798Y39826759D01*
X16364792Y39826755D01*
X16360584Y39824176D01*
X16180031Y39669969D01*
X16025824Y39489416D01*
X16023245Y39485208D01*
X16023241Y39485202D01*
X15905867Y39293665D01*
X15853219Y39246034D01*
X15798434Y39233500D01*
X6201566Y39233500D01*
X6133445Y39253502D01*
X6094133Y39293665D01*
X5976759Y39485202D01*
X5976755Y39485208D01*
X5974176Y39489416D01*
X5819969Y39669969D01*
X5639416Y39824176D01*
X5635208Y39826755D01*
X5635202Y39826759D01*
X5441183Y39945654D01*
X5436963Y39948240D01*
X5432393Y39950133D01*
X5432389Y39950135D01*
X5222167Y40037211D01*
X5222165Y40037212D01*
X5217594Y40039105D01*
X5137391Y40058360D01*
X4991524Y40093380D01*
X4991518Y40093381D01*
X4986711Y40094535D01*
X4750000Y40113165D01*
X4513289Y40094535D01*
X4508482Y40093381D01*
X4508476Y40093380D01*
X4362609Y40058360D01*
X4282406Y40039105D01*
X4277835Y40037212D01*
X4277833Y40037211D01*
X4067611Y39950135D01*
X4067607Y39950133D01*
X4063037Y39948240D01*
X4058817Y39945654D01*
X3864798Y39826759D01*
X3864792Y39826755D01*
X3860584Y39824176D01*
X3680031Y39669969D01*
X3525824Y39489416D01*
X3523245Y39485208D01*
X3523241Y39485202D01*
X3488460Y39428444D01*
X3401760Y39286963D01*
X3399867Y39282393D01*
X3399865Y39282389D01*
X3379615Y39233500D01*
X3310895Y39067594D01*
X3309740Y39062782D01*
X3268619Y38891500D01*
X3255465Y38836711D01*
X3236835Y38600000D01*
X508500Y38600000D01*
X508500Y38798822D01*
X528502Y38866943D01*
X582158Y38913436D01*
X652432Y38923540D01*
X660697Y38922069D01*
X798056Y38892872D01*
X798061Y38892872D01*
X804513Y38891500D01*
X995487Y38891500D01*
X1001939Y38892872D01*
X1001944Y38892872D01*
X1098687Y38913436D01*
X1182288Y38931206D01*
X1291500Y38979830D01*
X1350722Y39006197D01*
X1350724Y39006198D01*
X1356752Y39008882D01*
X1511253Y39121134D01*
X1612428Y39233500D01*
X1634621Y39258148D01*
X1634622Y39258149D01*
X1639040Y39263056D01*
X1734527Y39428444D01*
X1793542Y39610072D01*
X1813504Y39800000D01*
X1797924Y39948240D01*
X1794232Y39983365D01*
X1794232Y39983367D01*
X1793542Y39989928D01*
X1734527Y40171556D01*
X1639040Y40336944D01*
X1511253Y40478866D01*
X1356752Y40591118D01*
X1350724Y40593802D01*
X1350722Y40593803D01*
X1188319Y40666109D01*
X1188318Y40666109D01*
X1182288Y40668794D01*
X1088888Y40688647D01*
X1001944Y40707128D01*
X1001939Y40707128D01*
X995487Y40708500D01*
X804513Y40708500D01*
X798061Y40707128D01*
X798056Y40707128D01*
X660697Y40677931D01*
X589906Y40683333D01*
X533274Y40726150D01*
X508780Y40792788D01*
X508500Y40801178D01*
X508500Y42600000D01*
X9486835Y42600000D01*
X9505465Y42363289D01*
X9560895Y42132406D01*
X9562788Y42127835D01*
X9562789Y42127833D01*
X9608435Y42017634D01*
X9651760Y41913037D01*
X9654346Y41908817D01*
X9773241Y41714798D01*
X9773245Y41714792D01*
X9775824Y41710584D01*
X9930031Y41530031D01*
X10110584Y41375824D01*
X10114792Y41373245D01*
X10114798Y41373241D01*
X10308817Y41254346D01*
X10313037Y41251760D01*
X10317607Y41249867D01*
X10317611Y41249865D01*
X10527833Y41162789D01*
X10532406Y41160895D01*
X10612609Y41141640D01*
X10758476Y41106620D01*
X10758482Y41106619D01*
X10763289Y41105465D01*
X11000000Y41086835D01*
X11236711Y41105465D01*
X11241518Y41106619D01*
X11241524Y41106620D01*
X11387391Y41141640D01*
X11467594Y41160895D01*
X11472167Y41162789D01*
X11682389Y41249865D01*
X11682393Y41249867D01*
X11686963Y41251760D01*
X11691183Y41254346D01*
X11885202Y41373241D01*
X11885208Y41373245D01*
X11889416Y41375824D01*
X12069969Y41530031D01*
X12224176Y41710584D01*
X12226755Y41714792D01*
X12226759Y41714798D01*
X12345654Y41908817D01*
X12348240Y41913037D01*
X12391566Y42017634D01*
X12437211Y42127833D01*
X12437212Y42127835D01*
X12439105Y42132406D01*
X12494535Y42363289D01*
X12513165Y42600000D01*
X12494535Y42836711D01*
X12493087Y42842746D01*
X12440260Y43062782D01*
X12439105Y43067594D01*
X12348240Y43286963D01*
X12345654Y43291183D01*
X12226759Y43485202D01*
X12226755Y43485208D01*
X12224176Y43489416D01*
X12069969Y43669969D01*
X11889416Y43824176D01*
X11885208Y43826755D01*
X11885202Y43826759D01*
X11691183Y43945654D01*
X11686963Y43948240D01*
X11682393Y43950133D01*
X11682389Y43950135D01*
X11601618Y43983591D01*
X11546337Y44028139D01*
X11523916Y44095503D01*
X11541474Y44164294D01*
X11593436Y44212672D01*
X11601618Y44216409D01*
X11682389Y44249865D01*
X11682393Y44249867D01*
X11686963Y44251760D01*
X11691183Y44254346D01*
X11885202Y44373241D01*
X11885208Y44373245D01*
X11889416Y44375824D01*
X12069969Y44530031D01*
X12073982Y44534729D01*
X12090968Y44554618D01*
X12224176Y44710584D01*
X12226755Y44714792D01*
X12226759Y44714798D01*
X12345654Y44908817D01*
X12348240Y44913037D01*
X12410380Y45063056D01*
X12437211Y45127833D01*
X12437212Y45127835D01*
X12439105Y45132406D01*
X12467860Y45252179D01*
X12493381Y45358480D01*
X12493382Y45358487D01*
X12494535Y45363289D01*
X12494923Y45368223D01*
X12494957Y45368435D01*
X12525368Y45432589D01*
X12585635Y45470117D01*
X12656624Y45469105D01*
X12715797Y45429873D01*
X12739239Y45387665D01*
X12790973Y45228444D01*
X12886460Y45063056D01*
X13014247Y44921134D01*
X13168748Y44808882D01*
X13174776Y44806198D01*
X13174778Y44806197D01*
X13337181Y44733891D01*
X13343212Y44731206D01*
X13436613Y44711353D01*
X13523556Y44692872D01*
X13523561Y44692872D01*
X13530013Y44691500D01*
X13720987Y44691500D01*
X13727439Y44692872D01*
X13727444Y44692872D01*
X13814388Y44711353D01*
X13907788Y44731206D01*
X13913819Y44733891D01*
X14076222Y44806197D01*
X14076224Y44806198D01*
X14082252Y44808882D01*
X14236753Y44921134D01*
X14364540Y45063056D01*
X14460027Y45228444D01*
X14519042Y45410072D01*
X14519983Y45419019D01*
X14538314Y45593435D01*
X14539004Y45600000D01*
X14532868Y45658380D01*
X14519732Y45783365D01*
X14519732Y45783367D01*
X14519042Y45789928D01*
X14460027Y45971556D01*
X14364540Y46136944D01*
X14322743Y46183365D01*
X14318137Y46188480D01*
X14287419Y46252487D01*
X14296184Y46322941D01*
X14318135Y46357098D01*
X14371219Y46416053D01*
X14431664Y46453292D01*
X14491050Y46454989D01*
X14541735Y46444216D01*
X14554513Y46441500D01*
X14745487Y46441500D01*
X14751939Y46442872D01*
X14751944Y46442872D01*
X14846899Y46463056D01*
X14932288Y46481206D01*
X14938319Y46483891D01*
X15100722Y46556197D01*
X15100724Y46556198D01*
X15106752Y46558882D01*
X15261253Y46671134D01*
X15292824Y46706197D01*
X15384621Y46808148D01*
X15384622Y46808149D01*
X15389040Y46813056D01*
X15484527Y46978444D01*
X15543542Y47160072D01*
X15563504Y47350000D01*
X15543542Y47539928D01*
X15484527Y47721556D01*
X15471742Y47743700D01*
X15455005Y47812695D01*
X15471743Y47869699D01*
X15531223Y47972721D01*
X15531224Y47972722D01*
X15534527Y47978444D01*
X15593542Y48160072D01*
X15595518Y48178866D01*
X15612814Y48343435D01*
X15613504Y48350000D01*
X15610381Y48379710D01*
X15594232Y48533365D01*
X15594232Y48533367D01*
X15593542Y48539928D01*
X15534527Y48721556D01*
X15528444Y48732093D01*
X15442341Y48881226D01*
X15439040Y48886944D01*
X15311253Y49028866D01*
X15156752Y49141118D01*
X15150724Y49143802D01*
X15150722Y49143803D01*
X14988319Y49216109D01*
X14988318Y49216109D01*
X14982288Y49218794D01*
X14888887Y49238647D01*
X14801944Y49257128D01*
X14801939Y49257128D01*
X14795487Y49258500D01*
X14604513Y49258500D01*
X14598061Y49257128D01*
X14598056Y49257128D01*
X14511113Y49238647D01*
X14417712Y49218794D01*
X14411682Y49216109D01*
X14411681Y49216109D01*
X14249278Y49143803D01*
X14249276Y49143802D01*
X14243248Y49141118D01*
X14088747Y49028866D01*
X13960960Y48886944D01*
X13957659Y48881226D01*
X13871557Y48732093D01*
X13865473Y48721556D01*
X13806458Y48539928D01*
X13805768Y48533367D01*
X13805768Y48533365D01*
X13789619Y48379710D01*
X13786496Y48350000D01*
X13787186Y48343435D01*
X13804483Y48178866D01*
X13806458Y48160072D01*
X13808498Y48153794D01*
X13834608Y48073436D01*
X13836636Y48002469D01*
X13799973Y47941671D01*
X13736261Y47910345D01*
X13714775Y47908500D01*
X13579013Y47908500D01*
X13572561Y47907128D01*
X13572556Y47907128D01*
X13500968Y47891911D01*
X13392212Y47868794D01*
X13386182Y47866109D01*
X13386181Y47866109D01*
X13223778Y47793803D01*
X13223776Y47793802D01*
X13217748Y47791118D01*
X13212407Y47787238D01*
X13212406Y47787237D01*
X13162343Y47750864D01*
X13063247Y47678866D01*
X13058826Y47673956D01*
X13058825Y47673955D01*
X12943800Y47546206D01*
X12935460Y47536944D01*
X12839973Y47371556D01*
X12780958Y47189928D01*
X12780268Y47183367D01*
X12780268Y47183365D01*
X12765227Y47040260D01*
X12760996Y47000000D01*
X12761686Y46993435D01*
X12779476Y46824176D01*
X12780958Y46810072D01*
X12839973Y46628444D01*
X12935460Y46463056D01*
X12939878Y46458149D01*
X12939879Y46458148D01*
X12981863Y46411520D01*
X13012581Y46347513D01*
X13003816Y46277059D01*
X12981863Y46242900D01*
X12928258Y46183365D01*
X12886460Y46136944D01*
X12790973Y45971556D01*
X12747159Y45836711D01*
X12739239Y45812336D01*
X12699165Y45753731D01*
X12633768Y45726094D01*
X12563812Y45738201D01*
X12511506Y45786207D01*
X12494957Y45831565D01*
X12494923Y45831778D01*
X12494535Y45836711D01*
X12493382Y45841513D01*
X12493381Y45841520D01*
X12440260Y46062782D01*
X12439105Y46067594D01*
X12412748Y46131226D01*
X12350135Y46282389D01*
X12350133Y46282393D01*
X12348240Y46286963D01*
X12271911Y46411520D01*
X12226759Y46485202D01*
X12226755Y46485208D01*
X12224176Y46489416D01*
X12069969Y46669969D01*
X11889416Y46824176D01*
X11885208Y46826755D01*
X11885202Y46826759D01*
X11691183Y46945654D01*
X11686963Y46948240D01*
X11682393Y46950133D01*
X11682389Y46950135D01*
X11472167Y47037211D01*
X11472165Y47037212D01*
X11467594Y47039105D01*
X11387391Y47058360D01*
X11241524Y47093380D01*
X11241518Y47093381D01*
X11236711Y47094535D01*
X11000000Y47113165D01*
X10763289Y47094535D01*
X10758482Y47093381D01*
X10758476Y47093380D01*
X10612609Y47058360D01*
X10532406Y47039105D01*
X10527835Y47037212D01*
X10527833Y47037211D01*
X10317611Y46950135D01*
X10317607Y46950133D01*
X10313037Y46948240D01*
X10308817Y46945654D01*
X10114798Y46826759D01*
X10114792Y46826755D01*
X10110584Y46824176D01*
X9930031Y46669969D01*
X9775824Y46489416D01*
X9773245Y46485208D01*
X9773241Y46485202D01*
X9728089Y46411520D01*
X9651760Y46286963D01*
X9649867Y46282393D01*
X9649865Y46282389D01*
X9587252Y46131226D01*
X9560895Y46067594D01*
X9559740Y46062782D01*
X9506620Y45841524D01*
X9506619Y45841518D01*
X9505465Y45836711D01*
X9486835Y45600000D01*
X9505465Y45363289D01*
X9506619Y45358482D01*
X9506620Y45358476D01*
X9532140Y45252179D01*
X9560895Y45132406D01*
X9562788Y45127835D01*
X9562789Y45127833D01*
X9589621Y45063056D01*
X9651760Y44913037D01*
X9654346Y44908817D01*
X9773241Y44714798D01*
X9773245Y44714792D01*
X9775824Y44710584D01*
X9909032Y44554618D01*
X9926019Y44534729D01*
X9930031Y44530031D01*
X10110584Y44375824D01*
X10114792Y44373245D01*
X10114798Y44373241D01*
X10308817Y44254346D01*
X10313037Y44251760D01*
X10317607Y44249867D01*
X10317611Y44249865D01*
X10398382Y44216409D01*
X10453663Y44171861D01*
X10476084Y44104497D01*
X10458526Y44035706D01*
X10406564Y43987328D01*
X10398382Y43983591D01*
X10317611Y43950135D01*
X10317607Y43950133D01*
X10313037Y43948240D01*
X10308817Y43945654D01*
X10114798Y43826759D01*
X10114792Y43826755D01*
X10110584Y43824176D01*
X9930031Y43669969D01*
X9775824Y43489416D01*
X9773245Y43485208D01*
X9773241Y43485202D01*
X9654346Y43291183D01*
X9651760Y43286963D01*
X9560895Y43067594D01*
X9559740Y43062782D01*
X9506914Y42842746D01*
X9505465Y42836711D01*
X9486835Y42600000D01*
X508500Y42600000D01*
X508500Y44700000D01*
X4736496Y44700000D01*
X4737186Y44693435D01*
X4755129Y44522721D01*
X4756458Y44510072D01*
X4815473Y44328444D01*
X4910960Y44163056D01*
X4915378Y44158149D01*
X4915379Y44158148D01*
X5029678Y44031206D01*
X5038747Y44021134D01*
X5193248Y43908882D01*
X5199276Y43906198D01*
X5199278Y43906197D01*
X5361681Y43833891D01*
X5367712Y43831206D01*
X5461112Y43811353D01*
X5548056Y43792872D01*
X5548061Y43792872D01*
X5554513Y43791500D01*
X5745487Y43791500D01*
X5751939Y43792872D01*
X5751944Y43792872D01*
X5838888Y43811353D01*
X5932288Y43831206D01*
X5938319Y43833891D01*
X6100722Y43906197D01*
X6100724Y43906198D01*
X6106752Y43908882D01*
X6261253Y44021134D01*
X6270322Y44031206D01*
X6384621Y44158148D01*
X6384622Y44158149D01*
X6389040Y44163056D01*
X6484527Y44328444D01*
X6543542Y44510072D01*
X6544872Y44522721D01*
X6562814Y44693435D01*
X6563504Y44700000D01*
X7036496Y44700000D01*
X7037186Y44693435D01*
X7055129Y44522721D01*
X7056458Y44510072D01*
X7115473Y44328444D01*
X7210960Y44163056D01*
X7215378Y44158149D01*
X7215379Y44158148D01*
X7329678Y44031206D01*
X7338747Y44021134D01*
X7493248Y43908882D01*
X7499276Y43906198D01*
X7499278Y43906197D01*
X7661681Y43833891D01*
X7667712Y43831206D01*
X7761112Y43811353D01*
X7848056Y43792872D01*
X7848061Y43792872D01*
X7854513Y43791500D01*
X8045487Y43791500D01*
X8051939Y43792872D01*
X8051944Y43792872D01*
X8138888Y43811353D01*
X8232288Y43831206D01*
X8238319Y43833891D01*
X8400722Y43906197D01*
X8400724Y43906198D01*
X8406752Y43908882D01*
X8561253Y44021134D01*
X8570322Y44031206D01*
X8684621Y44158148D01*
X8684622Y44158149D01*
X8689040Y44163056D01*
X8784527Y44328444D01*
X8843542Y44510072D01*
X8844872Y44522721D01*
X8862814Y44693435D01*
X8863504Y44700000D01*
X8843542Y44889928D01*
X8784527Y45071556D01*
X8689040Y45236944D01*
X8675323Y45252179D01*
X8565675Y45373955D01*
X8565674Y45373956D01*
X8561253Y45378866D01*
X8406752Y45491118D01*
X8400724Y45493802D01*
X8400722Y45493803D01*
X8238319Y45566109D01*
X8238318Y45566109D01*
X8232288Y45568794D01*
X8116362Y45593435D01*
X8051944Y45607128D01*
X8051939Y45607128D01*
X8045487Y45608500D01*
X7854513Y45608500D01*
X7848061Y45607128D01*
X7848056Y45607128D01*
X7783638Y45593435D01*
X7667712Y45568794D01*
X7661682Y45566109D01*
X7661681Y45566109D01*
X7499278Y45493803D01*
X7499276Y45493802D01*
X7493248Y45491118D01*
X7338747Y45378866D01*
X7334326Y45373956D01*
X7334325Y45373955D01*
X7224678Y45252179D01*
X7210960Y45236944D01*
X7115473Y45071556D01*
X7056458Y44889928D01*
X7036496Y44700000D01*
X6563504Y44700000D01*
X6543542Y44889928D01*
X6484527Y45071556D01*
X6389040Y45236944D01*
X6375323Y45252179D01*
X6265675Y45373955D01*
X6265674Y45373956D01*
X6261253Y45378866D01*
X6106752Y45491118D01*
X6100724Y45493802D01*
X6100722Y45493803D01*
X5938319Y45566109D01*
X5938318Y45566109D01*
X5932288Y45568794D01*
X5816362Y45593435D01*
X5751944Y45607128D01*
X5751939Y45607128D01*
X5745487Y45608500D01*
X5554513Y45608500D01*
X5548061Y45607128D01*
X5548056Y45607128D01*
X5483638Y45593435D01*
X5367712Y45568794D01*
X5361682Y45566109D01*
X5361681Y45566109D01*
X5199278Y45493803D01*
X5199276Y45493802D01*
X5193248Y45491118D01*
X5038747Y45378866D01*
X5034326Y45373956D01*
X5034325Y45373955D01*
X4924678Y45252179D01*
X4910960Y45236944D01*
X4815473Y45071556D01*
X4756458Y44889928D01*
X4736496Y44700000D01*
X508500Y44700000D01*
X508500Y47350669D01*
X6467981Y47350669D01*
X6468671Y47344104D01*
X6484216Y47196206D01*
X6487943Y47160741D01*
X6546958Y46979113D01*
X6550261Y46973391D01*
X6550262Y46973390D01*
X6566276Y46945654D01*
X6642445Y46813725D01*
X6646863Y46808818D01*
X6646864Y46808817D01*
X6760376Y46682749D01*
X6770232Y46671803D01*
X6924733Y46559551D01*
X6930761Y46556867D01*
X6930763Y46556866D01*
X7091724Y46485202D01*
X7099197Y46481875D01*
X7187733Y46463056D01*
X7279541Y46443541D01*
X7279546Y46443541D01*
X7285998Y46442169D01*
X7476972Y46442169D01*
X7483424Y46443541D01*
X7483429Y46443541D01*
X7575237Y46463056D01*
X7663773Y46481875D01*
X7671246Y46485202D01*
X7832207Y46556866D01*
X7832209Y46556867D01*
X7838237Y46559551D01*
X7992738Y46671803D01*
X8002594Y46682749D01*
X8116106Y46808817D01*
X8116107Y46808818D01*
X8120525Y46813725D01*
X8196694Y46945654D01*
X8212708Y46973390D01*
X8212709Y46973391D01*
X8216012Y46979113D01*
X8275027Y47160741D01*
X8278755Y47196206D01*
X8294299Y47344104D01*
X8294989Y47350669D01*
X8275027Y47540597D01*
X8216012Y47722225D01*
X8187677Y47771302D01*
X8170940Y47840294D01*
X8187678Y47897300D01*
X8194145Y47908500D01*
X8234527Y47978444D01*
X8293542Y48160072D01*
X8295518Y48178866D01*
X8312814Y48343435D01*
X8313504Y48350000D01*
X8310381Y48379710D01*
X8294232Y48533365D01*
X8294232Y48533367D01*
X8293542Y48539928D01*
X8234527Y48721556D01*
X8228444Y48732093D01*
X8142341Y48881226D01*
X8139040Y48886944D01*
X8011253Y49028866D01*
X7856752Y49141118D01*
X7850724Y49143802D01*
X7850722Y49143803D01*
X7688319Y49216109D01*
X7688318Y49216109D01*
X7682288Y49218794D01*
X7588887Y49238647D01*
X7501944Y49257128D01*
X7501939Y49257128D01*
X7495487Y49258500D01*
X7304513Y49258500D01*
X7298061Y49257128D01*
X7298056Y49257128D01*
X7211113Y49238647D01*
X7117712Y49218794D01*
X7111682Y49216109D01*
X7111681Y49216109D01*
X6949278Y49143803D01*
X6949276Y49143802D01*
X6943248Y49141118D01*
X6788747Y49028866D01*
X6660960Y48886944D01*
X6657659Y48881226D01*
X6571557Y48732093D01*
X6565473Y48721556D01*
X6506458Y48539928D01*
X6505768Y48533367D01*
X6505768Y48533365D01*
X6489619Y48379710D01*
X6486496Y48350000D01*
X6487186Y48343435D01*
X6504483Y48178866D01*
X6506458Y48160072D01*
X6565473Y47978444D01*
X6593808Y47929367D01*
X6610545Y47860375D01*
X6593807Y47803370D01*
X6546958Y47722225D01*
X6487943Y47540597D01*
X6467981Y47350669D01*
X508500Y47350669D01*
X508500Y49924000D01*
X528502Y49992121D01*
X582158Y50038614D01*
X634500Y50050000D01*
X1107132Y50050000D01*
X1175253Y50029998D01*
X1221746Y49976342D01*
X1231850Y49906068D01*
X1202356Y49841488D01*
X1193017Y49831968D01*
X1188747Y49828866D01*
X1184326Y49823956D01*
X1184325Y49823955D01*
X1075537Y49703133D01*
X1060960Y49686944D01*
X965473Y49521556D01*
X906458Y49339928D01*
X886496Y49150000D01*
X887186Y49143435D01*
X899228Y49028866D01*
X906458Y48960072D01*
X965473Y48778444D01*
X1060960Y48613056D01*
X1188747Y48471134D01*
X1274955Y48408500D01*
X1330850Y48367890D01*
X1343248Y48358882D01*
X1349276Y48356198D01*
X1349278Y48356197D01*
X1384813Y48340376D01*
X1517712Y48281206D01*
X1611113Y48261353D01*
X1698056Y48242872D01*
X1698061Y48242872D01*
X1704513Y48241500D01*
X1895487Y48241500D01*
X1901939Y48242872D01*
X1901944Y48242872D01*
X1988887Y48261353D01*
X2082288Y48281206D01*
X2215187Y48340376D01*
X2250722Y48356197D01*
X2250724Y48356198D01*
X2256752Y48358882D01*
X2268380Y48367330D01*
X3882160Y48367330D01*
X3887887Y48359680D01*
X4059042Y48254795D01*
X4067837Y48250313D01*
X4277988Y48163266D01*
X4287373Y48160217D01*
X4508554Y48107115D01*
X4518301Y48105572D01*
X4745070Y48087725D01*
X4754930Y48087725D01*
X4981699Y48105572D01*
X4991446Y48107115D01*
X5212627Y48160217D01*
X5222012Y48163266D01*
X5432163Y48250313D01*
X5440958Y48254795D01*
X5608445Y48357432D01*
X5617907Y48367890D01*
X5614124Y48376666D01*
X4762812Y49227978D01*
X4748868Y49235592D01*
X4747035Y49235461D01*
X4740420Y49231210D01*
X3888920Y48379710D01*
X3882160Y48367330D01*
X2268380Y48367330D01*
X2269151Y48367890D01*
X2325045Y48408500D01*
X2411253Y48471134D01*
X2539040Y48613056D01*
X2634527Y48778444D01*
X2693542Y48960072D01*
X2700773Y49028866D01*
X2712814Y49143435D01*
X2713504Y49150000D01*
X2693542Y49339928D01*
X2634527Y49521556D01*
X2592084Y49595070D01*
X3237725Y49595070D01*
X3255572Y49368301D01*
X3257115Y49358554D01*
X3310217Y49137373D01*
X3313266Y49127988D01*
X3400313Y48917837D01*
X3404795Y48909042D01*
X3507432Y48741555D01*
X3517890Y48732093D01*
X3526666Y48735876D01*
X4377978Y49587188D01*
X4385592Y49601132D01*
X4385461Y49602965D01*
X4381210Y49609580D01*
X3529710Y50461080D01*
X3517330Y50467840D01*
X3509680Y50462113D01*
X3404795Y50290958D01*
X3400313Y50282163D01*
X3313266Y50072012D01*
X3310217Y50062627D01*
X3257115Y49841446D01*
X3255572Y49831699D01*
X3237725Y49604930D01*
X3237725Y49595070D01*
X2592084Y49595070D01*
X2539040Y49686944D01*
X2524464Y49703133D01*
X2415675Y49823955D01*
X2415674Y49823956D01*
X2411253Y49828866D01*
X2408042Y49831199D01*
X2371318Y49890811D01*
X2372670Y49961795D01*
X2412185Y50020779D01*
X2477315Y50049036D01*
X2492868Y50050000D01*
X3000000Y50050000D01*
X3000000Y54402359D01*
X3020002Y54470480D01*
X3073658Y54516973D01*
X3143932Y54527077D01*
X3208512Y54497583D01*
X3246896Y54437857D01*
X3251612Y54412245D01*
X3255465Y54363289D01*
X3256619Y54358482D01*
X3256620Y54358476D01*
X3265204Y54322721D01*
X3310895Y54132406D01*
X3312788Y54127835D01*
X3312789Y54127833D01*
X3395259Y53928733D01*
X3401760Y53913037D01*
X3404342Y53908824D01*
X3404346Y53908817D01*
X3523241Y53714798D01*
X3523245Y53714792D01*
X3525824Y53710584D01*
X3680031Y53530031D01*
X3860584Y53375824D01*
X3864792Y53373245D01*
X3864798Y53373241D01*
X4021394Y53277279D01*
X4063037Y53251760D01*
X4067607Y53249867D01*
X4067611Y53249865D01*
X4277833Y53162789D01*
X4282406Y53160895D01*
X4369740Y53139928D01*
X4493186Y53110291D01*
X4554755Y53074939D01*
X4587438Y53011912D01*
X4589082Y52974603D01*
X4586496Y52950000D01*
X4606458Y52760072D01*
X4665473Y52578444D01*
X4760960Y52413056D01*
X4765378Y52408149D01*
X4765379Y52408148D01*
X4872195Y52289517D01*
X4888747Y52271134D01*
X5043248Y52158882D01*
X5049276Y52156198D01*
X5049278Y52156197D01*
X5068599Y52147595D01*
X5217712Y52081206D01*
X5222277Y52080236D01*
X5280291Y52040572D01*
X5307931Y51975176D01*
X5302586Y51921871D01*
X5263176Y51800579D01*
X5243214Y51610651D01*
X5263176Y51420723D01*
X5322191Y51239095D01*
X5325494Y51233373D01*
X5325495Y51233372D01*
X5326774Y51231157D01*
X5327124Y51229713D01*
X5328179Y51227344D01*
X5327746Y51227151D01*
X5343512Y51162162D01*
X5320292Y51095070D01*
X5264484Y51051183D01*
X5188241Y51045638D01*
X4991446Y51092885D01*
X4981699Y51094428D01*
X4754930Y51112275D01*
X4745070Y51112275D01*
X4518301Y51094428D01*
X4508554Y51092885D01*
X4287373Y51039783D01*
X4277988Y51036734D01*
X4067837Y50949687D01*
X4059042Y50945205D01*
X3891555Y50842568D01*
X3882093Y50832110D01*
X3885876Y50823334D01*
X5970290Y48738920D01*
X5982670Y48732160D01*
X5990320Y48737887D01*
X6095205Y48909042D01*
X6099687Y48917837D01*
X6186734Y49127988D01*
X6189783Y49137373D01*
X6242885Y49358554D01*
X6244428Y49368301D01*
X6262275Y49595070D01*
X15737725Y49595070D01*
X15755572Y49368301D01*
X15757115Y49358554D01*
X15810217Y49137373D01*
X15813266Y49127988D01*
X15900313Y48917837D01*
X15904795Y48909042D01*
X16007432Y48741555D01*
X16017890Y48732093D01*
X16026666Y48735876D01*
X16877978Y49587188D01*
X16884356Y49598868D01*
X17614408Y49598868D01*
X17614539Y49597035D01*
X17618790Y49590420D01*
X18470290Y48738920D01*
X18482670Y48732160D01*
X18490320Y48737887D01*
X18595205Y48909042D01*
X18599687Y48917837D01*
X18686734Y49127988D01*
X18689783Y49137373D01*
X18742885Y49358554D01*
X18744428Y49368301D01*
X18762275Y49595070D01*
X18762275Y49604930D01*
X18744428Y49831699D01*
X18742885Y49841446D01*
X18689783Y50062627D01*
X18686734Y50072012D01*
X18599687Y50282163D01*
X18595205Y50290958D01*
X18492568Y50458445D01*
X18482110Y50467907D01*
X18473334Y50464124D01*
X17622022Y49612812D01*
X17614408Y49598868D01*
X16884356Y49598868D01*
X16885592Y49601132D01*
X16885461Y49602965D01*
X16881210Y49609580D01*
X16029710Y50461080D01*
X16017330Y50467840D01*
X16009680Y50462113D01*
X15904795Y50290958D01*
X15900313Y50282163D01*
X15813266Y50072012D01*
X15810217Y50062627D01*
X15757115Y49841446D01*
X15755572Y49831699D01*
X15737725Y49604930D01*
X15737725Y49595070D01*
X6262275Y49595070D01*
X6262275Y49609854D01*
X6282277Y49677975D01*
X6335933Y49724468D01*
X6362077Y49733100D01*
X6401426Y49741464D01*
X6401435Y49741467D01*
X6407890Y49742839D01*
X6413921Y49745524D01*
X6576324Y49817830D01*
X6576326Y49817831D01*
X6582354Y49820515D01*
X6595912Y49830365D01*
X6724788Y49924000D01*
X6736855Y49932767D01*
X6847693Y50055865D01*
X6860223Y50069781D01*
X6860224Y50069782D01*
X6864642Y50074689D01*
X6960129Y50240077D01*
X7019144Y50421705D01*
X7023006Y50458445D01*
X7038416Y50605068D01*
X7039106Y50611633D01*
X7019144Y50801561D01*
X7009218Y50832110D01*
X16382093Y50832110D01*
X16385876Y50823334D01*
X17237188Y49972022D01*
X17251132Y49964408D01*
X17252965Y49964539D01*
X17259580Y49968790D01*
X18111080Y50820290D01*
X18117840Y50832670D01*
X18112113Y50840320D01*
X17940958Y50945205D01*
X17932163Y50949687D01*
X17722012Y51036734D01*
X17712627Y51039783D01*
X17491446Y51092885D01*
X17481699Y51094428D01*
X17254930Y51112275D01*
X17245070Y51112275D01*
X17018301Y51094428D01*
X17008554Y51092885D01*
X16787373Y51039783D01*
X16777988Y51036734D01*
X16567837Y50949687D01*
X16559042Y50945205D01*
X16391555Y50842568D01*
X16382093Y50832110D01*
X7009218Y50832110D01*
X6960129Y50983189D01*
X6938186Y51021195D01*
X6921448Y51090190D01*
X6938186Y51147195D01*
X6987941Y51233372D01*
X6987942Y51233373D01*
X6991245Y51239095D01*
X7050260Y51420723D01*
X7070222Y51610651D01*
X7050260Y51800579D01*
X6991245Y51982207D01*
X6963748Y52029834D01*
X6899059Y52141877D01*
X6895758Y52147595D01*
X6854991Y52192872D01*
X6772393Y52284606D01*
X6772392Y52284607D01*
X6767971Y52289517D01*
X6613470Y52401769D01*
X6607442Y52404453D01*
X6607440Y52404454D01*
X6539365Y52434763D01*
X6439006Y52479445D01*
X6434441Y52480415D01*
X6376427Y52520079D01*
X6348787Y52585475D01*
X6354132Y52638780D01*
X6391502Y52753794D01*
X6393542Y52760072D01*
X6413504Y52950000D01*
X6393542Y53139928D01*
X6334527Y53321556D01*
X6239040Y53486944D01*
X6196863Y53533787D01*
X6115675Y53623955D01*
X6115674Y53623956D01*
X6111253Y53628866D01*
X6105912Y53632746D01*
X6105907Y53632751D01*
X6075983Y53654492D01*
X6032630Y53710714D01*
X6026555Y53781451D01*
X6042611Y53822259D01*
X6098240Y53913037D01*
X6104742Y53928733D01*
X6187211Y54127833D01*
X6187212Y54127835D01*
X6189105Y54132406D01*
X6234796Y54322721D01*
X6243380Y54358476D01*
X6243381Y54358482D01*
X6244535Y54363289D01*
X6263165Y54600000D01*
X6244535Y54836711D01*
X6226679Y54911087D01*
X6230226Y54981994D01*
X6271546Y55039728D01*
X6337519Y55065958D01*
X6349198Y55066500D01*
X8278034Y55066500D01*
X8346155Y55046498D01*
X8392648Y54992842D01*
X8402752Y54922568D01*
X8373258Y54857988D01*
X8352095Y54838564D01*
X8338747Y54828866D01*
X8334326Y54823956D01*
X8334325Y54823955D01*
X8216805Y54693435D01*
X8210960Y54686944D01*
X8115473Y54521556D01*
X8056458Y54339928D01*
X8036496Y54150000D01*
X8037186Y54143435D01*
X8041619Y54101262D01*
X8056458Y53960072D01*
X8115473Y53778444D01*
X8118776Y53772722D01*
X8118777Y53772721D01*
X8132372Y53749174D01*
X8210960Y53613056D01*
X8215378Y53608149D01*
X8215379Y53608148D01*
X8282334Y53533787D01*
X8338747Y53471134D01*
X8406396Y53421984D01*
X8485509Y53364505D01*
X8493248Y53358882D01*
X8499276Y53356198D01*
X8499278Y53356197D01*
X8591200Y53315271D01*
X8667712Y53281206D01*
X8742680Y53265271D01*
X8848056Y53242872D01*
X8848061Y53242872D01*
X8854513Y53241500D01*
X9045487Y53241500D01*
X9051939Y53242872D01*
X9051944Y53242872D01*
X9157320Y53265271D01*
X9232288Y53281206D01*
X9308800Y53315271D01*
X9400722Y53356197D01*
X9400724Y53356198D01*
X9406752Y53358882D01*
X9414492Y53364505D01*
X9493604Y53421984D01*
X9561253Y53471134D01*
X9617666Y53533787D01*
X9684621Y53608148D01*
X9684622Y53608149D01*
X9689040Y53613056D01*
X9767628Y53749174D01*
X9781223Y53772721D01*
X9781224Y53772722D01*
X9784527Y53778444D01*
X9843542Y53960072D01*
X9858382Y54101262D01*
X9862814Y54143435D01*
X9863504Y54150000D01*
X9843542Y54339928D01*
X9784527Y54521556D01*
X9689040Y54686944D01*
X9683196Y54693435D01*
X9565675Y54823955D01*
X9565674Y54823956D01*
X9561253Y54828866D01*
X9547905Y54838564D01*
X9504551Y54894787D01*
X9498476Y54965523D01*
X9531608Y55028315D01*
X9593428Y55063226D01*
X9621966Y55066500D01*
X10428034Y55066500D01*
X10496155Y55046498D01*
X10542648Y54992842D01*
X10552752Y54922568D01*
X10523258Y54857988D01*
X10502095Y54838564D01*
X10488747Y54828866D01*
X10484326Y54823956D01*
X10484325Y54823955D01*
X10366805Y54693435D01*
X10360960Y54686944D01*
X10265473Y54521556D01*
X10206458Y54339928D01*
X10186496Y54150000D01*
X10187186Y54143435D01*
X10191619Y54101262D01*
X10206458Y53960072D01*
X10265473Y53778444D01*
X10268776Y53772722D01*
X10268777Y53772721D01*
X10282372Y53749174D01*
X10360960Y53613056D01*
X10365378Y53608149D01*
X10365379Y53608148D01*
X10432334Y53533787D01*
X10488747Y53471134D01*
X10556396Y53421984D01*
X10635509Y53364505D01*
X10643248Y53358882D01*
X10649276Y53356198D01*
X10649278Y53356197D01*
X10741200Y53315271D01*
X10817712Y53281206D01*
X10892680Y53265271D01*
X10998056Y53242872D01*
X10998061Y53242872D01*
X11004513Y53241500D01*
X11195487Y53241500D01*
X11201939Y53242872D01*
X11201944Y53242872D01*
X11307320Y53265271D01*
X11382288Y53281206D01*
X11458800Y53315271D01*
X11550722Y53356197D01*
X11550724Y53356198D01*
X11556752Y53358882D01*
X11564492Y53364505D01*
X11643604Y53421984D01*
X11711253Y53471134D01*
X11767666Y53533787D01*
X11834621Y53608148D01*
X11834622Y53608149D01*
X11839040Y53613056D01*
X11915881Y53746148D01*
X11967264Y53795141D01*
X12036977Y53808577D01*
X12102888Y53782191D01*
X12134119Y53746148D01*
X12210960Y53613056D01*
X12215378Y53608149D01*
X12215379Y53608148D01*
X12282334Y53533787D01*
X12338747Y53471134D01*
X12406396Y53421984D01*
X12485509Y53364505D01*
X12493248Y53358882D01*
X12499276Y53356198D01*
X12499278Y53356197D01*
X12591200Y53315271D01*
X12667712Y53281206D01*
X12742680Y53265271D01*
X12848056Y53242872D01*
X12848061Y53242872D01*
X12854513Y53241500D01*
X13045487Y53241500D01*
X13051939Y53242872D01*
X13051944Y53242872D01*
X13157320Y53265271D01*
X13232288Y53281206D01*
X13308800Y53315271D01*
X13400722Y53356197D01*
X13400724Y53356198D01*
X13406752Y53358882D01*
X13414492Y53364505D01*
X13493604Y53421984D01*
X13561253Y53471134D01*
X13617666Y53533787D01*
X13684621Y53608148D01*
X13684622Y53608149D01*
X13689040Y53613056D01*
X13767628Y53749174D01*
X13781223Y53772721D01*
X13781224Y53772722D01*
X13784527Y53778444D01*
X13843542Y53960072D01*
X13858382Y54101262D01*
X13862814Y54143435D01*
X13863504Y54150000D01*
X13843542Y54339928D01*
X13784527Y54521556D01*
X13689040Y54686944D01*
X13683196Y54693435D01*
X13565675Y54823955D01*
X13565674Y54823956D01*
X13561253Y54828866D01*
X13547905Y54838564D01*
X13504551Y54894787D01*
X13498476Y54965523D01*
X13531608Y55028315D01*
X13593428Y55063226D01*
X13621966Y55066500D01*
X15650802Y55066500D01*
X15718923Y55046498D01*
X15765416Y54992842D01*
X15775520Y54922568D01*
X15773322Y54911092D01*
X15755465Y54836711D01*
X15736835Y54600000D01*
X15755465Y54363289D01*
X15756619Y54358482D01*
X15756620Y54358476D01*
X15804518Y54158968D01*
X15800971Y54088060D01*
X15759651Y54030326D01*
X15693677Y54004096D01*
X15655797Y54006309D01*
X15651950Y54007127D01*
X15651943Y54007128D01*
X15645487Y54008500D01*
X15454513Y54008500D01*
X15448061Y54007128D01*
X15448056Y54007128D01*
X15361112Y53988647D01*
X15267712Y53968794D01*
X15261682Y53966109D01*
X15261681Y53966109D01*
X15099278Y53893803D01*
X15099276Y53893802D01*
X15093248Y53891118D01*
X14938747Y53778866D01*
X14934326Y53773956D01*
X14934325Y53773955D01*
X14841865Y53671267D01*
X14810960Y53636944D01*
X14715473Y53471556D01*
X14656458Y53289928D01*
X14655768Y53283367D01*
X14655768Y53283365D01*
X14654527Y53271556D01*
X14636496Y53100000D01*
X14656458Y52910072D01*
X14715473Y52728444D01*
X14810960Y52563056D01*
X14815378Y52558149D01*
X14815379Y52558148D01*
X14888662Y52476759D01*
X14938747Y52421134D01*
X15093248Y52308882D01*
X15099276Y52306198D01*
X15099278Y52306197D01*
X15186753Y52267251D01*
X15267712Y52231206D01*
X15333365Y52217251D01*
X15448056Y52192872D01*
X15448061Y52192872D01*
X15454513Y52191500D01*
X15645487Y52191500D01*
X15651939Y52192872D01*
X15651944Y52192872D01*
X15766635Y52217251D01*
X15832288Y52231206D01*
X15913247Y52267251D01*
X16000724Y52306198D01*
X16000725Y52306199D01*
X16006752Y52308882D01*
X16012027Y52312714D01*
X16080992Y52329447D01*
X16137970Y52312717D01*
X16143248Y52308882D01*
X16149275Y52306199D01*
X16149276Y52306198D01*
X16236753Y52267251D01*
X16317712Y52231206D01*
X16383365Y52217251D01*
X16498056Y52192872D01*
X16498061Y52192872D01*
X16504513Y52191500D01*
X16695487Y52191500D01*
X16701939Y52192872D01*
X16701944Y52192872D01*
X16816635Y52217251D01*
X16882288Y52231206D01*
X16963247Y52267251D01*
X17050722Y52306197D01*
X17050724Y52306198D01*
X17056752Y52308882D01*
X17211253Y52421134D01*
X17261338Y52476759D01*
X17334621Y52558148D01*
X17334622Y52558149D01*
X17339040Y52563056D01*
X17434527Y52728444D01*
X17493542Y52910072D01*
X17505479Y53023646D01*
X17532492Y53089302D01*
X17590714Y53129932D01*
X17601373Y53132993D01*
X17717594Y53160895D01*
X17722167Y53162789D01*
X17932389Y53249865D01*
X17932393Y53249867D01*
X17936963Y53251760D01*
X17978606Y53277279D01*
X18135202Y53373241D01*
X18135208Y53373245D01*
X18139416Y53375824D01*
X18159471Y53392952D01*
X18224260Y53421984D01*
X18294460Y53411380D01*
X18347783Y53364505D01*
X18367299Y53296244D01*
X18361135Y53258206D01*
X18306458Y53089928D01*
X18305768Y53083367D01*
X18305768Y53083365D01*
X18298258Y53011912D01*
X18286496Y52900000D01*
X18287186Y52893435D01*
X18305129Y52722721D01*
X18306458Y52710072D01*
X18365473Y52528444D01*
X18368776Y52522722D01*
X18368777Y52522721D01*
X18393437Y52480009D01*
X18460960Y52363056D01*
X18465378Y52358149D01*
X18465379Y52358148D01*
X18579678Y52231206D01*
X18588747Y52221134D01*
X18743248Y52108882D01*
X18749276Y52106198D01*
X18749278Y52106197D01*
X18911681Y52033891D01*
X18917712Y52031206D01*
X19011112Y52011353D01*
X19098056Y51992872D01*
X19098061Y51992872D01*
X19104513Y51991500D01*
X19295487Y51991500D01*
X19301939Y51992872D01*
X19301944Y51992872D01*
X19388888Y52011353D01*
X19482288Y52031206D01*
X19488319Y52033891D01*
X19650722Y52106197D01*
X19650724Y52106198D01*
X19656752Y52108882D01*
X19811253Y52221134D01*
X19820322Y52231206D01*
X19934621Y52358148D01*
X19934622Y52358149D01*
X19939040Y52363056D01*
X20006563Y52480009D01*
X20031223Y52522721D01*
X20031224Y52522722D01*
X20034527Y52528444D01*
X20093542Y52710072D01*
X20094872Y52722721D01*
X20112814Y52893435D01*
X20113504Y52900000D01*
X20101742Y53011912D01*
X20094232Y53083365D01*
X20094232Y53083367D01*
X20093542Y53089928D01*
X20034527Y53271556D01*
X20027406Y53283891D01*
X19984109Y53358882D01*
X19939040Y53436944D01*
X19911752Y53467251D01*
X19815675Y53573955D01*
X19815674Y53573956D01*
X19811253Y53578866D01*
X19761457Y53615045D01*
X19718103Y53671267D01*
X19712028Y53742004D01*
X19745159Y53804795D01*
X19784269Y53832088D01*
X19950722Y53906197D01*
X19950724Y53906198D01*
X19956752Y53908882D01*
X19968767Y53917611D01*
X20091975Y54007128D01*
X20111253Y54021134D01*
X20167591Y54083704D01*
X20234621Y54158148D01*
X20234622Y54158149D01*
X20239040Y54163056D01*
X20334527Y54328444D01*
X20393542Y54510072D01*
X20394268Y54516973D01*
X20412814Y54693435D01*
X20413504Y54700000D01*
X20398941Y54838564D01*
X20394232Y54883365D01*
X20394232Y54883367D01*
X20393542Y54889928D01*
X20334527Y55071556D01*
X20321723Y55093734D01*
X20242341Y55231226D01*
X20239040Y55236944D01*
X20204720Y55275061D01*
X20115675Y55373955D01*
X20115674Y55373956D01*
X20111253Y55378866D01*
X19956752Y55491118D01*
X19950724Y55493802D01*
X19950722Y55493803D01*
X19788319Y55566109D01*
X19788318Y55566109D01*
X19782288Y55568794D01*
X19688888Y55588647D01*
X19601944Y55607128D01*
X19601939Y55607128D01*
X19595487Y55608500D01*
X19404513Y55608500D01*
X19398061Y55607128D01*
X19398056Y55607128D01*
X19311112Y55588647D01*
X19217712Y55568794D01*
X19211682Y55566109D01*
X19211681Y55566109D01*
X19049278Y55493803D01*
X19049276Y55493802D01*
X19043248Y55491118D01*
X18888747Y55378866D01*
X18805998Y55286963D01*
X18795281Y55275061D01*
X18734835Y55237821D01*
X18663852Y55239173D01*
X18604867Y55278686D01*
X18594212Y55293536D01*
X18476758Y55485202D01*
X18474176Y55489416D01*
X18319969Y55669969D01*
X18139416Y55824176D01*
X18135208Y55826755D01*
X18135202Y55826759D01*
X17941183Y55945654D01*
X17936963Y55948240D01*
X17932393Y55950133D01*
X17932389Y55950135D01*
X17722167Y56037211D01*
X17722165Y56037212D01*
X17717594Y56039105D01*
X17603752Y56066436D01*
X17491524Y56093380D01*
X17491518Y56093381D01*
X17486711Y56094535D01*
X17250000Y56113165D01*
X17013289Y56094535D01*
X17008482Y56093381D01*
X17008476Y56093380D01*
X16785005Y56039729D01*
X16714097Y56043276D01*
X16673765Y56066434D01*
X16611206Y56119863D01*
X16575671Y56141638D01*
X16463305Y56210495D01*
X16463299Y56210498D01*
X16459079Y56213084D01*
X16454504Y56214979D01*
X16454500Y56214981D01*
X16298819Y56279464D01*
X16298817Y56279465D01*
X16294241Y56281360D01*
X16257481Y56290185D01*
X16125567Y56321853D01*
X16125568Y56321853D01*
X16120752Y56323009D01*
X16049480Y56328618D01*
X16036364Y56330801D01*
X16030600Y56331529D01*
X16022923Y56333500D01*
X15996880Y56333500D01*
X15979127Y56334757D01*
X15960332Y56337432D01*
X15960329Y56337432D01*
X15956248Y56338013D01*
X15950033Y56338078D01*
X15947018Y56338110D01*
X15947013Y56338110D01*
X15942884Y56338153D01*
X15914824Y56334757D01*
X15911982Y56334413D01*
X15896843Y56333500D01*
X7540214Y56333500D01*
X7472093Y56353502D01*
X7425600Y56407158D01*
X7415496Y56477432D01*
X7429013Y56516482D01*
X7428539Y56516693D01*
X7430996Y56522213D01*
X7431097Y56522503D01*
X7431223Y56522721D01*
X7431224Y56522722D01*
X7434527Y56528444D01*
X7493542Y56710072D01*
X7513504Y56900000D01*
X7493542Y57089928D01*
X7434527Y57271556D01*
X7339040Y57436944D01*
X7211253Y57578866D01*
X7056752Y57691118D01*
X7050724Y57693802D01*
X7050722Y57693803D01*
X6888319Y57766109D01*
X6888318Y57766109D01*
X6882288Y57768794D01*
X6788887Y57788647D01*
X6701944Y57807128D01*
X6701939Y57807128D01*
X6695487Y57808500D01*
X6504513Y57808500D01*
X6498061Y57807128D01*
X6498056Y57807128D01*
X6411112Y57788647D01*
X6317712Y57768794D01*
X6311682Y57766109D01*
X6311681Y57766109D01*
X6149278Y57693803D01*
X6149276Y57693802D01*
X6143248Y57691118D01*
X5988747Y57578866D01*
X5860960Y57436944D01*
X5765473Y57271556D01*
X5706458Y57089928D01*
X5686496Y56900000D01*
X5706458Y56710072D01*
X5765473Y56528444D01*
X5768776Y56522722D01*
X5768777Y56522721D01*
X5799124Y56470159D01*
X5815862Y56401164D01*
X5792642Y56334072D01*
X5736835Y56290185D01*
X5719421Y56284641D01*
X5710573Y56282517D01*
X5710566Y56282515D01*
X5705760Y56281361D01*
X5701193Y56279469D01*
X5701189Y56279468D01*
X5545502Y56214982D01*
X5545500Y56214981D01*
X5540923Y56213085D01*
X5536703Y56210499D01*
X5536697Y56210496D01*
X5393016Y56122450D01*
X5388796Y56119864D01*
X5385036Y56116652D01*
X5385035Y56116652D01*
X5334407Y56073413D01*
X5323647Y56065725D01*
X5320185Y56063039D01*
X5319527Y56062781D01*
X5316716Y56060772D01*
X5312191Y56058096D01*
X5311325Y56059560D01*
X5254100Y56037091D01*
X5213543Y56040078D01*
X4991524Y56093380D01*
X4991518Y56093381D01*
X4986711Y56094535D01*
X4750000Y56113165D01*
X4513289Y56094535D01*
X4508482Y56093381D01*
X4508476Y56093380D01*
X4396248Y56066436D01*
X4282406Y56039105D01*
X4277835Y56037212D01*
X4277833Y56037211D01*
X4067611Y55950135D01*
X4067607Y55950133D01*
X4063037Y55948240D01*
X4058817Y55945654D01*
X3864798Y55826759D01*
X3864792Y55826755D01*
X3860584Y55824176D01*
X3680031Y55669969D01*
X3525824Y55489416D01*
X3523245Y55485208D01*
X3523241Y55485202D01*
X3455069Y55373955D01*
X3401760Y55286963D01*
X3399867Y55282393D01*
X3399865Y55282389D01*
X3312789Y55072167D01*
X3310895Y55067594D01*
X3304205Y55039728D01*
X3266666Y54883365D01*
X3255465Y54836711D01*
X3255077Y54831777D01*
X3251612Y54787755D01*
X3226326Y54721414D01*
X3169188Y54679274D01*
X3098338Y54674715D01*
X3036271Y54709184D01*
X3002691Y54771738D01*
X3000000Y54797641D01*
X3000000Y58600000D01*
X9486835Y58600000D01*
X9505465Y58363289D01*
X9560895Y58132406D01*
X9562788Y58127835D01*
X9562789Y58127833D01*
X9644803Y57929834D01*
X9651760Y57913037D01*
X9654346Y57908817D01*
X9773241Y57714798D01*
X9773245Y57714792D01*
X9775824Y57710584D01*
X9930031Y57530031D01*
X10110584Y57375824D01*
X10114792Y57373245D01*
X10114798Y57373241D01*
X10271394Y57277279D01*
X10313037Y57251760D01*
X10317607Y57249867D01*
X10317611Y57249865D01*
X10527833Y57162789D01*
X10532406Y57160895D01*
X10612609Y57141640D01*
X10758476Y57106620D01*
X10758482Y57106619D01*
X10763289Y57105465D01*
X11000000Y57086835D01*
X11236711Y57105465D01*
X11241518Y57106619D01*
X11241524Y57106620D01*
X11387391Y57141640D01*
X11467594Y57160895D01*
X11472167Y57162789D01*
X11682389Y57249865D01*
X11682393Y57249867D01*
X11686963Y57251760D01*
X11728606Y57277279D01*
X11885202Y57373241D01*
X11885208Y57373245D01*
X11889416Y57375824D01*
X12069969Y57530031D01*
X12224176Y57710584D01*
X12226755Y57714792D01*
X12226759Y57714798D01*
X12345654Y57908817D01*
X12348240Y57913037D01*
X12355198Y57929834D01*
X12437211Y58127833D01*
X12437212Y58127835D01*
X12439105Y58132406D01*
X12494535Y58363289D01*
X12513165Y58600000D01*
X12494535Y58836711D01*
X12471331Y58933365D01*
X12440260Y59062782D01*
X12439105Y59067594D01*
X12437211Y59072167D01*
X12437211Y59072168D01*
X12351985Y59277923D01*
X12344396Y59348513D01*
X12376176Y59412000D01*
X12417146Y59441248D01*
X12450719Y59456195D01*
X12450726Y59456199D01*
X12456752Y59458882D01*
X12611253Y59571134D01*
X12642824Y59606197D01*
X12734621Y59708148D01*
X12734622Y59708149D01*
X12739040Y59713056D01*
X12834527Y59878444D01*
X12841531Y59900000D01*
X16936496Y59900000D01*
X16956458Y59710072D01*
X17015473Y59528444D01*
X17018776Y59522722D01*
X17018777Y59522721D01*
X17036803Y59491500D01*
X17110960Y59363056D01*
X17115375Y59358153D01*
X17115589Y59357858D01*
X17139447Y59290990D01*
X17122771Y59220799D01*
X17094341Y59171556D01*
X17065473Y59121556D01*
X17006458Y58939928D01*
X17005768Y58933367D01*
X17005768Y58933365D01*
X16995091Y58831777D01*
X16986496Y58750000D01*
X16987186Y58743435D01*
X17002780Y58595070D01*
X17006458Y58560072D01*
X17065473Y58378444D01*
X17068776Y58372722D01*
X17068777Y58372721D01*
X17102686Y58313990D01*
X17160960Y58213056D01*
X17165378Y58208149D01*
X17165379Y58208148D01*
X17237695Y58127833D01*
X17288747Y58071134D01*
X17443248Y57958882D01*
X17449276Y57956198D01*
X17449278Y57956197D01*
X17594591Y57891500D01*
X17617712Y57881206D01*
X17711112Y57861353D01*
X17798056Y57842872D01*
X17798061Y57842872D01*
X17804513Y57841500D01*
X17995487Y57841500D01*
X18001939Y57842872D01*
X18001944Y57842872D01*
X18088888Y57861353D01*
X18182288Y57881206D01*
X18205409Y57891500D01*
X18350722Y57956197D01*
X18350724Y57956198D01*
X18356752Y57958882D01*
X18511253Y58071134D01*
X18562305Y58127833D01*
X18634621Y58208148D01*
X18634622Y58208149D01*
X18639040Y58213056D01*
X18697314Y58313990D01*
X18731223Y58372721D01*
X18731224Y58372722D01*
X18734527Y58378444D01*
X18793542Y58560072D01*
X18797221Y58595070D01*
X18812814Y58743435D01*
X18813504Y58750000D01*
X18804909Y58831777D01*
X18794232Y58933365D01*
X18794232Y58933367D01*
X18793542Y58939928D01*
X18734527Y59121556D01*
X18705660Y59171556D01*
X18642340Y59281228D01*
X18639040Y59286944D01*
X18634625Y59291847D01*
X18634411Y59292142D01*
X18610553Y59359010D01*
X18627229Y59429201D01*
X18681223Y59522721D01*
X18681224Y59522722D01*
X18684527Y59528444D01*
X18743542Y59710072D01*
X18763504Y59900000D01*
X18743542Y60089928D01*
X18684527Y60271556D01*
X18589040Y60436944D01*
X18580701Y60446206D01*
X18465675Y60573955D01*
X18465674Y60573956D01*
X18461253Y60578866D01*
X18332829Y60672172D01*
X18312094Y60687237D01*
X18312093Y60687238D01*
X18306752Y60691118D01*
X18300724Y60693802D01*
X18300722Y60693803D01*
X18138319Y60766109D01*
X18138318Y60766109D01*
X18132288Y60768794D01*
X18038887Y60788647D01*
X17951944Y60807128D01*
X17951939Y60807128D01*
X17945487Y60808500D01*
X17754513Y60808500D01*
X17748061Y60807128D01*
X17748056Y60807128D01*
X17661113Y60788647D01*
X17567712Y60768794D01*
X17561682Y60766109D01*
X17561681Y60766109D01*
X17399278Y60693803D01*
X17399276Y60693802D01*
X17393248Y60691118D01*
X17387907Y60687238D01*
X17387906Y60687237D01*
X17367171Y60672172D01*
X17238747Y60578866D01*
X17234326Y60573956D01*
X17234325Y60573955D01*
X17119300Y60446206D01*
X17110960Y60436944D01*
X17015473Y60271556D01*
X16956458Y60089928D01*
X16936496Y59900000D01*
X12841531Y59900000D01*
X12893542Y60060072D01*
X12913504Y60250000D01*
X12893542Y60439928D01*
X12834527Y60621556D01*
X12739040Y60786944D01*
X12701654Y60828466D01*
X12615675Y60923955D01*
X12615674Y60923956D01*
X12611253Y60928866D01*
X12456752Y61041118D01*
X12450724Y61043802D01*
X12450722Y61043803D01*
X12288319Y61116109D01*
X12288318Y61116109D01*
X12282288Y61118794D01*
X12188887Y61138647D01*
X12101944Y61157128D01*
X12101939Y61157128D01*
X12095487Y61158500D01*
X11904513Y61158500D01*
X11898061Y61157128D01*
X11898056Y61157128D01*
X11811113Y61138647D01*
X11717712Y61118794D01*
X11711682Y61116109D01*
X11711681Y61116109D01*
X11549278Y61043803D01*
X11549276Y61043802D01*
X11543248Y61041118D01*
X11388747Y60928866D01*
X11384326Y60923956D01*
X11384325Y60923955D01*
X11298347Y60828466D01*
X11260960Y60786944D01*
X11165473Y60621556D01*
X11106458Y60439928D01*
X11086496Y60250000D01*
X11087186Y60243435D01*
X11087186Y60236830D01*
X11084206Y60236830D01*
X11073694Y60179710D01*
X11025135Y60127917D01*
X10971106Y60110891D01*
X10938973Y60108362D01*
X10763289Y60094535D01*
X10758482Y60093381D01*
X10758476Y60093380D01*
X10619740Y60060072D01*
X10532406Y60039105D01*
X10527835Y60037212D01*
X10527833Y60037211D01*
X10317611Y59950135D01*
X10317607Y59950133D01*
X10313037Y59948240D01*
X10308817Y59945654D01*
X10114798Y59826759D01*
X10114792Y59826755D01*
X10110584Y59824176D01*
X9930031Y59669969D01*
X9775824Y59489416D01*
X9773245Y59485208D01*
X9773241Y59485202D01*
X9658055Y59297235D01*
X9651760Y59286963D01*
X9649867Y59282393D01*
X9649865Y59282389D01*
X9562789Y59072167D01*
X9560895Y59067594D01*
X9559740Y59062782D01*
X9528670Y58933365D01*
X9505465Y58836711D01*
X9486835Y58600000D01*
X3000000Y58600000D01*
X3000000Y61365500D01*
X3020002Y61433621D01*
X3073658Y61480114D01*
X3126000Y61491500D01*
X5875133Y61491500D01*
X5943254Y61471498D01*
G37*
%TD.AperFunction*%
%TD*%
M02*
