M48
; DRILL file {KiCad (6.0.5)} date Mon Nov 21 17:11:28 2022
; FORMAT={3:3/ absolute / metric / suppress leading zeros}
; #@! TF.CreationDate,2022-11-21T17:11:28+07:00
; #@! TF.GenerationSoftware,Kicad,Pcbnew,(6.0.5)
; #@! TF.FileFunction,MixedPlating,1,4
FMAT,2
METRIC,TZ
; #@! TA.AperFunction,Plated,PTH,ViaDrill
T1C0.400
; #@! TA.AperFunction,Plated,PTH,ComponentDrill
T2C0.600
; #@! TA.AperFunction,Plated,PTH,ComponentDrill
T3C1.200
; #@! TA.AperFunction,NonPlated,NPTH,ComponentDrill
T4C0.650
%
G90
G05
T1
X900Y39800
X1050Y30350
X1800Y49150
X2600Y11150
X2700Y28750
X3125Y1825
X3150Y44600
X4900Y11750
X5350Y8150
X5500Y52950
X5650Y44700
X6126Y50612
X6157Y51611
X6250Y60400
X6350Y1450
X6600Y56900
X6850Y17150
X7250Y4700
X7381Y47351
X7400Y48350
X7800Y28750
X7950Y44700
X8950Y54150
X9300Y12900
X10750Y18400
X11100Y54150
X11500Y17350
X12000Y60250
X12670Y16525
X12800Y12850
X12950Y54150
X13600Y43400
X13626Y45600
X13675Y47000
X14300Y18350
X14650Y47350
X14700Y48350
X14800Y37800
X15550Y53100
X15650Y4950
X15850Y31000
X16400Y46000
X16450Y44900
X16600Y53100
X16900Y47500
X17250Y36150
X17850Y59900
X17900Y58750
X18700Y13100
X19100Y31900
X19200Y52900
X19500Y54700
X20700Y60400
X21000Y58800
X21100Y51250
T3
X4750Y54600
X4750Y49600
X4750Y38600
X4750Y33600
X4750Y22600
X4750Y17600
X11000Y58600
X11000Y45600
X11000Y42600
X11000Y29600
X11000Y26600
X11000Y13600
X17250Y54600
X17250Y49600
X17250Y38600
X17250Y33600
X17250Y22600
X17250Y17600
T4
X8110Y6805
X13890Y6805
T2
G00X6680Y7855
M15
G01X6680Y6755
M16
G05
G00X6680Y3425
M15
G01X6680Y2825
M16
G05
G00X15320Y7855
M15
G01X15320Y6755
M16
G05
G00X15320Y3425
M15
G01X15320Y2825
M16
G05
T0
M30
