%TF.GenerationSoftware,KiCad,Pcbnew,(6.0.5)*%
%TF.CreationDate,2022-11-21T17:11:25+07:00*%
%TF.ProjectId,Smart_P_ESP_3,536d6172-745f-4505-9f45-53505f332e6b,rev?*%
%TF.SameCoordinates,PX88da2e0PY8b54f20*%
%TF.FileFunction,Copper,L3,Inr*%
%TF.FilePolarity,Positive*%
%FSLAX46Y46*%
G04 Gerber Fmt 4.6, Leading zero omitted, Abs format (unit mm)*
G04 Created by KiCad (PCBNEW (6.0.5)) date 2022-11-21 17:11:25*
%MOMM*%
%LPD*%
G01*
G04 APERTURE LIST*
%TA.AperFunction,ComponentPad*%
%ADD10C,2.000000*%
%TD*%
%TA.AperFunction,ComponentPad*%
%ADD11O,1.000000X2.100000*%
%TD*%
%TA.AperFunction,ComponentPad*%
%ADD12O,1.000000X1.600000*%
%TD*%
%TA.AperFunction,ViaPad*%
%ADD13C,0.800000*%
%TD*%
%TA.AperFunction,Conductor*%
%ADD14C,0.500000*%
%TD*%
%TA.AperFunction,Conductor*%
%ADD15C,0.250000*%
%TD*%
G04 APERTURE END LIST*
D10*
%TO.N,/BT3*%
%TO.C,SW3*%
X17250000Y22600000D03*
X4750000Y22600000D03*
%TO.N,+3V3*%
X4750000Y17600000D03*
X17250000Y17600000D03*
%TO.N,/BT3_LED*%
X11000000Y13600000D03*
%TO.N,Net-(R29-Pad1)*%
X11000000Y26600000D03*
%TD*%
%TO.N,/BT2*%
%TO.C,SW2*%
X4750000Y38600000D03*
X17250000Y38600000D03*
%TO.N,+3V3*%
X4750000Y33600000D03*
X17250000Y33600000D03*
%TO.N,/BT2_LED*%
X11000000Y29600000D03*
%TO.N,Net-(R27-Pad1)*%
X11000000Y42600000D03*
%TD*%
D11*
%TO.N,GND*%
%TO.C,J1*%
X6680000Y7305000D03*
D12*
X6680000Y3125000D03*
D11*
X15320000Y7305000D03*
D12*
X15320000Y3125000D03*
%TD*%
D10*
%TO.N,/BT1*%
%TO.C,SW1*%
X17250000Y54600000D03*
X4750000Y54600000D03*
%TO.N,+3V3*%
X4750000Y49600000D03*
X17250000Y49600000D03*
%TO.N,/BT1_LED*%
X11000000Y45600000D03*
%TO.N,Net-(R25-Pad1)*%
X11000000Y58600000D03*
%TD*%
D13*
%TO.N,VBUS*%
X5350000Y8150000D03*
X4900000Y11750000D03*
%TO.N,GND*%
X10750000Y18400000D03*
X6250000Y60400000D03*
X16900000Y47500000D03*
X3125000Y1825000D03*
X11100000Y54150000D03*
X5650000Y44700000D03*
X17850000Y59900000D03*
X7800000Y28750000D03*
X900000Y39800000D03*
X7950000Y44700000D03*
X14800000Y37800000D03*
X18700000Y13100000D03*
X8950000Y54150000D03*
X21000000Y58800000D03*
X12950000Y54150000D03*
X2600000Y11150000D03*
X2700000Y28750000D03*
X17250000Y36150000D03*
X1800000Y49150000D03*
%TO.N,+3V3*%
X6850000Y17150000D03*
X20700000Y60400000D03*
X21100000Y51250000D03*
X13600000Y43400000D03*
X3150000Y44600000D03*
%TO.N,Net-(C5-Pad1)*%
X15650000Y4950000D03*
%TO.N,+BATT*%
X6350000Y1450000D03*
X16450000Y44900000D03*
%TO.N,/EN*%
X19100000Y31900000D03*
X19500000Y54700000D03*
%TO.N,+3.3VA*%
X6600000Y56900000D03*
X17900000Y58750000D03*
X19200000Y52900000D03*
X7400000Y48350000D03*
X12000000Y60250000D03*
%TO.N,/USB_DTR*%
X15850000Y31000000D03*
X14300000Y18350000D03*
%TO.N,/TXD0*%
X6156718Y51610651D03*
X11500000Y17350000D03*
%TO.N,/RXD0*%
X6125602Y50611633D03*
X12670021Y16524500D03*
%TO.N,Net-(R10-Pad2)*%
X9300000Y12900000D03*
%TO.N,Net-(R11-Pad2)*%
X12800000Y12850000D03*
%TO.N,/SDA*%
X5500000Y52950000D03*
X13625500Y45600000D03*
%TO.N,/BATT_LEVEL*%
X14650000Y47350000D03*
%TO.N,/VB_MOTOR*%
X7381485Y47350669D03*
X1050000Y30350000D03*
%TO.N,/BT2*%
X16600000Y53100000D03*
%TO.N,/BT3*%
X15550000Y53100000D03*
%TO.N,/BT1_LED*%
X16400000Y46000000D03*
%TO.N,/BT2_LED*%
X14700000Y48350000D03*
%TO.N,/BT3_LED*%
X13674500Y47000000D03*
%TO.N,Net-(D2-Pad2)*%
X7250000Y4700000D03*
%TD*%
D14*
%TO.N,+3.3VA*%
X8800000Y56900000D02*
X7546446Y55646446D01*
X15842893Y56900000D02*
X13050000Y56900000D01*
X17900000Y58750000D02*
X13707107Y58750000D01*
X15842893Y56900000D02*
X19642893Y56900000D01*
X8800000Y56900000D02*
X6600000Y56900000D01*
X15550000Y56900000D02*
X15842893Y56900000D01*
X20700000Y55842893D02*
X20700000Y54607107D01*
X19996447Y56753553D02*
X20553554Y56196446D01*
X13353553Y58896447D02*
X12000000Y60250000D01*
X20553553Y54253553D02*
X19200000Y52900000D01*
X13050000Y56900000D02*
X8800000Y56900000D01*
X7400000Y55292893D02*
X7400000Y48350000D01*
X17900000Y58750000D02*
X16196446Y57046446D01*
X20553557Y56196449D02*
G75*
G02*
X20700000Y55842893I-353557J-353549D01*
G01*
X13353550Y58896444D02*
G75*
G03*
X13707107Y58750000I353550J353556D01*
G01*
X7400005Y55292893D02*
G75*
G02*
X7546446Y55646446I499995J7D01*
G01*
X15842893Y56900005D02*
G75*
G03*
X16196446Y57046446I7J499995D01*
G01*
X19996450Y56753556D02*
G75*
G03*
X19642893Y56900000I-353550J-353556D01*
G01*
X20553556Y54253550D02*
G75*
G03*
X20700000Y54607107I-353556J353550D01*
G01*
D15*
%TO.N,/BT1_LED*%
X12207107Y44600000D02*
X14792893Y44600000D01*
X11000000Y45600000D02*
X11853554Y44746446D01*
X15146447Y44746447D02*
X16400000Y46000000D01*
X15146450Y44746444D02*
G75*
G02*
X14792893Y44600000I-353550J353556D01*
G01*
X11853551Y44746443D02*
G75*
G03*
X12207107Y44600000I353549J353557D01*
G01*
%TO.N,/BT2_LED*%
X10003553Y48203553D02*
X9146446Y47346446D01*
X14700000Y48350000D02*
X10357107Y48350000D01*
X9000000Y46992893D02*
X9000000Y31807107D01*
X9146447Y31453553D02*
X11000000Y29600000D01*
X10357107Y48349995D02*
G75*
G03*
X10003553Y48203553I-7J-499995D01*
G01*
X9146443Y47346449D02*
G75*
G03*
X9000000Y46992893I353557J-353549D01*
G01*
X9000005Y31807107D02*
G75*
G03*
X9146447Y31453553I499995J-7D01*
G01*
%TD*%
%TA.AperFunction,Conductor*%
%TO.N,GND*%
G36*
X15798269Y56140273D02*
G01*
X15817634Y56137551D01*
X15817651Y56137550D01*
X15821569Y56136999D01*
X15831623Y56136858D01*
X15838918Y56136756D01*
X15838925Y56136756D01*
X15842882Y56136701D01*
X15846823Y56137143D01*
X15846824Y56137143D01*
X15868046Y56139523D01*
X15872204Y56139920D01*
X15876691Y56140273D01*
X15887353Y56141112D01*
X15897237Y56141500D01*
X16431646Y56141500D01*
X16499767Y56121498D01*
X16546260Y56067842D01*
X16556364Y55997568D01*
X16526870Y55932988D01*
X16497481Y55908067D01*
X16364798Y55826759D01*
X16364792Y55826755D01*
X16360584Y55824176D01*
X16180031Y55669969D01*
X16025824Y55489416D01*
X16023245Y55485208D01*
X16023241Y55485202D01*
X15905788Y55293536D01*
X15901760Y55286963D01*
X15899867Y55282393D01*
X15899865Y55282389D01*
X15866464Y55201750D01*
X15810895Y55067594D01*
X15755465Y54836711D01*
X15736835Y54600000D01*
X15755465Y54363289D01*
X15756619Y54358482D01*
X15756620Y54358476D01*
X15804518Y54158968D01*
X15800971Y54088060D01*
X15759651Y54030326D01*
X15693677Y54004096D01*
X15655797Y54006309D01*
X15651950Y54007127D01*
X15651943Y54007128D01*
X15645487Y54008500D01*
X15454513Y54008500D01*
X15448061Y54007128D01*
X15448056Y54007128D01*
X15361112Y53988647D01*
X15267712Y53968794D01*
X15261682Y53966109D01*
X15261681Y53966109D01*
X15099278Y53893803D01*
X15099276Y53893802D01*
X15093248Y53891118D01*
X14938747Y53778866D01*
X14934326Y53773956D01*
X14934325Y53773955D01*
X14849277Y53679499D01*
X14810960Y53636944D01*
X14715473Y53471556D01*
X14656458Y53289928D01*
X14636496Y53100000D01*
X14656458Y52910072D01*
X14715473Y52728444D01*
X14718776Y52722722D01*
X14718777Y52722721D01*
X14722291Y52716635D01*
X14810960Y52563056D01*
X14815378Y52558149D01*
X14815379Y52558148D01*
X14888663Y52476758D01*
X14938747Y52421134D01*
X15093248Y52308882D01*
X15099276Y52306198D01*
X15099278Y52306197D01*
X15186753Y52267251D01*
X15267712Y52231206D01*
X15333365Y52217251D01*
X15448056Y52192872D01*
X15448061Y52192872D01*
X15454513Y52191500D01*
X15645487Y52191500D01*
X15651939Y52192872D01*
X15651944Y52192872D01*
X15766635Y52217251D01*
X15832288Y52231206D01*
X15913247Y52267251D01*
X16000724Y52306198D01*
X16000725Y52306199D01*
X16006752Y52308882D01*
X16012027Y52312714D01*
X16080992Y52329447D01*
X16137970Y52312717D01*
X16143248Y52308882D01*
X16149275Y52306199D01*
X16149276Y52306198D01*
X16236753Y52267251D01*
X16317712Y52231206D01*
X16383365Y52217251D01*
X16498056Y52192872D01*
X16498061Y52192872D01*
X16504513Y52191500D01*
X16695487Y52191500D01*
X16701939Y52192872D01*
X16701944Y52192872D01*
X16816635Y52217251D01*
X16882288Y52231206D01*
X16963247Y52267251D01*
X17050722Y52306197D01*
X17050724Y52306198D01*
X17056752Y52308882D01*
X17211253Y52421134D01*
X17261337Y52476758D01*
X17334621Y52558148D01*
X17334622Y52558149D01*
X17339040Y52563056D01*
X17427709Y52716635D01*
X17431223Y52722721D01*
X17431224Y52722722D01*
X17434527Y52728444D01*
X17493542Y52910072D01*
X17505479Y53023646D01*
X17532492Y53089302D01*
X17590714Y53129932D01*
X17601373Y53132993D01*
X17717594Y53160895D01*
X17722167Y53162789D01*
X17932389Y53249865D01*
X17932393Y53249867D01*
X17936963Y53251760D01*
X17969267Y53271556D01*
X18135202Y53373241D01*
X18135208Y53373245D01*
X18139416Y53375824D01*
X18159471Y53392952D01*
X18224260Y53421984D01*
X18294460Y53411380D01*
X18347783Y53364505D01*
X18367299Y53296244D01*
X18361135Y53258206D01*
X18306458Y53089928D01*
X18305768Y53083367D01*
X18305768Y53083365D01*
X18298258Y53011912D01*
X18286496Y52900000D01*
X18287186Y52893435D01*
X18305129Y52722721D01*
X18306458Y52710072D01*
X18365473Y52528444D01*
X18368776Y52522722D01*
X18368777Y52522721D01*
X18393437Y52480009D01*
X18460960Y52363056D01*
X18465378Y52358149D01*
X18465379Y52358148D01*
X18579678Y52231206D01*
X18588747Y52221134D01*
X18743248Y52108882D01*
X18749276Y52106198D01*
X18749278Y52106197D01*
X18904166Y52037237D01*
X18917712Y52031206D01*
X19011112Y52011353D01*
X19098056Y51992872D01*
X19098061Y51992872D01*
X19104513Y51991500D01*
X19295487Y51991500D01*
X19301939Y51992872D01*
X19301944Y51992872D01*
X19388888Y52011353D01*
X19482288Y52031206D01*
X19495834Y52037237D01*
X19650722Y52106197D01*
X19650724Y52106198D01*
X19656752Y52108882D01*
X19811253Y52221134D01*
X19820322Y52231206D01*
X19934621Y52358148D01*
X19934622Y52358149D01*
X19939040Y52363056D01*
X20006563Y52480009D01*
X20031223Y52522721D01*
X20031224Y52522722D01*
X20034527Y52528444D01*
X20089387Y52697286D01*
X20120125Y52747444D01*
X21045948Y53673267D01*
X21059213Y53684799D01*
X21074847Y53696580D01*
X21074851Y53696583D01*
X21078010Y53698964D01*
X21093291Y53713824D01*
X21108892Y53733367D01*
X21111551Y53736588D01*
X21218093Y53861334D01*
X21218095Y53861336D01*
X21221304Y53865094D01*
X21250683Y53913037D01*
X21258067Y53925087D01*
X21310714Y53972719D01*
X21380755Y53984326D01*
X21445953Y53956224D01*
X21485608Y53897334D01*
X21491500Y53859253D01*
X21491500Y52251178D01*
X21471498Y52183057D01*
X21417842Y52136564D01*
X21347568Y52126460D01*
X21339303Y52127931D01*
X21201944Y52157128D01*
X21201939Y52157128D01*
X21195487Y52158500D01*
X21004513Y52158500D01*
X20998061Y52157128D01*
X20998056Y52157128D01*
X20911113Y52138647D01*
X20817712Y52118794D01*
X20811682Y52116109D01*
X20811681Y52116109D01*
X20649278Y52043803D01*
X20649276Y52043802D01*
X20643248Y52041118D01*
X20488747Y51928866D01*
X20484326Y51923956D01*
X20484325Y51923955D01*
X20367328Y51794016D01*
X20360960Y51786944D01*
X20265473Y51621556D01*
X20206458Y51439928D01*
X20205768Y51433367D01*
X20205768Y51433365D01*
X20187186Y51256565D01*
X20186496Y51250000D01*
X20187186Y51243435D01*
X20200919Y51112777D01*
X20206458Y51060072D01*
X20265473Y50878444D01*
X20360960Y50713056D01*
X20365378Y50708149D01*
X20365379Y50708148D01*
X20484325Y50576045D01*
X20488747Y50571134D01*
X20643248Y50458882D01*
X20649276Y50456198D01*
X20649278Y50456197D01*
X20708500Y50429830D01*
X20817712Y50381206D01*
X20911113Y50361353D01*
X20998056Y50342872D01*
X20998061Y50342872D01*
X21004513Y50341500D01*
X21195487Y50341500D01*
X21201939Y50342872D01*
X21201944Y50342872D01*
X21339303Y50372069D01*
X21410094Y50366667D01*
X21466726Y50323850D01*
X21491220Y50257212D01*
X21491500Y50248822D01*
X21491500Y1549367D01*
X21490000Y1529982D01*
X21487690Y1515149D01*
X21487690Y1515145D01*
X21486309Y1506276D01*
X21487966Y1493603D01*
X21488551Y1466293D01*
X21477398Y1338809D01*
X21473585Y1317183D01*
X21458282Y1260072D01*
X21434558Y1171534D01*
X21427046Y1150896D01*
X21363322Y1014240D01*
X21352340Y995220D01*
X21265853Y871703D01*
X21251735Y854878D01*
X21145122Y748265D01*
X21128297Y734147D01*
X21004780Y647660D01*
X20985760Y636678D01*
X20849104Y572954D01*
X20828466Y565443D01*
X20682822Y526417D01*
X20661194Y522603D01*
X20604659Y517656D01*
X20540607Y512053D01*
X20524129Y512607D01*
X20524124Y512200D01*
X20515147Y512310D01*
X20506276Y513691D01*
X20497374Y512527D01*
X20497372Y512527D01*
X20483548Y510719D01*
X20474714Y509564D01*
X20458379Y508500D01*
X6987556Y508500D01*
X6919435Y528502D01*
X6872942Y582158D01*
X6862838Y652432D01*
X6892332Y717012D01*
X6913495Y736436D01*
X6919044Y740467D01*
X6961253Y771134D01*
X6965675Y776045D01*
X7084621Y908148D01*
X7084622Y908149D01*
X7089040Y913056D01*
X7184527Y1078444D01*
X7243542Y1260072D01*
X7251818Y1338809D01*
X7262814Y1443435D01*
X7263504Y1450000D01*
X7256657Y1515149D01*
X7244232Y1633365D01*
X7244232Y1633367D01*
X7243542Y1639928D01*
X7229426Y1683372D01*
X7186568Y1815276D01*
X7186566Y1815280D01*
X7184527Y1821556D01*
X7184530Y1821557D01*
X7175424Y1889485D01*
X7205532Y1953782D01*
X7230973Y1975797D01*
X7239415Y1981321D01*
X7383873Y2097468D01*
X7392632Y2106046D01*
X7511778Y2248039D01*
X7518708Y2258159D01*
X7608002Y2420585D01*
X7612834Y2431858D01*
X7668880Y2608538D01*
X7671430Y2620532D01*
X7687607Y2764761D01*
X7688000Y2771785D01*
X7688000Y2778343D01*
X14312000Y2778343D01*
X14312301Y2772195D01*
X14325812Y2634397D01*
X14328195Y2622362D01*
X14381767Y2444924D01*
X14386441Y2433584D01*
X14473460Y2269923D01*
X14480249Y2259706D01*
X14597397Y2116067D01*
X14606041Y2107363D01*
X14748856Y1989216D01*
X14759027Y1982356D01*
X14922076Y1894196D01*
X14933381Y1889444D01*
X15048692Y1853750D01*
X15062795Y1853544D01*
X15066000Y1860299D01*
X15066000Y1867076D01*
X15574000Y1867076D01*
X15577973Y1853545D01*
X15585768Y1852425D01*
X15693521Y1884138D01*
X15704889Y1888731D01*
X15869154Y1974607D01*
X15879415Y1981321D01*
X16023873Y2097468D01*
X16032632Y2106046D01*
X16151778Y2248039D01*
X16158708Y2258159D01*
X16248002Y2420585D01*
X16252834Y2431858D01*
X16308880Y2608538D01*
X16311430Y2620532D01*
X16327607Y2764761D01*
X16328000Y2771785D01*
X16328000Y2852885D01*
X16323525Y2868124D01*
X16322135Y2869329D01*
X16314452Y2871000D01*
X15592115Y2871000D01*
X15576876Y2866525D01*
X15575671Y2865135D01*
X15574000Y2857452D01*
X15574000Y1867076D01*
X15066000Y1867076D01*
X15066000Y2852885D01*
X15061525Y2868124D01*
X15060135Y2869329D01*
X15052452Y2871000D01*
X14330115Y2871000D01*
X14314876Y2866525D01*
X14313671Y2865135D01*
X14312000Y2857452D01*
X14312000Y2778343D01*
X7688000Y2778343D01*
X7688000Y2852885D01*
X7683525Y2868124D01*
X7682135Y2869329D01*
X7674452Y2871000D01*
X5690115Y2871000D01*
X5674876Y2866525D01*
X5673671Y2865135D01*
X5672000Y2857452D01*
X5672000Y2778343D01*
X5672301Y2772195D01*
X5685812Y2634397D01*
X5688195Y2622362D01*
X5741767Y2444924D01*
X5746441Y2433584D01*
X5809748Y2314519D01*
X5824067Y2244981D01*
X5798519Y2178741D01*
X5772559Y2153432D01*
X5738747Y2128866D01*
X5610960Y1986944D01*
X5515473Y1821556D01*
X5456458Y1639928D01*
X5455768Y1633367D01*
X5455768Y1633365D01*
X5443343Y1515149D01*
X5436496Y1450000D01*
X5437186Y1443435D01*
X5448183Y1338809D01*
X5456458Y1260072D01*
X5515473Y1078444D01*
X5610960Y913056D01*
X5615378Y908149D01*
X5615379Y908148D01*
X5734325Y776045D01*
X5738747Y771134D01*
X5780957Y740467D01*
X5786505Y736436D01*
X5829859Y680214D01*
X5835934Y609478D01*
X5802803Y546686D01*
X5740983Y511775D01*
X5712444Y508500D01*
X1549367Y508500D01*
X1529982Y510000D01*
X1515149Y512310D01*
X1515145Y512310D01*
X1506276Y513691D01*
X1493603Y512034D01*
X1466293Y511449D01*
X1338806Y522603D01*
X1317183Y526415D01*
X1171531Y565443D01*
X1150896Y572954D01*
X1014240Y636678D01*
X995220Y647660D01*
X871703Y734147D01*
X854878Y748265D01*
X748265Y854878D01*
X734147Y871703D01*
X647660Y995220D01*
X636678Y1014240D01*
X572954Y1150896D01*
X565443Y1171534D01*
X526417Y1317178D01*
X522602Y1338809D01*
X512349Y1456007D01*
X512374Y1478242D01*
X512770Y1482656D01*
X513576Y1487448D01*
X513729Y1500000D01*
X509773Y1527624D01*
X508500Y1545486D01*
X508500Y3397115D01*
X5672000Y3397115D01*
X5676475Y3381876D01*
X5677865Y3380671D01*
X5685548Y3379000D01*
X7669885Y3379000D01*
X7685124Y3383475D01*
X7686329Y3384865D01*
X7688000Y3392548D01*
X7688000Y3471657D01*
X7687699Y3477805D01*
X7674188Y3615603D01*
X7671806Y3627635D01*
X7633201Y3755497D01*
X7632660Y3826492D01*
X7670587Y3886509D01*
X7695308Y3902360D01*
X7695000Y3902894D01*
X7700720Y3906196D01*
X7706752Y3908882D01*
X7861253Y4021134D01*
X7989040Y4163056D01*
X8084527Y4328444D01*
X8143542Y4510072D01*
X8163504Y4700000D01*
X8157190Y4760072D01*
X8144232Y4883365D01*
X8144232Y4883367D01*
X8143542Y4889928D01*
X8084527Y5071556D01*
X7989040Y5236944D01*
X7861253Y5378866D01*
X7706752Y5491118D01*
X7700724Y5493802D01*
X7700722Y5493803D01*
X7538319Y5566109D01*
X7538318Y5566109D01*
X7532288Y5568794D01*
X7438887Y5588647D01*
X7351944Y5607128D01*
X7351939Y5607128D01*
X7345487Y5608500D01*
X7175735Y5608500D01*
X7107614Y5628502D01*
X7061121Y5682158D01*
X7051017Y5752432D01*
X7080511Y5817012D01*
X7117360Y5846162D01*
X7229154Y5904607D01*
X7239415Y5911321D01*
X7383873Y6027468D01*
X7392634Y6036047D01*
X7452336Y6107197D01*
X7511445Y6146523D01*
X7582433Y6147649D01*
X7625386Y6126301D01*
X7670257Y6091994D01*
X7670261Y6091991D01*
X7675678Y6087850D01*
X7762372Y6047424D01*
X7833631Y6014195D01*
X7833634Y6014194D01*
X7839808Y6011315D01*
X7846456Y6009829D01*
X7846459Y6009828D01*
X7952421Y5986143D01*
X8016543Y5971810D01*
X8022088Y5971500D01*
X8155244Y5971500D01*
X8290037Y5986143D01*
X8438323Y6036047D01*
X8455204Y6041728D01*
X8455206Y6041729D01*
X8461675Y6043906D01*
X8616905Y6137177D01*
X8621862Y6141865D01*
X8621865Y6141867D01*
X8743527Y6256918D01*
X8743529Y6256920D01*
X8748485Y6261607D01*
X8752317Y6267245D01*
X8752320Y6267249D01*
X8846442Y6405745D01*
X8850277Y6411388D01*
X8917530Y6579534D01*
X8918644Y6586262D01*
X8918645Y6586266D01*
X8945993Y6751461D01*
X8945993Y6751464D01*
X8947108Y6758198D01*
X8942203Y6851802D01*
X13052892Y6851802D01*
X13053249Y6844985D01*
X13053249Y6844981D01*
X13058151Y6751461D01*
X13062370Y6670953D01*
X13064181Y6664380D01*
X13064181Y6664377D01*
X13087551Y6579534D01*
X13110461Y6496359D01*
X13194922Y6336164D01*
X13199327Y6330951D01*
X13199330Y6330947D01*
X13307406Y6203057D01*
X13307410Y6203053D01*
X13311813Y6197843D01*
X13317237Y6193696D01*
X13317238Y6193695D01*
X13450257Y6091994D01*
X13450261Y6091991D01*
X13455678Y6087850D01*
X13542372Y6047424D01*
X13613631Y6014195D01*
X13613634Y6014194D01*
X13619808Y6011315D01*
X13626456Y6009829D01*
X13626459Y6009828D01*
X13732421Y5986143D01*
X13796543Y5971810D01*
X13802088Y5971500D01*
X13935244Y5971500D01*
X14070037Y5986143D01*
X14218323Y6036047D01*
X14235204Y6041728D01*
X14235206Y6041729D01*
X14241675Y6043906D01*
X14388038Y6131849D01*
X14456727Y6149788D01*
X14524214Y6127741D01*
X14550572Y6103481D01*
X14597397Y6046067D01*
X14606041Y6037363D01*
X14748856Y5919216D01*
X14759027Y5912356D01*
X14922076Y5824196D01*
X14933379Y5819445D01*
X14961766Y5810657D01*
X15020925Y5771405D01*
X15049472Y5706400D01*
X15038343Y5636281D01*
X15018142Y5605982D01*
X14910960Y5486944D01*
X14815473Y5321556D01*
X14756458Y5139928D01*
X14736496Y4950000D01*
X14737186Y4943435D01*
X14743500Y4883365D01*
X14756458Y4760072D01*
X14815473Y4578444D01*
X14818776Y4572722D01*
X14818777Y4572721D01*
X14873830Y4477366D01*
X14890568Y4408370D01*
X14867347Y4341279D01*
X14823087Y4302704D01*
X14770842Y4275391D01*
X14760585Y4268679D01*
X14616127Y4152532D01*
X14607368Y4143954D01*
X14488222Y4001961D01*
X14481292Y3991841D01*
X14391998Y3829415D01*
X14387166Y3818142D01*
X14331120Y3641462D01*
X14328570Y3629468D01*
X14312393Y3485239D01*
X14312000Y3478215D01*
X14312000Y3397115D01*
X14316475Y3381876D01*
X14317865Y3380671D01*
X14325548Y3379000D01*
X16309885Y3379000D01*
X16325124Y3383475D01*
X16326329Y3384865D01*
X16328000Y3392548D01*
X16328000Y3471657D01*
X16327699Y3477805D01*
X16314188Y3615603D01*
X16311805Y3627638D01*
X16258233Y3805076D01*
X16253559Y3816416D01*
X16166540Y3980077D01*
X16159752Y3990294D01*
X16137906Y4017080D01*
X16110353Y4082512D01*
X16122549Y4152453D01*
X16161489Y4198651D01*
X16255909Y4267251D01*
X16255911Y4267253D01*
X16261253Y4271134D01*
X16342202Y4361037D01*
X16384621Y4408148D01*
X16384622Y4408149D01*
X16389040Y4413056D01*
X16484527Y4578444D01*
X16543542Y4760072D01*
X16556501Y4883365D01*
X16562814Y4943435D01*
X16563504Y4950000D01*
X16543542Y5139928D01*
X16484527Y5321556D01*
X16389040Y5486944D01*
X16261253Y5628866D01*
X16106752Y5741118D01*
X16100724Y5743802D01*
X16100722Y5743803D01*
X16012769Y5782962D01*
X15958673Y5828942D01*
X15938024Y5896870D01*
X15957376Y5965178D01*
X15985066Y5996266D01*
X16023873Y6027468D01*
X16032632Y6036046D01*
X16151778Y6178039D01*
X16158708Y6188159D01*
X16248002Y6350585D01*
X16252834Y6361858D01*
X16308880Y6538538D01*
X16311430Y6550532D01*
X16327607Y6694761D01*
X16328000Y6701785D01*
X16328000Y7032885D01*
X16323525Y7048124D01*
X16322135Y7049329D01*
X16314452Y7051000D01*
X15192000Y7051000D01*
X15123879Y7071002D01*
X15077386Y7124658D01*
X15066000Y7177000D01*
X15066000Y7577115D01*
X15574000Y7577115D01*
X15578475Y7561876D01*
X15579865Y7560671D01*
X15587548Y7559000D01*
X16309885Y7559000D01*
X16325124Y7563475D01*
X16326329Y7564865D01*
X16328000Y7572548D01*
X16328000Y7901657D01*
X16327699Y7907805D01*
X16314188Y8045603D01*
X16311805Y8057638D01*
X16258233Y8235076D01*
X16253559Y8246416D01*
X16166540Y8410077D01*
X16159751Y8420294D01*
X16042603Y8563933D01*
X16033959Y8572637D01*
X15891144Y8690784D01*
X15880973Y8697644D01*
X15717924Y8785804D01*
X15706619Y8790556D01*
X15591308Y8826250D01*
X15577205Y8826456D01*
X15574000Y8819701D01*
X15574000Y7577115D01*
X15066000Y7577115D01*
X15066000Y8812924D01*
X15062027Y8826455D01*
X15054232Y8827575D01*
X14946479Y8795862D01*
X14935111Y8791269D01*
X14770846Y8705393D01*
X14760585Y8698679D01*
X14616127Y8582532D01*
X14607368Y8573954D01*
X14488222Y8431961D01*
X14481292Y8421841D01*
X14391998Y8259415D01*
X14387166Y8248142D01*
X14331120Y8071462D01*
X14328570Y8059468D01*
X14312393Y7915239D01*
X14312000Y7908215D01*
X14312000Y7722026D01*
X14291998Y7653905D01*
X14238342Y7607412D01*
X14168068Y7597308D01*
X14158514Y7599061D01*
X13988506Y7637062D01*
X13988499Y7637063D01*
X13983457Y7638190D01*
X13977912Y7638500D01*
X13844756Y7638500D01*
X13709963Y7623857D01*
X13591810Y7584094D01*
X13544796Y7568272D01*
X13544794Y7568271D01*
X13538325Y7566094D01*
X13383095Y7472823D01*
X13378138Y7468135D01*
X13378135Y7468133D01*
X13259767Y7356197D01*
X13251515Y7348393D01*
X13247683Y7342755D01*
X13247680Y7342751D01*
X13196740Y7267795D01*
X13149723Y7198612D01*
X13082470Y7030466D01*
X13081356Y7023738D01*
X13081355Y7023734D01*
X13054007Y6858539D01*
X13052892Y6851802D01*
X8942203Y6851802D01*
X8937987Y6932234D01*
X8937630Y6939047D01*
X8914304Y7023734D01*
X8891352Y7107059D01*
X8889539Y7113641D01*
X8805078Y7273836D01*
X8800673Y7279049D01*
X8800670Y7279053D01*
X8692594Y7406943D01*
X8692590Y7406947D01*
X8688187Y7412157D01*
X8682762Y7416305D01*
X8549743Y7518006D01*
X8549739Y7518009D01*
X8544322Y7522150D01*
X8426449Y7577115D01*
X8386369Y7595805D01*
X8386366Y7595806D01*
X8380192Y7598685D01*
X8373544Y7600171D01*
X8373541Y7600172D01*
X8208494Y7637064D01*
X8208495Y7637064D01*
X8203457Y7638190D01*
X8197912Y7638500D01*
X8064756Y7638500D01*
X7929963Y7623857D01*
X7923499Y7621682D01*
X7923496Y7621681D01*
X7883285Y7608148D01*
X7855167Y7598685D01*
X7854189Y7598356D01*
X7783247Y7595586D01*
X7722068Y7631609D01*
X7690077Y7694990D01*
X7688000Y7717775D01*
X7688000Y7901657D01*
X7687699Y7907805D01*
X7674188Y8045603D01*
X7671805Y8057638D01*
X7618233Y8235076D01*
X7613559Y8246416D01*
X7526540Y8410077D01*
X7519751Y8420294D01*
X7402603Y8563933D01*
X7393959Y8572637D01*
X7251144Y8690784D01*
X7240973Y8697644D01*
X7077924Y8785804D01*
X7066619Y8790556D01*
X6951308Y8826250D01*
X6937205Y8826456D01*
X6934000Y8819701D01*
X6934000Y5797076D01*
X6938475Y5781837D01*
X6961076Y5762253D01*
X6999460Y5702527D01*
X6999460Y5631530D01*
X6961077Y5571804D01*
X6929813Y5551921D01*
X6799278Y5493803D01*
X6799276Y5493802D01*
X6793248Y5491118D01*
X6638747Y5378866D01*
X6510960Y5236944D01*
X6415473Y5071556D01*
X6356458Y4889928D01*
X6355768Y4883367D01*
X6355768Y4883365D01*
X6342810Y4760072D01*
X6336496Y4700000D01*
X6356458Y4510072D01*
X6358498Y4503794D01*
X6359539Y4498898D01*
X6354139Y4428107D01*
X6311323Y4371474D01*
X6294668Y4361037D01*
X6130846Y4275393D01*
X6120585Y4268679D01*
X5976127Y4152532D01*
X5967368Y4143954D01*
X5848222Y4001961D01*
X5841292Y3991841D01*
X5751998Y3829415D01*
X5747166Y3818142D01*
X5691120Y3641462D01*
X5688570Y3629468D01*
X5672393Y3485239D01*
X5672000Y3478215D01*
X5672000Y3397115D01*
X508500Y3397115D01*
X508500Y8150000D01*
X4436496Y8150000D01*
X4437186Y8143435D01*
X4446204Y8057638D01*
X4456458Y7960072D01*
X4515473Y7778444D01*
X4610960Y7613056D01*
X4615378Y7608149D01*
X4615379Y7608148D01*
X4659632Y7559000D01*
X4738747Y7471134D01*
X4893248Y7358882D01*
X4899276Y7356198D01*
X4899278Y7356197D01*
X5061681Y7283891D01*
X5067712Y7281206D01*
X5161113Y7261353D01*
X5248056Y7242872D01*
X5248061Y7242872D01*
X5254513Y7241500D01*
X5445487Y7241500D01*
X5460112Y7244609D01*
X5519804Y7257296D01*
X5590594Y7251894D01*
X5647227Y7209077D01*
X5671720Y7142439D01*
X5672000Y7134049D01*
X5672000Y6708343D01*
X5672301Y6702195D01*
X5685812Y6564397D01*
X5688195Y6552362D01*
X5741767Y6374924D01*
X5746441Y6363584D01*
X5833460Y6199923D01*
X5840249Y6189706D01*
X5957397Y6046067D01*
X5966041Y6037363D01*
X6108856Y5919216D01*
X6119027Y5912356D01*
X6282076Y5824196D01*
X6293381Y5819444D01*
X6408692Y5783750D01*
X6422795Y5783544D01*
X6426000Y5790299D01*
X6426000Y8812924D01*
X6422027Y8826455D01*
X6414232Y8827575D01*
X6306479Y8795862D01*
X6295111Y8791269D01*
X6177738Y8729908D01*
X6108103Y8716074D01*
X6042042Y8742084D01*
X6025727Y8757260D01*
X5965675Y8823955D01*
X5965674Y8823956D01*
X5961253Y8828866D01*
X5806752Y8941118D01*
X5800724Y8943802D01*
X5800722Y8943803D01*
X5638319Y9016109D01*
X5638318Y9016109D01*
X5632288Y9018794D01*
X5538887Y9038647D01*
X5451944Y9057128D01*
X5451939Y9057128D01*
X5445487Y9058500D01*
X5254513Y9058500D01*
X5248061Y9057128D01*
X5248056Y9057128D01*
X5161113Y9038647D01*
X5067712Y9018794D01*
X5061682Y9016109D01*
X5061681Y9016109D01*
X4899278Y8943803D01*
X4899276Y8943802D01*
X4893248Y8941118D01*
X4738747Y8828866D01*
X4734326Y8823956D01*
X4734325Y8823955D01*
X4627572Y8705393D01*
X4610960Y8686944D01*
X4515473Y8521556D01*
X4456458Y8339928D01*
X4436496Y8150000D01*
X508500Y8150000D01*
X508500Y11750000D01*
X3986496Y11750000D01*
X4006458Y11560072D01*
X4065473Y11378444D01*
X4160960Y11213056D01*
X4288747Y11071134D01*
X4443248Y10958882D01*
X4449276Y10956198D01*
X4449278Y10956197D01*
X4611681Y10883891D01*
X4617712Y10881206D01*
X4711112Y10861353D01*
X4798056Y10842872D01*
X4798061Y10842872D01*
X4804513Y10841500D01*
X4995487Y10841500D01*
X5001939Y10842872D01*
X5001944Y10842872D01*
X5088888Y10861353D01*
X5182288Y10881206D01*
X5188319Y10883891D01*
X5350722Y10956197D01*
X5350724Y10956198D01*
X5356752Y10958882D01*
X5511253Y11071134D01*
X5639040Y11213056D01*
X5734527Y11378444D01*
X5793542Y11560072D01*
X5813504Y11750000D01*
X5793542Y11939928D01*
X5734527Y12121556D01*
X5639040Y12286944D01*
X5511253Y12428866D01*
X5356752Y12541118D01*
X5350724Y12543802D01*
X5350722Y12543803D01*
X5188319Y12616109D01*
X5188318Y12616109D01*
X5182288Y12618794D01*
X5088887Y12638647D01*
X5001944Y12657128D01*
X5001939Y12657128D01*
X4995487Y12658500D01*
X4804513Y12658500D01*
X4798061Y12657128D01*
X4798056Y12657128D01*
X4711113Y12638647D01*
X4617712Y12618794D01*
X4611682Y12616109D01*
X4611681Y12616109D01*
X4449278Y12543803D01*
X4449276Y12543802D01*
X4443248Y12541118D01*
X4288747Y12428866D01*
X4160960Y12286944D01*
X4065473Y12121556D01*
X4006458Y11939928D01*
X3986496Y11750000D01*
X508500Y11750000D01*
X508500Y12900000D01*
X8386496Y12900000D01*
X8406458Y12710072D01*
X8465473Y12528444D01*
X8560960Y12363056D01*
X8565378Y12358149D01*
X8565379Y12358148D01*
X8684325Y12226045D01*
X8688747Y12221134D01*
X8843248Y12108882D01*
X8849276Y12106198D01*
X8849278Y12106197D01*
X8946833Y12062763D01*
X9017712Y12031206D01*
X9111112Y12011353D01*
X9198056Y11992872D01*
X9198061Y11992872D01*
X9204513Y11991500D01*
X9395487Y11991500D01*
X9401939Y11992872D01*
X9401944Y11992872D01*
X9488888Y12011353D01*
X9582288Y12031206D01*
X9653167Y12062763D01*
X9750722Y12106197D01*
X9750724Y12106198D01*
X9756752Y12108882D01*
X9911253Y12221134D01*
X9937123Y12249865D01*
X10001767Y12321660D01*
X10062213Y12358900D01*
X10133197Y12357548D01*
X10161238Y12344783D01*
X10213012Y12313056D01*
X10313037Y12251760D01*
X10317607Y12249867D01*
X10317611Y12249865D01*
X10517061Y12167251D01*
X10532406Y12160895D01*
X10612609Y12141640D01*
X10758476Y12106620D01*
X10758482Y12106619D01*
X10763289Y12105465D01*
X11000000Y12086835D01*
X11236711Y12105465D01*
X11241518Y12106619D01*
X11241524Y12106620D01*
X11387391Y12141640D01*
X11467594Y12160895D01*
X11482939Y12167251D01*
X11682389Y12249865D01*
X11682393Y12249867D01*
X11686963Y12251760D01*
X11691183Y12254346D01*
X11691193Y12254351D01*
X11879078Y12369488D01*
X11947611Y12388027D01*
X12015288Y12366571D01*
X12054031Y12325057D01*
X12060960Y12313056D01*
X12188747Y12171134D01*
X12343248Y12058882D01*
X12349276Y12056198D01*
X12349278Y12056197D01*
X12494591Y11991500D01*
X12517712Y11981206D01*
X12611113Y11961353D01*
X12698056Y11942872D01*
X12698061Y11942872D01*
X12704513Y11941500D01*
X12895487Y11941500D01*
X12901939Y11942872D01*
X12901944Y11942872D01*
X12988887Y11961353D01*
X13082288Y11981206D01*
X13105409Y11991500D01*
X13250722Y12056197D01*
X13250724Y12056198D01*
X13256752Y12058882D01*
X13411253Y12171134D01*
X13539040Y12313056D01*
X13608145Y12432749D01*
X13631223Y12472721D01*
X13631224Y12472722D01*
X13634527Y12478444D01*
X13693542Y12660072D01*
X13713504Y12850000D01*
X13693542Y13039928D01*
X13634527Y13221556D01*
X13539040Y13386944D01*
X13499169Y13431226D01*
X13415675Y13523955D01*
X13415674Y13523956D01*
X13411253Y13528866D01*
X13256752Y13641118D01*
X13250724Y13643802D01*
X13250722Y13643803D01*
X13088319Y13716109D01*
X13088318Y13716109D01*
X13082288Y13718794D01*
X12988887Y13738647D01*
X12901944Y13757128D01*
X12901939Y13757128D01*
X12895487Y13758500D01*
X12704513Y13758500D01*
X12698061Y13757128D01*
X12698056Y13757128D01*
X12642657Y13745352D01*
X12571866Y13750754D01*
X12515234Y13793571D01*
X12493941Y13839185D01*
X12440260Y14062782D01*
X12439105Y14067594D01*
X12348240Y14286963D01*
X12345654Y14291183D01*
X12226759Y14485202D01*
X12226755Y14485208D01*
X12224176Y14489416D01*
X12069969Y14669969D01*
X11889416Y14824176D01*
X11885208Y14826755D01*
X11885202Y14826759D01*
X11691183Y14945654D01*
X11686963Y14948240D01*
X11682393Y14950133D01*
X11682389Y14950135D01*
X11472167Y15037211D01*
X11472165Y15037212D01*
X11467594Y15039105D01*
X11387391Y15058360D01*
X11241524Y15093380D01*
X11241518Y15093381D01*
X11236711Y15094535D01*
X11000000Y15113165D01*
X10763289Y15094535D01*
X10758482Y15093381D01*
X10758476Y15093380D01*
X10612609Y15058360D01*
X10532406Y15039105D01*
X10527835Y15037212D01*
X10527833Y15037211D01*
X10317611Y14950135D01*
X10317607Y14950133D01*
X10313037Y14948240D01*
X10308817Y14945654D01*
X10114798Y14826759D01*
X10114792Y14826755D01*
X10110584Y14824176D01*
X9930031Y14669969D01*
X9775824Y14489416D01*
X9773245Y14485208D01*
X9773241Y14485202D01*
X9654346Y14291183D01*
X9651760Y14286963D01*
X9560895Y14067594D01*
X9559740Y14062782D01*
X9521785Y13904689D01*
X9486433Y13843120D01*
X9423406Y13810437D01*
X9395487Y13809207D01*
X9395487Y13808500D01*
X9204513Y13808500D01*
X9198061Y13807128D01*
X9198056Y13807128D01*
X9111113Y13788647D01*
X9017712Y13768794D01*
X9011682Y13766109D01*
X9011681Y13766109D01*
X8849278Y13693803D01*
X8849276Y13693802D01*
X8843248Y13691118D01*
X8688747Y13578866D01*
X8560960Y13436944D01*
X8465473Y13271556D01*
X8406458Y13089928D01*
X8386496Y12900000D01*
X508500Y12900000D01*
X508500Y17600000D01*
X3236835Y17600000D01*
X3255465Y17363289D01*
X3256619Y17358482D01*
X3256620Y17358476D01*
X3291640Y17212609D01*
X3310895Y17132406D01*
X3312788Y17127835D01*
X3312789Y17127833D01*
X3382278Y16960072D01*
X3401760Y16913037D01*
X3404346Y16908817D01*
X3523241Y16714798D01*
X3523245Y16714792D01*
X3525824Y16710584D01*
X3680031Y16530031D01*
X3860584Y16375824D01*
X3864792Y16373245D01*
X3864798Y16373241D01*
X4058817Y16254346D01*
X4063037Y16251760D01*
X4067607Y16249867D01*
X4067611Y16249865D01*
X4277833Y16162789D01*
X4282406Y16160895D01*
X4362609Y16141640D01*
X4508476Y16106620D01*
X4508482Y16106619D01*
X4513289Y16105465D01*
X4750000Y16086835D01*
X4986711Y16105465D01*
X4991518Y16106619D01*
X4991524Y16106620D01*
X5137391Y16141640D01*
X5217594Y16160895D01*
X5222167Y16162789D01*
X5432389Y16249865D01*
X5432393Y16249867D01*
X5436963Y16251760D01*
X5441183Y16254346D01*
X5635202Y16373241D01*
X5635208Y16373245D01*
X5639416Y16375824D01*
X5819969Y16530031D01*
X5886686Y16608146D01*
X5906459Y16631297D01*
X5965910Y16670106D01*
X6036905Y16670612D01*
X6096903Y16632656D01*
X6104206Y16623527D01*
X6107657Y16618778D01*
X6110960Y16613056D01*
X6115381Y16608146D01*
X6227261Y16483891D01*
X6238747Y16471134D01*
X6277646Y16442872D01*
X6373485Y16373241D01*
X6393248Y16358882D01*
X6399276Y16356198D01*
X6399278Y16356197D01*
X6447849Y16334572D01*
X6567712Y16281206D01*
X6661113Y16261353D01*
X6748056Y16242872D01*
X6748061Y16242872D01*
X6754513Y16241500D01*
X6945487Y16241500D01*
X6951939Y16242872D01*
X6951944Y16242872D01*
X7038887Y16261353D01*
X7132288Y16281206D01*
X7252151Y16334572D01*
X7300722Y16356197D01*
X7300724Y16356198D01*
X7306752Y16358882D01*
X7326516Y16373241D01*
X7422354Y16442872D01*
X7461253Y16471134D01*
X7470322Y16481206D01*
X7584621Y16608148D01*
X7584622Y16608149D01*
X7589040Y16613056D01*
X7684527Y16778444D01*
X7743542Y16960072D01*
X7744872Y16972721D01*
X7762814Y17143435D01*
X7763504Y17150000D01*
X7743542Y17339928D01*
X7740269Y17350000D01*
X10586496Y17350000D01*
X10587186Y17343435D01*
X10601500Y17207249D01*
X10606458Y17160072D01*
X10665473Y16978444D01*
X10760960Y16813056D01*
X10765378Y16808149D01*
X10765379Y16808148D01*
X10797278Y16772721D01*
X10888747Y16671134D01*
X11043248Y16558882D01*
X11049276Y16556198D01*
X11049278Y16556197D01*
X11211681Y16483891D01*
X11217712Y16481206D01*
X11283365Y16467251D01*
X11398056Y16442872D01*
X11398061Y16442872D01*
X11404513Y16441500D01*
X11595487Y16441500D01*
X11601939Y16442872D01*
X11601944Y16442872D01*
X11624651Y16447699D01*
X11695442Y16442297D01*
X11752074Y16399480D01*
X11772441Y16347180D01*
X11774415Y16347600D01*
X11775789Y16341136D01*
X11776479Y16334572D01*
X11835494Y16152944D01*
X11930981Y15987556D01*
X12058768Y15845634D01*
X12213269Y15733382D01*
X12219297Y15730698D01*
X12219299Y15730697D01*
X12381702Y15658391D01*
X12387733Y15655706D01*
X12481134Y15635853D01*
X12568077Y15617372D01*
X12568082Y15617372D01*
X12574534Y15616000D01*
X12765508Y15616000D01*
X12771960Y15617372D01*
X12771965Y15617372D01*
X12858908Y15635853D01*
X12952309Y15655706D01*
X12958340Y15658391D01*
X13120743Y15730697D01*
X13120745Y15730698D01*
X13126773Y15733382D01*
X13281274Y15845634D01*
X13409061Y15987556D01*
X13504548Y16152944D01*
X13563563Y16334572D01*
X13574802Y16441500D01*
X13582835Y16517935D01*
X13583525Y16524500D01*
X13574733Y16608148D01*
X13564253Y16707865D01*
X13564253Y16707867D01*
X13563563Y16714428D01*
X13504548Y16896056D01*
X13497181Y16908817D01*
X13456981Y16978444D01*
X13409061Y17061444D01*
X13281274Y17203366D01*
X13126773Y17315618D01*
X13120745Y17318302D01*
X13120743Y17318303D01*
X12958340Y17390609D01*
X12958339Y17390609D01*
X12952309Y17393294D01*
X12858909Y17413147D01*
X12771965Y17431628D01*
X12771960Y17431628D01*
X12765508Y17433000D01*
X12574534Y17433000D01*
X12568082Y17431628D01*
X12568077Y17431628D01*
X12545370Y17426801D01*
X12474579Y17432203D01*
X12417947Y17475020D01*
X12397580Y17527320D01*
X12395606Y17526900D01*
X12394232Y17533365D01*
X12393542Y17539928D01*
X12334527Y17721556D01*
X12239040Y17886944D01*
X12122740Y18016109D01*
X12115675Y18023955D01*
X12115674Y18023956D01*
X12111253Y18028866D01*
X11956752Y18141118D01*
X11950724Y18143802D01*
X11950722Y18143803D01*
X11788319Y18216109D01*
X11788318Y18216109D01*
X11782288Y18218794D01*
X11688887Y18238647D01*
X11601944Y18257128D01*
X11601939Y18257128D01*
X11595487Y18258500D01*
X11404513Y18258500D01*
X11398061Y18257128D01*
X11398056Y18257128D01*
X11311113Y18238647D01*
X11217712Y18218794D01*
X11211682Y18216109D01*
X11211681Y18216109D01*
X11049278Y18143803D01*
X11049276Y18143802D01*
X11043248Y18141118D01*
X10888747Y18028866D01*
X10884326Y18023956D01*
X10884325Y18023955D01*
X10877261Y18016109D01*
X10760960Y17886944D01*
X10665473Y17721556D01*
X10606458Y17539928D01*
X10605768Y17533367D01*
X10605768Y17533365D01*
X10591046Y17393294D01*
X10586496Y17350000D01*
X7740269Y17350000D01*
X7684527Y17521556D01*
X7589040Y17686944D01*
X7461253Y17828866D01*
X7306752Y17941118D01*
X7300724Y17943802D01*
X7300722Y17943803D01*
X7138319Y18016109D01*
X7138318Y18016109D01*
X7132288Y18018794D01*
X7038888Y18038647D01*
X6951944Y18057128D01*
X6951939Y18057128D01*
X6945487Y18058500D01*
X6754513Y18058500D01*
X6748061Y18057128D01*
X6748056Y18057128D01*
X6661112Y18038647D01*
X6567712Y18018794D01*
X6561682Y18016109D01*
X6561681Y18016109D01*
X6399279Y17943803D01*
X6393248Y17941118D01*
X6387907Y17937238D01*
X6386924Y17936670D01*
X6317929Y17919930D01*
X6250837Y17943148D01*
X6206948Y17998954D01*
X6201402Y18016373D01*
X6198403Y18028866D01*
X6189105Y18067594D01*
X6158651Y18141118D01*
X6100135Y18282389D01*
X6100133Y18282393D01*
X6098240Y18286963D01*
X6059611Y18350000D01*
X13386496Y18350000D01*
X13406458Y18160072D01*
X13465473Y17978444D01*
X13560960Y17813056D01*
X13688747Y17671134D01*
X13843248Y17558882D01*
X13849276Y17556198D01*
X13849278Y17556197D01*
X13941200Y17515271D01*
X14017712Y17481206D01*
X14111113Y17461353D01*
X14198056Y17442872D01*
X14198061Y17442872D01*
X14204513Y17441500D01*
X14395487Y17441500D01*
X14401939Y17442872D01*
X14401944Y17442872D01*
X14488887Y17461353D01*
X14582288Y17481206D01*
X14658800Y17515271D01*
X14750722Y17556197D01*
X14750724Y17556198D01*
X14756752Y17558882D01*
X14813346Y17600000D01*
X15736835Y17600000D01*
X15755465Y17363289D01*
X15756619Y17358482D01*
X15756620Y17358476D01*
X15791640Y17212609D01*
X15810895Y17132406D01*
X15812788Y17127835D01*
X15812789Y17127833D01*
X15882278Y16960072D01*
X15901760Y16913037D01*
X15904346Y16908817D01*
X16023241Y16714798D01*
X16023245Y16714792D01*
X16025824Y16710584D01*
X16180031Y16530031D01*
X16360584Y16375824D01*
X16364792Y16373245D01*
X16364798Y16373241D01*
X16558817Y16254346D01*
X16563037Y16251760D01*
X16567607Y16249867D01*
X16567611Y16249865D01*
X16777833Y16162789D01*
X16782406Y16160895D01*
X16862609Y16141640D01*
X17008476Y16106620D01*
X17008482Y16106619D01*
X17013289Y16105465D01*
X17250000Y16086835D01*
X17486711Y16105465D01*
X17491518Y16106619D01*
X17491524Y16106620D01*
X17637391Y16141640D01*
X17717594Y16160895D01*
X17722167Y16162789D01*
X17932389Y16249865D01*
X17932393Y16249867D01*
X17936963Y16251760D01*
X17941183Y16254346D01*
X18135202Y16373241D01*
X18135208Y16373245D01*
X18139416Y16375824D01*
X18319969Y16530031D01*
X18474176Y16710584D01*
X18476755Y16714792D01*
X18476759Y16714798D01*
X18595654Y16908817D01*
X18598240Y16913037D01*
X18617723Y16960072D01*
X18687211Y17127833D01*
X18687212Y17127835D01*
X18689105Y17132406D01*
X18708360Y17212609D01*
X18743380Y17358476D01*
X18743381Y17358482D01*
X18744535Y17363289D01*
X18763165Y17600000D01*
X18744535Y17836711D01*
X18689105Y18067594D01*
X18658651Y18141118D01*
X18600135Y18282389D01*
X18600133Y18282393D01*
X18598240Y18286963D01*
X18555588Y18356565D01*
X18476759Y18485202D01*
X18476755Y18485208D01*
X18474176Y18489416D01*
X18319969Y18669969D01*
X18139416Y18824176D01*
X18135208Y18826755D01*
X18135202Y18826759D01*
X17941183Y18945654D01*
X17936963Y18948240D01*
X17932393Y18950133D01*
X17932389Y18950135D01*
X17722167Y19037211D01*
X17722165Y19037212D01*
X17717594Y19039105D01*
X17637391Y19058360D01*
X17491524Y19093380D01*
X17491518Y19093381D01*
X17486711Y19094535D01*
X17250000Y19113165D01*
X17013289Y19094535D01*
X17008482Y19093381D01*
X17008476Y19093380D01*
X16862609Y19058360D01*
X16782406Y19039105D01*
X16777835Y19037212D01*
X16777833Y19037211D01*
X16567611Y18950135D01*
X16567607Y18950133D01*
X16563037Y18948240D01*
X16558817Y18945654D01*
X16364798Y18826759D01*
X16364792Y18826755D01*
X16360584Y18824176D01*
X16180031Y18669969D01*
X16025824Y18489416D01*
X16023245Y18485208D01*
X16023241Y18485202D01*
X15944412Y18356565D01*
X15901760Y18286963D01*
X15899867Y18282393D01*
X15899865Y18282389D01*
X15841349Y18141118D01*
X15810895Y18067594D01*
X15755465Y17836711D01*
X15736835Y17600000D01*
X14813346Y17600000D01*
X14911253Y17671134D01*
X15039040Y17813056D01*
X15134527Y17978444D01*
X15193542Y18160072D01*
X15213504Y18350000D01*
X15193542Y18539928D01*
X15134527Y18721556D01*
X15039040Y18886944D01*
X14911253Y19028866D01*
X14756752Y19141118D01*
X14750724Y19143802D01*
X14750722Y19143803D01*
X14588319Y19216109D01*
X14588318Y19216109D01*
X14582288Y19218794D01*
X14488888Y19238647D01*
X14401944Y19257128D01*
X14401939Y19257128D01*
X14395487Y19258500D01*
X14204513Y19258500D01*
X14198061Y19257128D01*
X14198056Y19257128D01*
X14111112Y19238647D01*
X14017712Y19218794D01*
X14011682Y19216109D01*
X14011681Y19216109D01*
X13849278Y19143803D01*
X13849276Y19143802D01*
X13843248Y19141118D01*
X13688747Y19028866D01*
X13560960Y18886944D01*
X13465473Y18721556D01*
X13406458Y18539928D01*
X13386496Y18350000D01*
X6059611Y18350000D01*
X6055588Y18356565D01*
X5976759Y18485202D01*
X5976755Y18485208D01*
X5974176Y18489416D01*
X5819969Y18669969D01*
X5639416Y18824176D01*
X5635208Y18826755D01*
X5635202Y18826759D01*
X5441183Y18945654D01*
X5436963Y18948240D01*
X5432393Y18950133D01*
X5432389Y18950135D01*
X5222167Y19037211D01*
X5222165Y19037212D01*
X5217594Y19039105D01*
X5137391Y19058360D01*
X4991524Y19093380D01*
X4991518Y19093381D01*
X4986711Y19094535D01*
X4750000Y19113165D01*
X4513289Y19094535D01*
X4508482Y19093381D01*
X4508476Y19093380D01*
X4362609Y19058360D01*
X4282406Y19039105D01*
X4277835Y19037212D01*
X4277833Y19037211D01*
X4067611Y18950135D01*
X4067607Y18950133D01*
X4063037Y18948240D01*
X4058817Y18945654D01*
X3864798Y18826759D01*
X3864792Y18826755D01*
X3860584Y18824176D01*
X3680031Y18669969D01*
X3525824Y18489416D01*
X3523245Y18485208D01*
X3523241Y18485202D01*
X3444412Y18356565D01*
X3401760Y18286963D01*
X3399867Y18282393D01*
X3399865Y18282389D01*
X3341349Y18141118D01*
X3310895Y18067594D01*
X3255465Y17836711D01*
X3236835Y17600000D01*
X508500Y17600000D01*
X508500Y22600000D01*
X3236835Y22600000D01*
X3255465Y22363289D01*
X3310895Y22132406D01*
X3401760Y21913037D01*
X3404346Y21908817D01*
X3523241Y21714798D01*
X3523245Y21714792D01*
X3525824Y21710584D01*
X3680031Y21530031D01*
X3860584Y21375824D01*
X3864792Y21373245D01*
X3864798Y21373241D01*
X4058817Y21254346D01*
X4063037Y21251760D01*
X4067607Y21249867D01*
X4067611Y21249865D01*
X4277833Y21162789D01*
X4282406Y21160895D01*
X4362609Y21141640D01*
X4508476Y21106620D01*
X4508482Y21106619D01*
X4513289Y21105465D01*
X4750000Y21086835D01*
X4986711Y21105465D01*
X4991518Y21106619D01*
X4991524Y21106620D01*
X5137391Y21141640D01*
X5217594Y21160895D01*
X5222167Y21162789D01*
X5432389Y21249865D01*
X5432393Y21249867D01*
X5436963Y21251760D01*
X5441183Y21254346D01*
X5635202Y21373241D01*
X5635208Y21373245D01*
X5639416Y21375824D01*
X5819969Y21530031D01*
X5974176Y21710584D01*
X5976755Y21714792D01*
X5976759Y21714798D01*
X6095654Y21908817D01*
X6098240Y21913037D01*
X6189105Y22132406D01*
X6244535Y22363289D01*
X6263165Y22600000D01*
X15736835Y22600000D01*
X15755465Y22363289D01*
X15810895Y22132406D01*
X15901760Y21913037D01*
X15904346Y21908817D01*
X16023241Y21714798D01*
X16023245Y21714792D01*
X16025824Y21710584D01*
X16180031Y21530031D01*
X16360584Y21375824D01*
X16364792Y21373245D01*
X16364798Y21373241D01*
X16558817Y21254346D01*
X16563037Y21251760D01*
X16567607Y21249867D01*
X16567611Y21249865D01*
X16777833Y21162789D01*
X16782406Y21160895D01*
X16862609Y21141640D01*
X17008476Y21106620D01*
X17008482Y21106619D01*
X17013289Y21105465D01*
X17250000Y21086835D01*
X17486711Y21105465D01*
X17491518Y21106619D01*
X17491524Y21106620D01*
X17637391Y21141640D01*
X17717594Y21160895D01*
X17722167Y21162789D01*
X17932389Y21249865D01*
X17932393Y21249867D01*
X17936963Y21251760D01*
X17941183Y21254346D01*
X18135202Y21373241D01*
X18135208Y21373245D01*
X18139416Y21375824D01*
X18319969Y21530031D01*
X18474176Y21710584D01*
X18476755Y21714792D01*
X18476759Y21714798D01*
X18595654Y21908817D01*
X18598240Y21913037D01*
X18689105Y22132406D01*
X18744535Y22363289D01*
X18763165Y22600000D01*
X18744535Y22836711D01*
X18689105Y23067594D01*
X18598240Y23286963D01*
X18595654Y23291183D01*
X18476759Y23485202D01*
X18476755Y23485208D01*
X18474176Y23489416D01*
X18319969Y23669969D01*
X18139416Y23824176D01*
X18135208Y23826755D01*
X18135202Y23826759D01*
X17941183Y23945654D01*
X17936963Y23948240D01*
X17932393Y23950133D01*
X17932389Y23950135D01*
X17722167Y24037211D01*
X17722165Y24037212D01*
X17717594Y24039105D01*
X17637391Y24058360D01*
X17491524Y24093380D01*
X17491518Y24093381D01*
X17486711Y24094535D01*
X17250000Y24113165D01*
X17013289Y24094535D01*
X17008482Y24093381D01*
X17008476Y24093380D01*
X16862609Y24058360D01*
X16782406Y24039105D01*
X16777835Y24037212D01*
X16777833Y24037211D01*
X16567611Y23950135D01*
X16567607Y23950133D01*
X16563037Y23948240D01*
X16558817Y23945654D01*
X16364798Y23826759D01*
X16364792Y23826755D01*
X16360584Y23824176D01*
X16180031Y23669969D01*
X16025824Y23489416D01*
X16023245Y23485208D01*
X16023241Y23485202D01*
X15904346Y23291183D01*
X15901760Y23286963D01*
X15810895Y23067594D01*
X15755465Y22836711D01*
X15736835Y22600000D01*
X6263165Y22600000D01*
X6244535Y22836711D01*
X6189105Y23067594D01*
X6098240Y23286963D01*
X6095654Y23291183D01*
X5976759Y23485202D01*
X5976755Y23485208D01*
X5974176Y23489416D01*
X5819969Y23669969D01*
X5639416Y23824176D01*
X5635208Y23826755D01*
X5635202Y23826759D01*
X5441183Y23945654D01*
X5436963Y23948240D01*
X5432393Y23950133D01*
X5432389Y23950135D01*
X5222167Y24037211D01*
X5222165Y24037212D01*
X5217594Y24039105D01*
X5137391Y24058360D01*
X4991524Y24093380D01*
X4991518Y24093381D01*
X4986711Y24094535D01*
X4750000Y24113165D01*
X4513289Y24094535D01*
X4508482Y24093381D01*
X4508476Y24093380D01*
X4362609Y24058360D01*
X4282406Y24039105D01*
X4277835Y24037212D01*
X4277833Y24037211D01*
X4067611Y23950135D01*
X4067607Y23950133D01*
X4063037Y23948240D01*
X4058817Y23945654D01*
X3864798Y23826759D01*
X3864792Y23826755D01*
X3860584Y23824176D01*
X3680031Y23669969D01*
X3525824Y23489416D01*
X3523245Y23485208D01*
X3523241Y23485202D01*
X3404346Y23291183D01*
X3401760Y23286963D01*
X3310895Y23067594D01*
X3255465Y22836711D01*
X3236835Y22600000D01*
X508500Y22600000D01*
X508500Y29402591D01*
X528502Y29470712D01*
X582158Y29517205D01*
X652432Y29527309D01*
X685748Y29517698D01*
X761677Y29483892D01*
X761685Y29483889D01*
X767712Y29481206D01*
X861113Y29461353D01*
X948056Y29442872D01*
X948061Y29442872D01*
X954513Y29441500D01*
X1145487Y29441500D01*
X1151939Y29442872D01*
X1151944Y29442872D01*
X1238887Y29461353D01*
X1332288Y29481206D01*
X1338321Y29483892D01*
X1500722Y29556197D01*
X1500724Y29556198D01*
X1506752Y29558882D01*
X1661253Y29671134D01*
X1789040Y29813056D01*
X1884527Y29978444D01*
X1943542Y30160072D01*
X1963504Y30350000D01*
X1952137Y30458148D01*
X1944232Y30533365D01*
X1944232Y30533367D01*
X1943542Y30539928D01*
X1884527Y30721556D01*
X1789040Y30886944D01*
X1694898Y30991500D01*
X1665675Y31023955D01*
X1665674Y31023956D01*
X1661253Y31028866D01*
X1506752Y31141118D01*
X1500724Y31143802D01*
X1500722Y31143803D01*
X1338319Y31216109D01*
X1338318Y31216109D01*
X1332288Y31218794D01*
X1238888Y31238647D01*
X1151944Y31257128D01*
X1151939Y31257128D01*
X1145487Y31258500D01*
X954513Y31258500D01*
X948061Y31257128D01*
X948056Y31257128D01*
X861112Y31238647D01*
X767712Y31218794D01*
X761685Y31216111D01*
X761677Y31216108D01*
X685748Y31182302D01*
X615381Y31172868D01*
X551084Y31202975D01*
X513271Y31263064D01*
X508500Y31297409D01*
X508500Y33600000D01*
X3236835Y33600000D01*
X3255465Y33363289D01*
X3310895Y33132406D01*
X3401760Y32913037D01*
X3404346Y32908817D01*
X3523241Y32714798D01*
X3523245Y32714792D01*
X3525824Y32710584D01*
X3680031Y32530031D01*
X3860584Y32375824D01*
X3864792Y32373245D01*
X3864798Y32373241D01*
X4021394Y32277279D01*
X4063037Y32251760D01*
X4067607Y32249867D01*
X4067611Y32249865D01*
X4277833Y32162789D01*
X4282406Y32160895D01*
X4362609Y32141640D01*
X4508476Y32106620D01*
X4508482Y32106619D01*
X4513289Y32105465D01*
X4750000Y32086835D01*
X4986711Y32105465D01*
X4991518Y32106619D01*
X4991524Y32106620D01*
X5137391Y32141640D01*
X5217594Y32160895D01*
X5222167Y32162789D01*
X5432389Y32249865D01*
X5432393Y32249867D01*
X5436963Y32251760D01*
X5478606Y32277279D01*
X5635202Y32373241D01*
X5635208Y32373245D01*
X5639416Y32375824D01*
X5819969Y32530031D01*
X5974176Y32710584D01*
X5976755Y32714792D01*
X5976759Y32714798D01*
X6095654Y32908817D01*
X6098240Y32913037D01*
X6189105Y33132406D01*
X6244535Y33363289D01*
X6263165Y33600000D01*
X6244535Y33836711D01*
X6189105Y34067594D01*
X6098240Y34286963D01*
X6095654Y34291183D01*
X5976759Y34485202D01*
X5976755Y34485208D01*
X5974176Y34489416D01*
X5819969Y34669969D01*
X5639416Y34824176D01*
X5635208Y34826755D01*
X5635202Y34826759D01*
X5441183Y34945654D01*
X5436963Y34948240D01*
X5432393Y34950133D01*
X5432389Y34950135D01*
X5222167Y35037211D01*
X5222165Y35037212D01*
X5217594Y35039105D01*
X5137391Y35058360D01*
X4991524Y35093380D01*
X4991518Y35093381D01*
X4986711Y35094535D01*
X4750000Y35113165D01*
X4513289Y35094535D01*
X4508482Y35093381D01*
X4508476Y35093380D01*
X4362609Y35058360D01*
X4282406Y35039105D01*
X4277835Y35037212D01*
X4277833Y35037211D01*
X4067611Y34950135D01*
X4067607Y34950133D01*
X4063037Y34948240D01*
X4058817Y34945654D01*
X3864798Y34826759D01*
X3864792Y34826755D01*
X3860584Y34824176D01*
X3680031Y34669969D01*
X3525824Y34489416D01*
X3523245Y34485208D01*
X3523241Y34485202D01*
X3404346Y34291183D01*
X3401760Y34286963D01*
X3310895Y34067594D01*
X3255465Y33836711D01*
X3236835Y33600000D01*
X508500Y33600000D01*
X508500Y38600000D01*
X3236835Y38600000D01*
X3255465Y38363289D01*
X3310895Y38132406D01*
X3401760Y37913037D01*
X3404346Y37908817D01*
X3523241Y37714798D01*
X3523245Y37714792D01*
X3525824Y37710584D01*
X3680031Y37530031D01*
X3860584Y37375824D01*
X3864792Y37373245D01*
X3864798Y37373241D01*
X4058817Y37254346D01*
X4063037Y37251760D01*
X4067607Y37249867D01*
X4067611Y37249865D01*
X4277833Y37162789D01*
X4282406Y37160895D01*
X4362609Y37141640D01*
X4508476Y37106620D01*
X4508482Y37106619D01*
X4513289Y37105465D01*
X4750000Y37086835D01*
X4986711Y37105465D01*
X4991518Y37106619D01*
X4991524Y37106620D01*
X5137391Y37141640D01*
X5217594Y37160895D01*
X5222167Y37162789D01*
X5432389Y37249865D01*
X5432393Y37249867D01*
X5436963Y37251760D01*
X5441183Y37254346D01*
X5635202Y37373241D01*
X5635208Y37373245D01*
X5639416Y37375824D01*
X5819969Y37530031D01*
X5974176Y37710584D01*
X5976755Y37714792D01*
X5976759Y37714798D01*
X6095654Y37908817D01*
X6098240Y37913037D01*
X6189105Y38132406D01*
X6244535Y38363289D01*
X6263165Y38600000D01*
X6244535Y38836711D01*
X6189105Y39067594D01*
X6098240Y39286963D01*
X6095654Y39291183D01*
X5976759Y39485202D01*
X5976755Y39485208D01*
X5974176Y39489416D01*
X5819969Y39669969D01*
X5639416Y39824176D01*
X5635208Y39826755D01*
X5635202Y39826759D01*
X5441183Y39945654D01*
X5436963Y39948240D01*
X5432393Y39950133D01*
X5432389Y39950135D01*
X5222167Y40037211D01*
X5222165Y40037212D01*
X5217594Y40039105D01*
X5137391Y40058360D01*
X4991524Y40093380D01*
X4991518Y40093381D01*
X4986711Y40094535D01*
X4750000Y40113165D01*
X4513289Y40094535D01*
X4508482Y40093381D01*
X4508476Y40093380D01*
X4362609Y40058360D01*
X4282406Y40039105D01*
X4277835Y40037212D01*
X4277833Y40037211D01*
X4067611Y39950135D01*
X4067607Y39950133D01*
X4063037Y39948240D01*
X4058817Y39945654D01*
X3864798Y39826759D01*
X3864792Y39826755D01*
X3860584Y39824176D01*
X3680031Y39669969D01*
X3525824Y39489416D01*
X3523245Y39485208D01*
X3523241Y39485202D01*
X3404346Y39291183D01*
X3401760Y39286963D01*
X3310895Y39067594D01*
X3255465Y38836711D01*
X3236835Y38600000D01*
X508500Y38600000D01*
X508500Y44600000D01*
X2236496Y44600000D01*
X2256458Y44410072D01*
X2315473Y44228444D01*
X2410960Y44063056D01*
X2415378Y44058149D01*
X2415379Y44058148D01*
X2502050Y43961890D01*
X2538747Y43921134D01*
X2590928Y43883222D01*
X2668643Y43826759D01*
X2693248Y43808882D01*
X2699276Y43806198D01*
X2699278Y43806197D01*
X2861681Y43733891D01*
X2867712Y43731206D01*
X2961113Y43711353D01*
X3048056Y43692872D01*
X3048061Y43692872D01*
X3054513Y43691500D01*
X3245487Y43691500D01*
X3251939Y43692872D01*
X3251944Y43692872D01*
X3338887Y43711353D01*
X3432288Y43731206D01*
X3438319Y43733891D01*
X3600722Y43806197D01*
X3600724Y43806198D01*
X3606752Y43808882D01*
X3631358Y43826759D01*
X3709072Y43883222D01*
X3761253Y43921134D01*
X3797950Y43961890D01*
X3884621Y44058148D01*
X3884622Y44058149D01*
X3889040Y44063056D01*
X3984527Y44228444D01*
X4043542Y44410072D01*
X4063504Y44600000D01*
X4043542Y44789928D01*
X3984527Y44971556D01*
X3889040Y45136944D01*
X3799509Y45236379D01*
X3765675Y45273955D01*
X3765674Y45273956D01*
X3761253Y45278866D01*
X3606752Y45391118D01*
X3600724Y45393802D01*
X3600722Y45393803D01*
X3438319Y45466109D01*
X3438318Y45466109D01*
X3432288Y45468794D01*
X3338888Y45488647D01*
X3251944Y45507128D01*
X3251939Y45507128D01*
X3245487Y45508500D01*
X3054513Y45508500D01*
X3048061Y45507128D01*
X3048056Y45507128D01*
X2961113Y45488647D01*
X2867712Y45468794D01*
X2861682Y45466109D01*
X2861681Y45466109D01*
X2699278Y45393803D01*
X2699276Y45393802D01*
X2693248Y45391118D01*
X2538747Y45278866D01*
X2534326Y45273956D01*
X2534325Y45273955D01*
X2500492Y45236379D01*
X2410960Y45136944D01*
X2315473Y44971556D01*
X2256458Y44789928D01*
X2236496Y44600000D01*
X508500Y44600000D01*
X508500Y49924000D01*
X528502Y49992121D01*
X582158Y50038614D01*
X634500Y50050000D01*
X3000000Y50050000D01*
X3000000Y54402359D01*
X3020002Y54470480D01*
X3073658Y54516973D01*
X3143932Y54527077D01*
X3208512Y54497583D01*
X3246896Y54437857D01*
X3251612Y54412245D01*
X3255465Y54363289D01*
X3310895Y54132406D01*
X3312788Y54127835D01*
X3312789Y54127833D01*
X3396769Y53925087D01*
X3401760Y53913037D01*
X3404342Y53908824D01*
X3404346Y53908817D01*
X3523241Y53714798D01*
X3523245Y53714792D01*
X3525824Y53710584D01*
X3680031Y53530031D01*
X3860584Y53375824D01*
X3864792Y53373245D01*
X3864798Y53373241D01*
X4030733Y53271556D01*
X4063037Y53251760D01*
X4067607Y53249867D01*
X4067611Y53249865D01*
X4277833Y53162789D01*
X4282406Y53160895D01*
X4358323Y53142669D01*
X4493186Y53110291D01*
X4554755Y53074939D01*
X4587438Y53011912D01*
X4589082Y52974603D01*
X4586496Y52950000D01*
X4606458Y52760072D01*
X4665473Y52578444D01*
X4760960Y52413056D01*
X4765378Y52408149D01*
X4765379Y52408148D01*
X4857175Y52306198D01*
X4888747Y52271134D01*
X5043248Y52158882D01*
X5049276Y52156198D01*
X5049278Y52156197D01*
X5093375Y52136564D01*
X5217712Y52081206D01*
X5222277Y52080236D01*
X5280291Y52040572D01*
X5307931Y51975176D01*
X5302586Y51921871D01*
X5263176Y51800579D01*
X5243214Y51610651D01*
X5243904Y51604086D01*
X5260498Y51446206D01*
X5263176Y51420723D01*
X5322191Y51239095D01*
X5325495Y51233372D01*
X5325497Y51233368D01*
X5326431Y51231750D01*
X5326687Y51230696D01*
X5328179Y51227344D01*
X5327566Y51227071D01*
X5343167Y51162754D01*
X5319944Y51095663D01*
X5264136Y51051778D01*
X5187896Y51046235D01*
X4991524Y51093380D01*
X4991518Y51093381D01*
X4986711Y51094535D01*
X4750000Y51113165D01*
X4513289Y51094535D01*
X4508482Y51093381D01*
X4508476Y51093380D01*
X4369740Y51060072D01*
X4282406Y51039105D01*
X4277835Y51037212D01*
X4277833Y51037211D01*
X4067611Y50950135D01*
X4067607Y50950133D01*
X4063037Y50948240D01*
X4058817Y50945654D01*
X3864798Y50826759D01*
X3864792Y50826755D01*
X3860584Y50824176D01*
X3680031Y50669969D01*
X3525824Y50489416D01*
X3523245Y50485208D01*
X3523241Y50485202D01*
X3453913Y50372069D01*
X3401760Y50286963D01*
X3399867Y50282393D01*
X3399865Y50282389D01*
X3312789Y50072167D01*
X3310895Y50067594D01*
X3255465Y49836711D01*
X3236835Y49600000D01*
X3255465Y49363289D01*
X3256619Y49358482D01*
X3256620Y49358476D01*
X3280952Y49257128D01*
X3310895Y49132406D01*
X3312788Y49127835D01*
X3312789Y49127833D01*
X3394958Y48929459D01*
X3401760Y48913037D01*
X3404346Y48908817D01*
X3523241Y48714798D01*
X3523245Y48714792D01*
X3525824Y48710584D01*
X3680031Y48530031D01*
X3860584Y48375824D01*
X3864792Y48373245D01*
X3864798Y48373241D01*
X4058817Y48254346D01*
X4063037Y48251760D01*
X4067607Y48249867D01*
X4067611Y48249865D01*
X4268548Y48166635D01*
X4282406Y48160895D01*
X4362609Y48141640D01*
X4508476Y48106620D01*
X4508482Y48106619D01*
X4513289Y48105465D01*
X4750000Y48086835D01*
X4986711Y48105465D01*
X4991518Y48106619D01*
X4991524Y48106620D01*
X5137391Y48141640D01*
X5217594Y48160895D01*
X5231452Y48166635D01*
X5432389Y48249865D01*
X5432393Y48249867D01*
X5436963Y48251760D01*
X5441183Y48254346D01*
X5635202Y48373241D01*
X5635208Y48373245D01*
X5639416Y48375824D01*
X5819969Y48530031D01*
X5974176Y48710584D01*
X5976755Y48714792D01*
X5976759Y48714798D01*
X6095654Y48908817D01*
X6098240Y48913037D01*
X6105043Y48929459D01*
X6187211Y49127833D01*
X6187212Y49127835D01*
X6189105Y49132406D01*
X6219048Y49257128D01*
X6243380Y49358476D01*
X6243381Y49358482D01*
X6244535Y49363289D01*
X6263165Y49600000D01*
X6262777Y49604930D01*
X6262777Y49609886D01*
X6265254Y49609886D01*
X6277678Y49669412D01*
X6327456Y49720036D01*
X6362568Y49733205D01*
X6407890Y49742839D01*
X6413917Y49745522D01*
X6413922Y49745524D01*
X6464252Y49767932D01*
X6534619Y49777366D01*
X6598916Y49747259D01*
X6636729Y49687170D01*
X6641500Y49652825D01*
X6641500Y48886999D01*
X6624619Y48824000D01*
X6565473Y48721556D01*
X6506458Y48539928D01*
X6505768Y48533367D01*
X6505768Y48533365D01*
X6489548Y48379035D01*
X6486496Y48350000D01*
X6487186Y48343435D01*
X6496550Y48254346D01*
X6506458Y48160072D01*
X6565473Y47978444D01*
X6593808Y47929367D01*
X6610545Y47860375D01*
X6593807Y47803370D01*
X6546958Y47722225D01*
X6487943Y47540597D01*
X6487253Y47534036D01*
X6487253Y47534034D01*
X6481516Y47479446D01*
X6467981Y47350669D01*
X6468671Y47344104D01*
X6484216Y47196206D01*
X6487943Y47160741D01*
X6546958Y46979113D01*
X6550261Y46973391D01*
X6550262Y46973390D01*
X6566276Y46945654D01*
X6642445Y46813725D01*
X6646863Y46808818D01*
X6646864Y46808817D01*
X6651387Y46803794D01*
X6770232Y46671803D01*
X6837787Y46622721D01*
X6893169Y46582484D01*
X6924733Y46559551D01*
X6930761Y46556867D01*
X6930763Y46556866D01*
X7091724Y46485202D01*
X7099197Y46481875D01*
X7187733Y46463056D01*
X7279541Y46443541D01*
X7279546Y46443541D01*
X7285998Y46442169D01*
X7476972Y46442169D01*
X7483424Y46443541D01*
X7483429Y46443541D01*
X7575237Y46463056D01*
X7663773Y46481875D01*
X7671246Y46485202D01*
X7832207Y46556866D01*
X7832209Y46556867D01*
X7838237Y46559551D01*
X7869802Y46582484D01*
X7925183Y46622721D01*
X7992738Y46671803D01*
X8111583Y46803794D01*
X8116106Y46808817D01*
X8116107Y46808818D01*
X8120525Y46813725D01*
X8123824Y46819438D01*
X8123827Y46819443D01*
X8131381Y46832528D01*
X8182764Y46881521D01*
X8252477Y46894957D01*
X8318388Y46868570D01*
X8359570Y46810738D01*
X8366500Y46769528D01*
X8366500Y31861111D01*
X8365243Y31843356D01*
X8361987Y31820480D01*
X8361847Y31807116D01*
X8362342Y31803028D01*
X8362342Y31803021D01*
X8364827Y31782485D01*
X8365351Y31777235D01*
X8376996Y31629248D01*
X8418645Y31455760D01*
X8420540Y31451184D01*
X8420541Y31451182D01*
X8456126Y31365271D01*
X8486920Y31290924D01*
X8489506Y31286704D01*
X8489509Y31286698D01*
X8532765Y31216109D01*
X8580141Y31138797D01*
X8583355Y31135034D01*
X8583357Y31135031D01*
X8626572Y31084432D01*
X8634305Y31073611D01*
X8637866Y31069020D01*
X8641905Y31062191D01*
X8660306Y31043790D01*
X8671972Y31030347D01*
X8685850Y31011863D01*
X8695201Y31002315D01*
X8719713Y30983095D01*
X8731053Y30973043D01*
X9525636Y30178460D01*
X9559662Y30116148D01*
X9559060Y30059951D01*
X9505465Y29836711D01*
X9486835Y29600000D01*
X9505465Y29363289D01*
X9560895Y29132406D01*
X9651760Y28913037D01*
X9654346Y28908817D01*
X9773241Y28714798D01*
X9773245Y28714792D01*
X9775824Y28710584D01*
X9930031Y28530031D01*
X10110584Y28375824D01*
X10114792Y28373245D01*
X10114798Y28373241D01*
X10308817Y28254346D01*
X10313037Y28251760D01*
X10317607Y28249867D01*
X10317611Y28249865D01*
X10398382Y28216409D01*
X10453663Y28171861D01*
X10476084Y28104497D01*
X10458526Y28035706D01*
X10406564Y27987328D01*
X10398382Y27983591D01*
X10317611Y27950135D01*
X10317607Y27950133D01*
X10313037Y27948240D01*
X10308817Y27945654D01*
X10114798Y27826759D01*
X10114792Y27826755D01*
X10110584Y27824176D01*
X9930031Y27669969D01*
X9775824Y27489416D01*
X9773245Y27485208D01*
X9773241Y27485202D01*
X9654346Y27291183D01*
X9651760Y27286963D01*
X9560895Y27067594D01*
X9505465Y26836711D01*
X9486835Y26600000D01*
X9505465Y26363289D01*
X9560895Y26132406D01*
X9651760Y25913037D01*
X9654346Y25908817D01*
X9773241Y25714798D01*
X9773245Y25714792D01*
X9775824Y25710584D01*
X9930031Y25530031D01*
X10110584Y25375824D01*
X10114792Y25373245D01*
X10114798Y25373241D01*
X10308817Y25254346D01*
X10313037Y25251760D01*
X10317607Y25249867D01*
X10317611Y25249865D01*
X10527833Y25162789D01*
X10532406Y25160895D01*
X10612609Y25141640D01*
X10758476Y25106620D01*
X10758482Y25106619D01*
X10763289Y25105465D01*
X11000000Y25086835D01*
X11236711Y25105465D01*
X11241518Y25106619D01*
X11241524Y25106620D01*
X11387391Y25141640D01*
X11467594Y25160895D01*
X11472167Y25162789D01*
X11682389Y25249865D01*
X11682393Y25249867D01*
X11686963Y25251760D01*
X11691183Y25254346D01*
X11885202Y25373241D01*
X11885208Y25373245D01*
X11889416Y25375824D01*
X12069969Y25530031D01*
X12224176Y25710584D01*
X12226755Y25714792D01*
X12226759Y25714798D01*
X12345654Y25908817D01*
X12348240Y25913037D01*
X12439105Y26132406D01*
X12494535Y26363289D01*
X12513165Y26600000D01*
X12494535Y26836711D01*
X12439105Y27067594D01*
X12348240Y27286963D01*
X12345654Y27291183D01*
X12226759Y27485202D01*
X12226755Y27485208D01*
X12224176Y27489416D01*
X12069969Y27669969D01*
X11889416Y27824176D01*
X11885208Y27826755D01*
X11885202Y27826759D01*
X11691183Y27945654D01*
X11686963Y27948240D01*
X11682393Y27950133D01*
X11682389Y27950135D01*
X11601618Y27983591D01*
X11546337Y28028139D01*
X11523916Y28095503D01*
X11541474Y28164294D01*
X11593436Y28212672D01*
X11601618Y28216409D01*
X11682389Y28249865D01*
X11682393Y28249867D01*
X11686963Y28251760D01*
X11691183Y28254346D01*
X11885202Y28373241D01*
X11885208Y28373245D01*
X11889416Y28375824D01*
X12069969Y28530031D01*
X12224176Y28710584D01*
X12226755Y28714792D01*
X12226759Y28714798D01*
X12345654Y28908817D01*
X12348240Y28913037D01*
X12439105Y29132406D01*
X12494535Y29363289D01*
X12513165Y29600000D01*
X12494535Y29836711D01*
X12439105Y30067594D01*
X12428635Y30092872D01*
X12350135Y30282389D01*
X12350133Y30282393D01*
X12348240Y30286963D01*
X12345654Y30291183D01*
X12226759Y30485202D01*
X12226755Y30485208D01*
X12224176Y30489416D01*
X12069969Y30669969D01*
X11889416Y30824176D01*
X11885208Y30826755D01*
X11885202Y30826759D01*
X11691183Y30945654D01*
X11686963Y30948240D01*
X11682393Y30950133D01*
X11682389Y30950135D01*
X11562003Y31000000D01*
X14936496Y31000000D01*
X14937186Y30993435D01*
X14954976Y30824176D01*
X14956458Y30810072D01*
X15015473Y30628444D01*
X15110960Y30463056D01*
X15238747Y30321134D01*
X15393248Y30208882D01*
X15399276Y30206198D01*
X15399278Y30206197D01*
X15516978Y30153794D01*
X15567712Y30131206D01*
X15661113Y30111353D01*
X15748056Y30092872D01*
X15748061Y30092872D01*
X15754513Y30091500D01*
X15945487Y30091500D01*
X15951939Y30092872D01*
X15951944Y30092872D01*
X16038887Y30111353D01*
X16132288Y30131206D01*
X16183022Y30153794D01*
X16300722Y30206197D01*
X16300724Y30206198D01*
X16306752Y30208882D01*
X16461253Y30321134D01*
X16589040Y30463056D01*
X16684527Y30628444D01*
X16743542Y30810072D01*
X16745025Y30824176D01*
X16762814Y30993435D01*
X16763504Y31000000D01*
X16754630Y31084432D01*
X16744232Y31183365D01*
X16744232Y31183367D01*
X16743542Y31189928D01*
X16684527Y31371556D01*
X16589040Y31536944D01*
X16461253Y31678866D01*
X16322238Y31779867D01*
X16312094Y31787237D01*
X16312093Y31787238D01*
X16306752Y31791118D01*
X16300724Y31793802D01*
X16300722Y31793803D01*
X16138319Y31866109D01*
X16138318Y31866109D01*
X16132288Y31868794D01*
X16016362Y31893435D01*
X15951944Y31907128D01*
X15951939Y31907128D01*
X15945487Y31908500D01*
X15754513Y31908500D01*
X15748061Y31907128D01*
X15748056Y31907128D01*
X15683638Y31893435D01*
X15567712Y31868794D01*
X15561682Y31866109D01*
X15561681Y31866109D01*
X15399278Y31793803D01*
X15399276Y31793802D01*
X15393248Y31791118D01*
X15387907Y31787238D01*
X15387906Y31787237D01*
X15377762Y31779867D01*
X15238747Y31678866D01*
X15110960Y31536944D01*
X15015473Y31371556D01*
X14956458Y31189928D01*
X14955768Y31183367D01*
X14955768Y31183365D01*
X14945370Y31084432D01*
X14936496Y31000000D01*
X11562003Y31000000D01*
X11472167Y31037211D01*
X11472165Y31037212D01*
X11467594Y31039105D01*
X11371434Y31062191D01*
X11241524Y31093380D01*
X11241518Y31093381D01*
X11236711Y31094535D01*
X11000000Y31113165D01*
X10763289Y31094535D01*
X10758482Y31093381D01*
X10758476Y31093380D01*
X10628566Y31062191D01*
X10540049Y31040940D01*
X10469142Y31044487D01*
X10421540Y31074364D01*
X9670404Y31825501D01*
X9636379Y31887813D01*
X9633500Y31914596D01*
X9633500Y33600000D01*
X15736835Y33600000D01*
X15755465Y33363289D01*
X15810895Y33132406D01*
X15901760Y32913037D01*
X15904346Y32908817D01*
X16023241Y32714798D01*
X16023245Y32714792D01*
X16025824Y32710584D01*
X16180031Y32530031D01*
X16360584Y32375824D01*
X16364792Y32373245D01*
X16364798Y32373241D01*
X16521394Y32277279D01*
X16563037Y32251760D01*
X16567607Y32249867D01*
X16567611Y32249865D01*
X16777833Y32162789D01*
X16782406Y32160895D01*
X16862609Y32141640D01*
X17008476Y32106620D01*
X17008482Y32106619D01*
X17013289Y32105465D01*
X17250000Y32086835D01*
X17486711Y32105465D01*
X17491518Y32106619D01*
X17491524Y32106620D01*
X17637391Y32141640D01*
X17717594Y32160895D01*
X17722167Y32162789D01*
X17932389Y32249865D01*
X17932393Y32249867D01*
X17936963Y32251760D01*
X18047904Y32319745D01*
X18116437Y32338283D01*
X18184114Y32316827D01*
X18229447Y32262188D01*
X18238044Y32191713D01*
X18233572Y32173376D01*
X18206458Y32089928D01*
X18186496Y31900000D01*
X18206458Y31710072D01*
X18265473Y31528444D01*
X18360960Y31363056D01*
X18365378Y31358149D01*
X18365379Y31358148D01*
X18456338Y31257128D01*
X18488747Y31221134D01*
X18643248Y31108882D01*
X18649276Y31106198D01*
X18649278Y31106197D01*
X18804224Y31037211D01*
X18817712Y31031206D01*
X18884734Y31016960D01*
X18998056Y30992872D01*
X18998061Y30992872D01*
X19004513Y30991500D01*
X19195487Y30991500D01*
X19201939Y30992872D01*
X19201944Y30992872D01*
X19315266Y31016960D01*
X19382288Y31031206D01*
X19395776Y31037211D01*
X19550722Y31106197D01*
X19550724Y31106198D01*
X19556752Y31108882D01*
X19711253Y31221134D01*
X19743662Y31257128D01*
X19834621Y31358148D01*
X19834622Y31358149D01*
X19839040Y31363056D01*
X19934527Y31528444D01*
X19993542Y31710072D01*
X20013504Y31900000D01*
X19993542Y32089928D01*
X19934527Y32271556D01*
X19839040Y32436944D01*
X19711253Y32578866D01*
X19556752Y32691118D01*
X19550724Y32693802D01*
X19550722Y32693803D01*
X19388319Y32766109D01*
X19388318Y32766109D01*
X19382288Y32768794D01*
X19288888Y32788647D01*
X19201944Y32807128D01*
X19201939Y32807128D01*
X19195487Y32808500D01*
X19004513Y32808500D01*
X18998061Y32807128D01*
X18998056Y32807128D01*
X18911112Y32788647D01*
X18817712Y32768794D01*
X18811679Y32766108D01*
X18811673Y32766106D01*
X18763271Y32744556D01*
X18692904Y32735121D01*
X18628607Y32765227D01*
X18590794Y32825316D01*
X18591469Y32896309D01*
X18598157Y32912901D01*
X18598240Y32913037D01*
X18689105Y33132406D01*
X18744535Y33363289D01*
X18763165Y33600000D01*
X18744535Y33836711D01*
X18689105Y34067594D01*
X18598240Y34286963D01*
X18595654Y34291183D01*
X18476759Y34485202D01*
X18476755Y34485208D01*
X18474176Y34489416D01*
X18319969Y34669969D01*
X18139416Y34824176D01*
X18135208Y34826755D01*
X18135202Y34826759D01*
X17941183Y34945654D01*
X17936963Y34948240D01*
X17932393Y34950133D01*
X17932389Y34950135D01*
X17722167Y35037211D01*
X17722165Y35037212D01*
X17717594Y35039105D01*
X17637391Y35058360D01*
X17491524Y35093380D01*
X17491518Y35093381D01*
X17486711Y35094535D01*
X17250000Y35113165D01*
X17013289Y35094535D01*
X17008482Y35093381D01*
X17008476Y35093380D01*
X16862609Y35058360D01*
X16782406Y35039105D01*
X16777835Y35037212D01*
X16777833Y35037211D01*
X16567611Y34950135D01*
X16567607Y34950133D01*
X16563037Y34948240D01*
X16558817Y34945654D01*
X16364798Y34826759D01*
X16364792Y34826755D01*
X16360584Y34824176D01*
X16180031Y34669969D01*
X16025824Y34489416D01*
X16023245Y34485208D01*
X16023241Y34485202D01*
X15904346Y34291183D01*
X15901760Y34286963D01*
X15810895Y34067594D01*
X15755465Y33836711D01*
X15736835Y33600000D01*
X9633500Y33600000D01*
X9633500Y38600000D01*
X15736835Y38600000D01*
X15755465Y38363289D01*
X15810895Y38132406D01*
X15901760Y37913037D01*
X15904346Y37908817D01*
X16023241Y37714798D01*
X16023245Y37714792D01*
X16025824Y37710584D01*
X16180031Y37530031D01*
X16360584Y37375824D01*
X16364792Y37373245D01*
X16364798Y37373241D01*
X16558817Y37254346D01*
X16563037Y37251760D01*
X16567607Y37249867D01*
X16567611Y37249865D01*
X16777833Y37162789D01*
X16782406Y37160895D01*
X16862609Y37141640D01*
X17008476Y37106620D01*
X17008482Y37106619D01*
X17013289Y37105465D01*
X17250000Y37086835D01*
X17486711Y37105465D01*
X17491518Y37106619D01*
X17491524Y37106620D01*
X17637391Y37141640D01*
X17717594Y37160895D01*
X17722167Y37162789D01*
X17932389Y37249865D01*
X17932393Y37249867D01*
X17936963Y37251760D01*
X17941183Y37254346D01*
X18135202Y37373241D01*
X18135208Y37373245D01*
X18139416Y37375824D01*
X18319969Y37530031D01*
X18474176Y37710584D01*
X18476755Y37714792D01*
X18476759Y37714798D01*
X18595654Y37908817D01*
X18598240Y37913037D01*
X18689105Y38132406D01*
X18744535Y38363289D01*
X18763165Y38600000D01*
X18744535Y38836711D01*
X18689105Y39067594D01*
X18598240Y39286963D01*
X18595654Y39291183D01*
X18476759Y39485202D01*
X18476755Y39485208D01*
X18474176Y39489416D01*
X18319969Y39669969D01*
X18139416Y39824176D01*
X18135208Y39826755D01*
X18135202Y39826759D01*
X17941183Y39945654D01*
X17936963Y39948240D01*
X17932393Y39950133D01*
X17932389Y39950135D01*
X17722167Y40037211D01*
X17722165Y40037212D01*
X17717594Y40039105D01*
X17637391Y40058360D01*
X17491524Y40093380D01*
X17491518Y40093381D01*
X17486711Y40094535D01*
X17250000Y40113165D01*
X17013289Y40094535D01*
X17008482Y40093381D01*
X17008476Y40093380D01*
X16862609Y40058360D01*
X16782406Y40039105D01*
X16777835Y40037212D01*
X16777833Y40037211D01*
X16567611Y39950135D01*
X16567607Y39950133D01*
X16563037Y39948240D01*
X16558817Y39945654D01*
X16364798Y39826759D01*
X16364792Y39826755D01*
X16360584Y39824176D01*
X16180031Y39669969D01*
X16025824Y39489416D01*
X16023245Y39485208D01*
X16023241Y39485202D01*
X15904346Y39291183D01*
X15901760Y39286963D01*
X15810895Y39067594D01*
X15755465Y38836711D01*
X15736835Y38600000D01*
X9633500Y38600000D01*
X9633500Y41535686D01*
X9653502Y41603807D01*
X9707158Y41650300D01*
X9777432Y41660404D01*
X9842012Y41630910D01*
X9855311Y41617516D01*
X9926818Y41533792D01*
X9926823Y41533787D01*
X9930031Y41530031D01*
X10110584Y41375824D01*
X10114792Y41373245D01*
X10114798Y41373241D01*
X10308817Y41254346D01*
X10313037Y41251760D01*
X10317607Y41249867D01*
X10317611Y41249865D01*
X10527833Y41162789D01*
X10532406Y41160895D01*
X10612609Y41141640D01*
X10758476Y41106620D01*
X10758482Y41106619D01*
X10763289Y41105465D01*
X11000000Y41086835D01*
X11236711Y41105465D01*
X11241518Y41106619D01*
X11241524Y41106620D01*
X11387391Y41141640D01*
X11467594Y41160895D01*
X11472167Y41162789D01*
X11682389Y41249865D01*
X11682393Y41249867D01*
X11686963Y41251760D01*
X11691183Y41254346D01*
X11885202Y41373241D01*
X11885208Y41373245D01*
X11889416Y41375824D01*
X12069969Y41530031D01*
X12224176Y41710584D01*
X12226755Y41714792D01*
X12226759Y41714798D01*
X12345654Y41908817D01*
X12348240Y41913037D01*
X12439105Y42132406D01*
X12494535Y42363289D01*
X12513165Y42600000D01*
X12494535Y42836711D01*
X12489389Y42858148D01*
X12440260Y43062782D01*
X12439105Y43067594D01*
X12437211Y43072167D01*
X12350135Y43282389D01*
X12350133Y43282393D01*
X12348240Y43286963D01*
X12282994Y43393435D01*
X12226759Y43485202D01*
X12226755Y43485208D01*
X12224176Y43489416D01*
X12069969Y43669969D01*
X12066213Y43673177D01*
X11973015Y43752776D01*
X11934206Y43812227D01*
X11933700Y43883222D01*
X11971656Y43943220D01*
X12036025Y43973173D01*
X12064729Y43974199D01*
X12100520Y43971382D01*
X12113636Y43969199D01*
X12119400Y43968471D01*
X12127077Y43966500D01*
X12153120Y43966500D01*
X12170873Y43965243D01*
X12189668Y43962568D01*
X12189671Y43962568D01*
X12193752Y43961987D01*
X12199967Y43961922D01*
X12202982Y43961890D01*
X12202987Y43961890D01*
X12207116Y43961847D01*
X12238018Y43965587D01*
X12253157Y43966500D01*
X12659786Y43966500D01*
X12727907Y43946498D01*
X12774400Y43892842D01*
X12784504Y43822568D01*
X12770987Y43783518D01*
X12771461Y43783307D01*
X12769004Y43777787D01*
X12768903Y43777497D01*
X12765473Y43771556D01*
X12706458Y43589928D01*
X12705768Y43583367D01*
X12705768Y43583365D01*
X12701543Y43543167D01*
X12686496Y43400000D01*
X12687186Y43393435D01*
X12698377Y43286963D01*
X12706458Y43210072D01*
X12765473Y43028444D01*
X12860960Y42863056D01*
X12988747Y42721134D01*
X13143248Y42608882D01*
X13149276Y42606198D01*
X13149278Y42606197D01*
X13152124Y42604930D01*
X13317712Y42531206D01*
X13411112Y42511353D01*
X13498056Y42492872D01*
X13498061Y42492872D01*
X13504513Y42491500D01*
X13695487Y42491500D01*
X13701939Y42492872D01*
X13701944Y42492872D01*
X13788888Y42511353D01*
X13882288Y42531206D01*
X14047876Y42604930D01*
X14050722Y42606197D01*
X14050724Y42606198D01*
X14056752Y42608882D01*
X14211253Y42721134D01*
X14339040Y42863056D01*
X14434527Y43028444D01*
X14493542Y43210072D01*
X14501624Y43286963D01*
X14512814Y43393435D01*
X14513504Y43400000D01*
X14498457Y43543167D01*
X14494232Y43583365D01*
X14494232Y43583367D01*
X14493542Y43589928D01*
X14434527Y43771556D01*
X14431097Y43777497D01*
X14431063Y43777639D01*
X14428539Y43783307D01*
X14429575Y43783768D01*
X14414357Y43846492D01*
X14437575Y43913584D01*
X14493381Y43957473D01*
X14540214Y43966500D01*
X14738889Y43966500D01*
X14756645Y43965243D01*
X14779520Y43961987D01*
X14786432Y43961915D01*
X14788764Y43961890D01*
X14788766Y43961890D01*
X14792884Y43961847D01*
X14796992Y43962344D01*
X14799632Y43962664D01*
X14817391Y43964813D01*
X14822618Y43965335D01*
X14970752Y43976991D01*
X15144241Y44018640D01*
X15148817Y44020535D01*
X15148819Y44020536D01*
X15304500Y44085019D01*
X15304504Y44085021D01*
X15309079Y44086916D01*
X15313299Y44089502D01*
X15313305Y44089505D01*
X15447700Y44171861D01*
X15461206Y44180137D01*
X15469288Y44187039D01*
X15515593Y44226587D01*
X15526355Y44234277D01*
X15530989Y44237872D01*
X15537809Y44241905D01*
X15556210Y44260306D01*
X15569653Y44271972D01*
X15584837Y44283372D01*
X15584840Y44283375D01*
X15588137Y44285850D01*
X15596472Y44294013D01*
X15659134Y44327385D01*
X15729893Y44321582D01*
X15778268Y44288303D01*
X15838747Y44221134D01*
X15993248Y44108882D01*
X15999276Y44106198D01*
X15999278Y44106197D01*
X16161681Y44033891D01*
X16167712Y44031206D01*
X16232269Y44017484D01*
X16348056Y43992872D01*
X16348061Y43992872D01*
X16354513Y43991500D01*
X16545487Y43991500D01*
X16551939Y43992872D01*
X16551944Y43992872D01*
X16667731Y44017484D01*
X16732288Y44031206D01*
X16738319Y44033891D01*
X16900722Y44106197D01*
X16900724Y44106198D01*
X16906752Y44108882D01*
X17061253Y44221134D01*
X17085003Y44247511D01*
X17184621Y44358148D01*
X17184622Y44358149D01*
X17189040Y44363056D01*
X17284527Y44528444D01*
X17343542Y44710072D01*
X17363504Y44900000D01*
X17343542Y45089928D01*
X17284527Y45271556D01*
X17192875Y45430302D01*
X17176137Y45499296D01*
X17192875Y45556301D01*
X17231223Y45622721D01*
X17231224Y45622722D01*
X17234527Y45628444D01*
X17293542Y45810072D01*
X17313504Y46000000D01*
X17293542Y46189928D01*
X17234527Y46371556D01*
X17139040Y46536944D01*
X17115793Y46562763D01*
X17015675Y46673955D01*
X17015674Y46673956D01*
X17011253Y46678866D01*
X16856752Y46791118D01*
X16850724Y46793802D01*
X16850722Y46793803D01*
X16688319Y46866109D01*
X16688318Y46866109D01*
X16682288Y46868794D01*
X16588888Y46888647D01*
X16501944Y46907128D01*
X16501939Y46907128D01*
X16495487Y46908500D01*
X16304513Y46908500D01*
X16298061Y46907128D01*
X16298056Y46907128D01*
X16211112Y46888647D01*
X16117712Y46868794D01*
X16111682Y46866109D01*
X16111681Y46866109D01*
X15949278Y46793803D01*
X15949276Y46793802D01*
X15943248Y46791118D01*
X15788747Y46678866D01*
X15784326Y46673956D01*
X15784325Y46673955D01*
X15684208Y46562763D01*
X15660960Y46536944D01*
X15565473Y46371556D01*
X15506458Y46189928D01*
X15505768Y46183367D01*
X15505768Y46183365D01*
X15489093Y46024708D01*
X15462080Y45959051D01*
X15452878Y45948782D01*
X14774499Y45270404D01*
X14712187Y45236379D01*
X14685404Y45233500D01*
X14635094Y45233500D01*
X14566973Y45253502D01*
X14520480Y45307158D01*
X14510376Y45377432D01*
X14515262Y45398438D01*
X14517002Y45403792D01*
X14517003Y45403797D01*
X14519042Y45410072D01*
X14521867Y45436944D01*
X14538314Y45593435D01*
X14539004Y45600000D01*
X14524479Y45738201D01*
X14519732Y45783365D01*
X14519732Y45783367D01*
X14519042Y45789928D01*
X14460027Y45971556D01*
X14364540Y46136944D01*
X14322743Y46183365D01*
X14318137Y46188480D01*
X14287419Y46252487D01*
X14296184Y46322941D01*
X14318135Y46357098D01*
X14371219Y46416053D01*
X14431664Y46453292D01*
X14491050Y46454989D01*
X14541735Y46444216D01*
X14554513Y46441500D01*
X14745487Y46441500D01*
X14751939Y46442872D01*
X14751944Y46442872D01*
X14846899Y46463056D01*
X14932288Y46481206D01*
X14938319Y46483891D01*
X15100722Y46556197D01*
X15100724Y46556198D01*
X15106752Y46558882D01*
X15137366Y46581124D01*
X15251866Y46664314D01*
X15261253Y46671134D01*
X15349847Y46769528D01*
X15384621Y46808148D01*
X15384622Y46808149D01*
X15389040Y46813056D01*
X15484527Y46978444D01*
X15543542Y47160072D01*
X15544665Y47170752D01*
X15562814Y47343435D01*
X15563504Y47350000D01*
X15546785Y47509077D01*
X15544232Y47533365D01*
X15544232Y47533367D01*
X15543542Y47539928D01*
X15484527Y47721556D01*
X15471742Y47743700D01*
X15455005Y47812695D01*
X15471743Y47869699D01*
X15531223Y47972721D01*
X15531224Y47972722D01*
X15534527Y47978444D01*
X15593542Y48160072D01*
X15603451Y48254346D01*
X15612814Y48343435D01*
X15613504Y48350000D01*
X15610452Y48379035D01*
X15594232Y48533365D01*
X15594232Y48533367D01*
X15593542Y48539928D01*
X15534527Y48721556D01*
X15439040Y48886944D01*
X15419346Y48908817D01*
X15315675Y49023955D01*
X15315674Y49023956D01*
X15311253Y49028866D01*
X15156752Y49141118D01*
X15150724Y49143802D01*
X15150722Y49143803D01*
X14988319Y49216109D01*
X14988318Y49216109D01*
X14982288Y49218794D01*
X14888887Y49238647D01*
X14801944Y49257128D01*
X14801939Y49257128D01*
X14795487Y49258500D01*
X14604513Y49258500D01*
X14598061Y49257128D01*
X14598056Y49257128D01*
X14511113Y49238647D01*
X14417712Y49218794D01*
X14411682Y49216109D01*
X14411681Y49216109D01*
X14249278Y49143803D01*
X14249276Y49143802D01*
X14243248Y49141118D01*
X14088747Y49028866D01*
X14084332Y49023963D01*
X14079420Y49019540D01*
X14078295Y49020789D01*
X14024986Y48987949D01*
X13991800Y48983500D01*
X10411111Y48983500D01*
X10393356Y48984757D01*
X10390433Y48985173D01*
X10370480Y48988013D01*
X10363993Y48988081D01*
X10361242Y48988110D01*
X10361239Y48988110D01*
X10357116Y48988153D01*
X10353028Y48987658D01*
X10353021Y48987658D01*
X10332485Y48985173D01*
X10327235Y48984649D01*
X10291719Y48981854D01*
X10179248Y48973004D01*
X10005760Y48931355D01*
X10001184Y48929460D01*
X10001182Y48929459D01*
X9845503Y48864977D01*
X9845499Y48864975D01*
X9840924Y48863080D01*
X9836704Y48860494D01*
X9836698Y48860491D01*
X9724332Y48791634D01*
X9688797Y48769859D01*
X9662682Y48747555D01*
X9634431Y48723428D01*
X9623586Y48715677D01*
X9619016Y48712132D01*
X9612190Y48708095D01*
X9593786Y48689691D01*
X9580343Y48678025D01*
X9561863Y48664150D01*
X9552315Y48654799D01*
X9549771Y48651554D01*
X9533105Y48630300D01*
X9523047Y48618952D01*
X8736670Y47832575D01*
X8723229Y47820911D01*
X8712287Y47812695D01*
X8704747Y47807034D01*
X8695199Y47797683D01*
X8692658Y47794442D01*
X8680039Y47778349D01*
X8676709Y47774280D01*
X8580136Y47661204D01*
X8497946Y47527078D01*
X8445300Y47479446D01*
X8375258Y47467839D01*
X8310060Y47495941D01*
X8270680Y47553975D01*
X8237210Y47656986D01*
X8216012Y47722225D01*
X8187677Y47771302D01*
X8170940Y47840294D01*
X8187678Y47897300D01*
X8231223Y47972721D01*
X8231224Y47972722D01*
X8234527Y47978444D01*
X8293542Y48160072D01*
X8303451Y48254346D01*
X8312814Y48343435D01*
X8313504Y48350000D01*
X8310452Y48379035D01*
X8294232Y48533365D01*
X8294232Y48533367D01*
X8293542Y48539928D01*
X8234527Y48721556D01*
X8175381Y48824000D01*
X8158500Y48886999D01*
X8158500Y49600000D01*
X15736835Y49600000D01*
X15755465Y49363289D01*
X15756619Y49358482D01*
X15756620Y49358476D01*
X15780952Y49257128D01*
X15810895Y49132406D01*
X15812788Y49127835D01*
X15812789Y49127833D01*
X15894958Y48929459D01*
X15901760Y48913037D01*
X15904346Y48908817D01*
X16023241Y48714798D01*
X16023245Y48714792D01*
X16025824Y48710584D01*
X16180031Y48530031D01*
X16360584Y48375824D01*
X16364792Y48373245D01*
X16364798Y48373241D01*
X16558817Y48254346D01*
X16563037Y48251760D01*
X16567607Y48249867D01*
X16567611Y48249865D01*
X16768548Y48166635D01*
X16782406Y48160895D01*
X16862609Y48141640D01*
X17008476Y48106620D01*
X17008482Y48106619D01*
X17013289Y48105465D01*
X17250000Y48086835D01*
X17486711Y48105465D01*
X17491518Y48106619D01*
X17491524Y48106620D01*
X17637391Y48141640D01*
X17717594Y48160895D01*
X17731452Y48166635D01*
X17932389Y48249865D01*
X17932393Y48249867D01*
X17936963Y48251760D01*
X17941183Y48254346D01*
X18135202Y48373241D01*
X18135208Y48373245D01*
X18139416Y48375824D01*
X18319969Y48530031D01*
X18474176Y48710584D01*
X18476755Y48714792D01*
X18476759Y48714798D01*
X18595654Y48908817D01*
X18598240Y48913037D01*
X18605043Y48929459D01*
X18687211Y49127833D01*
X18687212Y49127835D01*
X18689105Y49132406D01*
X18719048Y49257128D01*
X18743380Y49358476D01*
X18743381Y49358482D01*
X18744535Y49363289D01*
X18763165Y49600000D01*
X18744535Y49836711D01*
X18689105Y50067594D01*
X18687211Y50072167D01*
X18600135Y50282389D01*
X18600133Y50282393D01*
X18598240Y50286963D01*
X18546087Y50372069D01*
X18476759Y50485202D01*
X18476755Y50485208D01*
X18474176Y50489416D01*
X18319969Y50669969D01*
X18139416Y50824176D01*
X18135208Y50826755D01*
X18135202Y50826759D01*
X17941183Y50945654D01*
X17936963Y50948240D01*
X17932393Y50950133D01*
X17932389Y50950135D01*
X17722167Y51037211D01*
X17722165Y51037212D01*
X17717594Y51039105D01*
X17630260Y51060072D01*
X17491524Y51093380D01*
X17491518Y51093381D01*
X17486711Y51094535D01*
X17250000Y51113165D01*
X17013289Y51094535D01*
X17008482Y51093381D01*
X17008476Y51093380D01*
X16869740Y51060072D01*
X16782406Y51039105D01*
X16777835Y51037212D01*
X16777833Y51037211D01*
X16567611Y50950135D01*
X16567607Y50950133D01*
X16563037Y50948240D01*
X16558817Y50945654D01*
X16364798Y50826759D01*
X16364792Y50826755D01*
X16360584Y50824176D01*
X16180031Y50669969D01*
X16025824Y50489416D01*
X16023245Y50485208D01*
X16023241Y50485202D01*
X15953913Y50372069D01*
X15901760Y50286963D01*
X15899867Y50282393D01*
X15899865Y50282389D01*
X15812789Y50072167D01*
X15810895Y50067594D01*
X15755465Y49836711D01*
X15736835Y49600000D01*
X8158500Y49600000D01*
X8158500Y55133629D01*
X8178502Y55201750D01*
X8195405Y55222724D01*
X9077276Y56104595D01*
X9139588Y56138621D01*
X9166371Y56141500D01*
X15780731Y56141500D01*
X15798269Y56140273D01*
G37*
%TD.AperFunction*%
%TA.AperFunction,Conductor*%
G36*
X20393254Y61471498D02*
G01*
X20439747Y61417842D01*
X20449851Y61347568D01*
X20420357Y61282988D01*
X20376382Y61250393D01*
X20249278Y61193803D01*
X20249276Y61193802D01*
X20243248Y61191118D01*
X20088747Y61078866D01*
X20084326Y61073956D01*
X20084325Y61073955D01*
X20054759Y61041118D01*
X19960960Y60936944D01*
X19865473Y60771556D01*
X19806458Y60589928D01*
X19805768Y60583367D01*
X19805768Y60583365D01*
X19791352Y60446206D01*
X19786496Y60400000D01*
X19787186Y60393435D01*
X19803646Y60236830D01*
X19806458Y60210072D01*
X19865473Y60028444D01*
X19960960Y59863056D01*
X20088747Y59721134D01*
X20243248Y59608882D01*
X20249276Y59606198D01*
X20249278Y59606197D01*
X20411681Y59533891D01*
X20417712Y59531206D01*
X20511112Y59511353D01*
X20598056Y59492872D01*
X20598061Y59492872D01*
X20604513Y59491500D01*
X20795487Y59491500D01*
X20801939Y59492872D01*
X20801944Y59492872D01*
X20888887Y59511353D01*
X20982288Y59531206D01*
X20988319Y59533891D01*
X21150722Y59606197D01*
X21150724Y59606198D01*
X21156752Y59608882D01*
X21225045Y59658500D01*
X21291439Y59706738D01*
X21358307Y59730597D01*
X21427458Y59714516D01*
X21476939Y59663602D01*
X21491500Y59604802D01*
X21491500Y56590746D01*
X21471498Y56522625D01*
X21417842Y56476132D01*
X21347568Y56466028D01*
X21282988Y56495522D01*
X21258067Y56524912D01*
X21223893Y56580679D01*
X21221305Y56584903D01*
X21171902Y56642750D01*
X21160005Y56659200D01*
X21156149Y56665554D01*
X21148751Y56673930D01*
X21133850Y56688831D01*
X21122317Y56702097D01*
X21110530Y56717739D01*
X21108154Y56720892D01*
X21093294Y56736174D01*
X21090202Y56738642D01*
X21090198Y56738646D01*
X21065142Y56758648D01*
X21054657Y56768024D01*
X20576733Y57245948D01*
X20565201Y57259213D01*
X20553420Y57274847D01*
X20553417Y57274851D01*
X20551036Y57278010D01*
X20536176Y57293291D01*
X20516633Y57308892D01*
X20513412Y57311551D01*
X20388666Y57418093D01*
X20388664Y57418095D01*
X20384906Y57421304D01*
X20324220Y57458491D01*
X20220228Y57522217D01*
X20220222Y57522220D01*
X20216002Y57524806D01*
X20211427Y57526701D01*
X20211423Y57526703D01*
X20037557Y57598718D01*
X20037554Y57598719D01*
X20032986Y57600611D01*
X20028179Y57601765D01*
X20028176Y57601766D01*
X19947533Y57621125D01*
X19840366Y57646852D01*
X19835434Y57647240D01*
X19835428Y57647241D01*
X19793348Y57650552D01*
X19764577Y57652816D01*
X19744516Y57656038D01*
X19737283Y57657808D01*
X19731684Y57658155D01*
X19731680Y57658156D01*
X19728068Y57658380D01*
X19728058Y57658380D01*
X19726129Y57658500D01*
X19705035Y57658500D01*
X19687502Y57659726D01*
X19668111Y57662451D01*
X19668106Y57662451D01*
X19664195Y57663001D01*
X19655630Y57663121D01*
X19646843Y57663244D01*
X19646837Y57663244D01*
X19642882Y57663299D01*
X19607100Y57659285D01*
X19593054Y57658500D01*
X18274867Y57658500D01*
X18206746Y57678502D01*
X18160253Y57732158D01*
X18150149Y57802432D01*
X18179643Y57867012D01*
X18223618Y57899607D01*
X18350722Y57956197D01*
X18350724Y57956198D01*
X18356752Y57958882D01*
X18374117Y57971498D01*
X18479734Y58048234D01*
X18511253Y58071134D01*
X18562305Y58127833D01*
X18634621Y58208148D01*
X18634622Y58208149D01*
X18639040Y58213056D01*
X18721978Y58356709D01*
X18731223Y58372721D01*
X18731224Y58372722D01*
X18734527Y58378444D01*
X18793542Y58560072D01*
X18797221Y58595070D01*
X18812814Y58743435D01*
X18813504Y58750000D01*
X18804909Y58831777D01*
X18794232Y58933365D01*
X18794232Y58933367D01*
X18793542Y58939928D01*
X18734527Y59121556D01*
X18639040Y59286944D01*
X18511253Y59428866D01*
X18401647Y59508500D01*
X18362094Y59537237D01*
X18362093Y59537238D01*
X18356752Y59541118D01*
X18350724Y59543802D01*
X18350722Y59543803D01*
X18188319Y59616109D01*
X18188318Y59616109D01*
X18182288Y59618794D01*
X18088888Y59638647D01*
X18001944Y59657128D01*
X18001939Y59657128D01*
X17995487Y59658500D01*
X17804513Y59658500D01*
X17798061Y59657128D01*
X17798056Y59657128D01*
X17711112Y59638647D01*
X17617712Y59618794D01*
X17611682Y59616109D01*
X17611681Y59616109D01*
X17449278Y59543803D01*
X17449276Y59543802D01*
X17443248Y59541118D01*
X17437909Y59537239D01*
X17437902Y59537235D01*
X17431472Y59532563D01*
X17357413Y59508500D01*
X13866371Y59508500D01*
X13798250Y59528502D01*
X13777276Y59545405D01*
X12920125Y60402556D01*
X12889387Y60452715D01*
X12878102Y60487448D01*
X12834527Y60621556D01*
X12739040Y60786944D01*
X12611253Y60928866D01*
X12456752Y61041118D01*
X12450724Y61043802D01*
X12450722Y61043803D01*
X12288319Y61116109D01*
X12288318Y61116109D01*
X12282288Y61118794D01*
X12188887Y61138647D01*
X12101944Y61157128D01*
X12101939Y61157128D01*
X12095487Y61158500D01*
X11904513Y61158500D01*
X11898061Y61157128D01*
X11898056Y61157128D01*
X11811113Y61138647D01*
X11717712Y61118794D01*
X11711682Y61116109D01*
X11711681Y61116109D01*
X11549278Y61043803D01*
X11549276Y61043802D01*
X11543248Y61041118D01*
X11388747Y60928866D01*
X11260960Y60786944D01*
X11165473Y60621556D01*
X11106458Y60439928D01*
X11086496Y60250000D01*
X11087186Y60243435D01*
X11087186Y60236830D01*
X11084206Y60236830D01*
X11073694Y60179710D01*
X11025135Y60127917D01*
X10971106Y60110891D01*
X10938973Y60108362D01*
X10763289Y60094535D01*
X10758482Y60093381D01*
X10758476Y60093380D01*
X10612609Y60058360D01*
X10532406Y60039105D01*
X10527835Y60037212D01*
X10527833Y60037211D01*
X10317611Y59950135D01*
X10317607Y59950133D01*
X10313037Y59948240D01*
X10308817Y59945654D01*
X10114798Y59826759D01*
X10114792Y59826755D01*
X10110584Y59824176D01*
X9930031Y59669969D01*
X9926823Y59666213D01*
X9919064Y59657128D01*
X9775824Y59489416D01*
X9773245Y59485208D01*
X9773241Y59485202D01*
X9735709Y59423955D01*
X9651760Y59286963D01*
X9649867Y59282393D01*
X9649865Y59282389D01*
X9580643Y59115271D01*
X9560895Y59067594D01*
X9559740Y59062782D01*
X9528670Y58933365D01*
X9505465Y58836711D01*
X9486835Y58600000D01*
X9505465Y58363289D01*
X9506619Y58358482D01*
X9506620Y58358476D01*
X9537007Y58231907D01*
X9560895Y58132406D01*
X9562788Y58127835D01*
X9562789Y58127833D01*
X9649770Y57917842D01*
X9651760Y57913037D01*
X9654346Y57908817D01*
X9690184Y57850335D01*
X9708722Y57781802D01*
X9687266Y57714125D01*
X9632627Y57668792D01*
X9582751Y57658500D01*
X8867070Y57658500D01*
X8848120Y57659933D01*
X8833885Y57662099D01*
X8833881Y57662099D01*
X8826651Y57663199D01*
X8819359Y57662606D01*
X8819356Y57662606D01*
X8773982Y57658915D01*
X8763767Y57658500D01*
X7142587Y57658500D01*
X7068528Y57682563D01*
X7062098Y57687235D01*
X7062091Y57687239D01*
X7056752Y57691118D01*
X7050724Y57693802D01*
X7050722Y57693803D01*
X6888319Y57766109D01*
X6888318Y57766109D01*
X6882288Y57768794D01*
X6788887Y57788647D01*
X6701944Y57807128D01*
X6701939Y57807128D01*
X6695487Y57808500D01*
X6504513Y57808500D01*
X6498061Y57807128D01*
X6498056Y57807128D01*
X6411112Y57788647D01*
X6317712Y57768794D01*
X6311682Y57766109D01*
X6311681Y57766109D01*
X6149278Y57693803D01*
X6149276Y57693802D01*
X6143248Y57691118D01*
X6137907Y57687238D01*
X6137906Y57687237D01*
X6098353Y57658500D01*
X5988747Y57578866D01*
X5860960Y57436944D01*
X5765473Y57271556D01*
X5706458Y57089928D01*
X5686496Y56900000D01*
X5687186Y56893435D01*
X5704014Y56733330D01*
X5706458Y56710072D01*
X5765473Y56528444D01*
X5768776Y56522722D01*
X5768777Y56522721D01*
X5795675Y56476132D01*
X5860960Y56363056D01*
X5988747Y56221134D01*
X6087843Y56149136D01*
X6125884Y56121498D01*
X6143248Y56108882D01*
X6149276Y56106198D01*
X6149278Y56106197D01*
X6297140Y56040365D01*
X6317712Y56031206D01*
X6411112Y56011353D01*
X6498056Y55992872D01*
X6498061Y55992872D01*
X6504513Y55991500D01*
X6638611Y55991500D01*
X6706732Y55971498D01*
X6753225Y55917842D01*
X6763329Y55847568D01*
X6755021Y55817286D01*
X6699394Y55682984D01*
X6698238Y55678170D01*
X6698238Y55678169D01*
X6671981Y55568794D01*
X6653152Y55490364D01*
X6652764Y55485431D01*
X6647192Y55414611D01*
X6643968Y55394542D01*
X6642192Y55387283D01*
X6641500Y55376129D01*
X6641500Y55355034D01*
X6640274Y55337500D01*
X6636999Y55314195D01*
X6636701Y55292882D01*
X6638700Y55275061D01*
X6640715Y55257100D01*
X6641500Y55243054D01*
X6641500Y53168867D01*
X6621498Y53100746D01*
X6567842Y53054253D01*
X6497568Y53044149D01*
X6432988Y53073643D01*
X6394604Y53133369D01*
X6393966Y53135894D01*
X6393542Y53139928D01*
X6334527Y53321556D01*
X6239040Y53486944D01*
X6196863Y53533787D01*
X6115675Y53623955D01*
X6115674Y53623956D01*
X6111253Y53628866D01*
X6105912Y53632746D01*
X6105907Y53632751D01*
X6075983Y53654492D01*
X6032630Y53710714D01*
X6026555Y53781451D01*
X6042611Y53822259D01*
X6098240Y53913037D01*
X6104742Y53928733D01*
X6187211Y54127833D01*
X6187212Y54127835D01*
X6189105Y54132406D01*
X6244535Y54363289D01*
X6263165Y54600000D01*
X6244535Y54836711D01*
X6189105Y55067594D01*
X6133536Y55201750D01*
X6100135Y55282389D01*
X6100133Y55282393D01*
X6098240Y55286963D01*
X6094212Y55293536D01*
X5976759Y55485202D01*
X5976755Y55485208D01*
X5974176Y55489416D01*
X5819969Y55669969D01*
X5639416Y55824176D01*
X5635208Y55826755D01*
X5635202Y55826759D01*
X5441183Y55945654D01*
X5436963Y55948240D01*
X5432393Y55950133D01*
X5432389Y55950135D01*
X5222167Y56037211D01*
X5222165Y56037212D01*
X5217594Y56039105D01*
X5097896Y56067842D01*
X4991524Y56093380D01*
X4991518Y56093381D01*
X4986711Y56094535D01*
X4750000Y56113165D01*
X4513289Y56094535D01*
X4508482Y56093381D01*
X4508476Y56093380D01*
X4402104Y56067842D01*
X4282406Y56039105D01*
X4277835Y56037212D01*
X4277833Y56037211D01*
X4067611Y55950135D01*
X4067607Y55950133D01*
X4063037Y55948240D01*
X4058817Y55945654D01*
X3864798Y55826759D01*
X3864792Y55826755D01*
X3860584Y55824176D01*
X3680031Y55669969D01*
X3525824Y55489416D01*
X3523245Y55485208D01*
X3523241Y55485202D01*
X3405788Y55293536D01*
X3401760Y55286963D01*
X3399867Y55282393D01*
X3399865Y55282389D01*
X3366464Y55201750D01*
X3310895Y55067594D01*
X3255465Y54836711D01*
X3255077Y54831777D01*
X3251612Y54787755D01*
X3226326Y54721414D01*
X3169188Y54679274D01*
X3098338Y54674715D01*
X3036271Y54709184D01*
X3002691Y54771738D01*
X3000000Y54797641D01*
X3000000Y61365500D01*
X3020002Y61433621D01*
X3073658Y61480114D01*
X3126000Y61491500D01*
X20325133Y61491500D01*
X20393254Y61471498D01*
G37*
%TD.AperFunction*%
%TD*%
M02*
