%TF.GenerationSoftware,KiCad,Pcbnew,(6.0.5)*%
%TF.CreationDate,2022-11-21T17:11:25+07:00*%
%TF.ProjectId,Smart_P_ESP_3,536d6172-745f-4505-9f45-53505f332e6b,rev?*%
%TF.SameCoordinates,PX88da2e0PY8b54f20*%
%TF.FileFunction,Legend,Bot*%
%TF.FilePolarity,Positive*%
%FSLAX46Y46*%
G04 Gerber Fmt 4.6, Leading zero omitted, Abs format (unit mm)*
G04 Created by KiCad (PCBNEW (6.0.5)) date 2022-11-21 17:11:25*
%MOMM*%
%LPD*%
G01*
G04 APERTURE LIST*
%ADD10C,0.150000*%
%ADD11C,0.120000*%
G04 APERTURE END LIST*
D10*
%TO.C,R22*%
X2300000Y28533334D02*
X2533333Y28866667D01*
X2700000Y28533334D02*
X2700000Y29233334D01*
X2433333Y29233334D01*
X2366666Y29200000D01*
X2333333Y29166667D01*
X2300000Y29100000D01*
X2300000Y29000000D01*
X2333333Y28933334D01*
X2366666Y28900000D01*
X2433333Y28866667D01*
X2700000Y28866667D01*
X2033333Y29166667D02*
X2000000Y29200000D01*
X1933333Y29233334D01*
X1766666Y29233334D01*
X1700000Y29200000D01*
X1666666Y29166667D01*
X1633333Y29100000D01*
X1633333Y29033334D01*
X1666666Y28933334D01*
X2066666Y28533334D01*
X1633333Y28533334D01*
X1366666Y29166667D02*
X1333333Y29200000D01*
X1266666Y29233334D01*
X1100000Y29233334D01*
X1033333Y29200000D01*
X1000000Y29166667D01*
X966666Y29100000D01*
X966666Y29033334D01*
X1000000Y28933334D01*
X1400000Y28533334D01*
X966666Y28533334D01*
%TO.C,R21*%
X19966666Y53650000D02*
X19633333Y53883334D01*
X19966666Y54050000D02*
X19266666Y54050000D01*
X19266666Y53783334D01*
X19300000Y53716667D01*
X19333333Y53683334D01*
X19400000Y53650000D01*
X19500000Y53650000D01*
X19566666Y53683334D01*
X19600000Y53716667D01*
X19633333Y53783334D01*
X19633333Y54050000D01*
X19333333Y53383334D02*
X19300000Y53350000D01*
X19266666Y53283334D01*
X19266666Y53116667D01*
X19300000Y53050000D01*
X19333333Y53016667D01*
X19400000Y52983334D01*
X19466666Y52983334D01*
X19566666Y53016667D01*
X19966666Y53416667D01*
X19966666Y52983334D01*
X19966666Y52316667D02*
X19966666Y52716667D01*
X19966666Y52516667D02*
X19266666Y52516667D01*
X19366666Y52583334D01*
X19433333Y52650000D01*
X19466666Y52716667D01*
%TO.C,L1*%
X8866666Y57183334D02*
X9200000Y57183334D01*
X9200000Y57883334D01*
X8266666Y57183334D02*
X8666666Y57183334D01*
X8466666Y57183334D02*
X8466666Y57883334D01*
X8533333Y57783334D01*
X8600000Y57716667D01*
X8666666Y57683334D01*
%TO.C,C16*%
X11550000Y56550000D02*
X11583333Y56516667D01*
X11683333Y56483334D01*
X11750000Y56483334D01*
X11850000Y56516667D01*
X11916666Y56583334D01*
X11950000Y56650000D01*
X11983333Y56783334D01*
X11983333Y56883334D01*
X11950000Y57016667D01*
X11916666Y57083334D01*
X11850000Y57150000D01*
X11750000Y57183334D01*
X11683333Y57183334D01*
X11583333Y57150000D01*
X11550000Y57116667D01*
X10883333Y56483334D02*
X11283333Y56483334D01*
X11083333Y56483334D02*
X11083333Y57183334D01*
X11150000Y57083334D01*
X11216666Y57016667D01*
X11283333Y56983334D01*
X10283333Y57183334D02*
X10416666Y57183334D01*
X10483333Y57150000D01*
X10516666Y57116667D01*
X10583333Y57016667D01*
X10616666Y56883334D01*
X10616666Y56616667D01*
X10583333Y56550000D01*
X10550000Y56516667D01*
X10483333Y56483334D01*
X10350000Y56483334D01*
X10283333Y56516667D01*
X10250000Y56550000D01*
X10216666Y56616667D01*
X10216666Y56783334D01*
X10250000Y56850000D01*
X10283333Y56883334D01*
X10350000Y56916667D01*
X10483333Y56916667D01*
X10550000Y56883334D01*
X10583333Y56850000D01*
X10616666Y56783334D01*
%TO.C,R8*%
X12616666Y28216667D02*
X12283333Y28450000D01*
X12616666Y28616667D02*
X11916666Y28616667D01*
X11916666Y28350000D01*
X11950000Y28283334D01*
X11983333Y28250000D01*
X12050000Y28216667D01*
X12150000Y28216667D01*
X12216666Y28250000D01*
X12250000Y28283334D01*
X12283333Y28350000D01*
X12283333Y28616667D01*
X12216666Y27816667D02*
X12183333Y27883334D01*
X12150000Y27916667D01*
X12083333Y27950000D01*
X12050000Y27950000D01*
X11983333Y27916667D01*
X11950000Y27883334D01*
X11916666Y27816667D01*
X11916666Y27683334D01*
X11950000Y27616667D01*
X11983333Y27583334D01*
X12050000Y27550000D01*
X12083333Y27550000D01*
X12150000Y27583334D01*
X12183333Y27616667D01*
X12216666Y27683334D01*
X12216666Y27816667D01*
X12250000Y27883334D01*
X12283333Y27916667D01*
X12350000Y27950000D01*
X12483333Y27950000D01*
X12550000Y27916667D01*
X12583333Y27883334D01*
X12616666Y27816667D01*
X12616666Y27683334D01*
X12583333Y27616667D01*
X12550000Y27583334D01*
X12483333Y27550000D01*
X12350000Y27550000D01*
X12283333Y27583334D01*
X12250000Y27616667D01*
X12216666Y27683334D01*
%TO.C,R23*%
X2350000Y29733334D02*
X2583333Y30066667D01*
X2750000Y29733334D02*
X2750000Y30433334D01*
X2483333Y30433334D01*
X2416666Y30400000D01*
X2383333Y30366667D01*
X2350000Y30300000D01*
X2350000Y30200000D01*
X2383333Y30133334D01*
X2416666Y30100000D01*
X2483333Y30066667D01*
X2750000Y30066667D01*
X2083333Y30366667D02*
X2050000Y30400000D01*
X1983333Y30433334D01*
X1816666Y30433334D01*
X1750000Y30400000D01*
X1716666Y30366667D01*
X1683333Y30300000D01*
X1683333Y30233334D01*
X1716666Y30133334D01*
X2116666Y29733334D01*
X1683333Y29733334D01*
X1450000Y30433334D02*
X1016666Y30433334D01*
X1250000Y30166667D01*
X1150000Y30166667D01*
X1083333Y30133334D01*
X1050000Y30100000D01*
X1016666Y30033334D01*
X1016666Y29866667D01*
X1050000Y29800000D01*
X1083333Y29766667D01*
X1150000Y29733334D01*
X1350000Y29733334D01*
X1416666Y29766667D01*
X1450000Y29800000D01*
%TO.C,Q3*%
X13516666Y31716667D02*
X13583333Y31750000D01*
X13650000Y31816667D01*
X13750000Y31916667D01*
X13816666Y31950000D01*
X13883333Y31950000D01*
X13850000Y31783334D02*
X13916666Y31816667D01*
X13983333Y31883334D01*
X14016666Y32016667D01*
X14016666Y32250000D01*
X13983333Y32383334D01*
X13916666Y32450000D01*
X13850000Y32483334D01*
X13716666Y32483334D01*
X13650000Y32450000D01*
X13583333Y32383334D01*
X13550000Y32250000D01*
X13550000Y32016667D01*
X13583333Y31883334D01*
X13650000Y31816667D01*
X13716666Y31783334D01*
X13850000Y31783334D01*
X13316666Y32483334D02*
X12883333Y32483334D01*
X13116666Y32216667D01*
X13016666Y32216667D01*
X12950000Y32183334D01*
X12916666Y32150000D01*
X12883333Y32083334D01*
X12883333Y31916667D01*
X12916666Y31850000D01*
X12950000Y31816667D01*
X13016666Y31783334D01*
X13216666Y31783334D01*
X13283333Y31816667D01*
X13316666Y31850000D01*
%TO.C,C8*%
X16400000Y35916667D02*
X16433333Y35950000D01*
X16466666Y36050000D01*
X16466666Y36116667D01*
X16433333Y36216667D01*
X16366666Y36283334D01*
X16300000Y36316667D01*
X16166666Y36350000D01*
X16066666Y36350000D01*
X15933333Y36316667D01*
X15866666Y36283334D01*
X15800000Y36216667D01*
X15766666Y36116667D01*
X15766666Y36050000D01*
X15800000Y35950000D01*
X15833333Y35916667D01*
X16066666Y35516667D02*
X16033333Y35583334D01*
X16000000Y35616667D01*
X15933333Y35650000D01*
X15900000Y35650000D01*
X15833333Y35616667D01*
X15800000Y35583334D01*
X15766666Y35516667D01*
X15766666Y35383334D01*
X15800000Y35316667D01*
X15833333Y35283334D01*
X15900000Y35250000D01*
X15933333Y35250000D01*
X16000000Y35283334D01*
X16033333Y35316667D01*
X16066666Y35383334D01*
X16066666Y35516667D01*
X16100000Y35583334D01*
X16133333Y35616667D01*
X16200000Y35650000D01*
X16333333Y35650000D01*
X16400000Y35616667D01*
X16433333Y35583334D01*
X16466666Y35516667D01*
X16466666Y35383334D01*
X16433333Y35316667D01*
X16400000Y35283334D01*
X16333333Y35250000D01*
X16200000Y35250000D01*
X16133333Y35283334D01*
X16100000Y35316667D01*
X16066666Y35383334D01*
%TO.C,R7*%
X19766666Y26483334D02*
X20000000Y26816667D01*
X20166666Y26483334D02*
X20166666Y27183334D01*
X19900000Y27183334D01*
X19833333Y27150000D01*
X19800000Y27116667D01*
X19766666Y27050000D01*
X19766666Y26950000D01*
X19800000Y26883334D01*
X19833333Y26850000D01*
X19900000Y26816667D01*
X20166666Y26816667D01*
X19533333Y27183334D02*
X19066666Y27183334D01*
X19366666Y26483334D01*
%TO.C,C14*%
X11500000Y60800000D02*
X11533333Y60766667D01*
X11633333Y60733334D01*
X11700000Y60733334D01*
X11800000Y60766667D01*
X11866666Y60833334D01*
X11900000Y60900000D01*
X11933333Y61033334D01*
X11933333Y61133334D01*
X11900000Y61266667D01*
X11866666Y61333334D01*
X11800000Y61400000D01*
X11700000Y61433334D01*
X11633333Y61433334D01*
X11533333Y61400000D01*
X11500000Y61366667D01*
X10833333Y60733334D02*
X11233333Y60733334D01*
X11033333Y60733334D02*
X11033333Y61433334D01*
X11100000Y61333334D01*
X11166666Y61266667D01*
X11233333Y61233334D01*
X10233333Y61200000D02*
X10233333Y60733334D01*
X10400000Y61466667D02*
X10566666Y60966667D01*
X10133333Y60966667D01*
%TO.C,U2*%
X5266666Y20383334D02*
X5833333Y20383334D01*
X5900000Y20350000D01*
X5933333Y20316667D01*
X5966666Y20250000D01*
X5966666Y20116667D01*
X5933333Y20050000D01*
X5900000Y20016667D01*
X5833333Y19983334D01*
X5266666Y19983334D01*
X5333333Y19683334D02*
X5300000Y19650000D01*
X5266666Y19583334D01*
X5266666Y19416667D01*
X5300000Y19350000D01*
X5333333Y19316667D01*
X5400000Y19283334D01*
X5466666Y19283334D01*
X5566666Y19316667D01*
X5966666Y19716667D01*
X5966666Y19283334D01*
%TO.C,J2*%
X2033333Y55933334D02*
X2033333Y55433334D01*
X2066666Y55333334D01*
X2133333Y55266667D01*
X2233333Y55233334D01*
X2300000Y55233334D01*
X1733333Y55866667D02*
X1700000Y55900000D01*
X1633333Y55933334D01*
X1466666Y55933334D01*
X1400000Y55900000D01*
X1366666Y55866667D01*
X1333333Y55800000D01*
X1333333Y55733334D01*
X1366666Y55633334D01*
X1766666Y55233334D01*
X1333333Y55233334D01*
%TO.C,J4*%
X1233333Y48383334D02*
X1233333Y47883334D01*
X1266666Y47783334D01*
X1333333Y47716667D01*
X1433333Y47683334D01*
X1500000Y47683334D01*
X600000Y48150000D02*
X600000Y47683334D01*
X766666Y48416667D02*
X933333Y47916667D01*
X500000Y47916667D01*
%TO.C,C13*%
X21350000Y59950000D02*
X21383333Y59983334D01*
X21416666Y60083334D01*
X21416666Y60150000D01*
X21383333Y60250000D01*
X21316666Y60316667D01*
X21250000Y60350000D01*
X21116666Y60383334D01*
X21016666Y60383334D01*
X20883333Y60350000D01*
X20816666Y60316667D01*
X20750000Y60250000D01*
X20716666Y60150000D01*
X20716666Y60083334D01*
X20750000Y59983334D01*
X20783333Y59950000D01*
X21416666Y59283334D02*
X21416666Y59683334D01*
X21416666Y59483334D02*
X20716666Y59483334D01*
X20816666Y59550000D01*
X20883333Y59616667D01*
X20916666Y59683334D01*
X20716666Y59050000D02*
X20716666Y58616667D01*
X20983333Y58850000D01*
X20983333Y58750000D01*
X21016666Y58683334D01*
X21050000Y58650000D01*
X21116666Y58616667D01*
X21283333Y58616667D01*
X21350000Y58650000D01*
X21383333Y58683334D01*
X21416666Y58750000D01*
X21416666Y58950000D01*
X21383333Y59016667D01*
X21350000Y59050000D01*
%TO.C,C12*%
X4450000Y57250000D02*
X4483333Y57216667D01*
X4583333Y57183334D01*
X4650000Y57183334D01*
X4750000Y57216667D01*
X4816666Y57283334D01*
X4850000Y57350000D01*
X4883333Y57483334D01*
X4883333Y57583334D01*
X4850000Y57716667D01*
X4816666Y57783334D01*
X4750000Y57850000D01*
X4650000Y57883334D01*
X4583333Y57883334D01*
X4483333Y57850000D01*
X4450000Y57816667D01*
X3783333Y57183334D02*
X4183333Y57183334D01*
X3983333Y57183334D02*
X3983333Y57883334D01*
X4050000Y57783334D01*
X4116666Y57716667D01*
X4183333Y57683334D01*
X3516666Y57816667D02*
X3483333Y57850000D01*
X3416666Y57883334D01*
X3250000Y57883334D01*
X3183333Y57850000D01*
X3150000Y57816667D01*
X3116666Y57750000D01*
X3116666Y57683334D01*
X3150000Y57583334D01*
X3550000Y57183334D01*
X3116666Y57183334D01*
%TO.C,R18*%
X18386666Y56850000D02*
X18053333Y57083334D01*
X18386666Y57250000D02*
X17686666Y57250000D01*
X17686666Y56983334D01*
X17720000Y56916667D01*
X17753333Y56883334D01*
X17820000Y56850000D01*
X17920000Y56850000D01*
X17986666Y56883334D01*
X18020000Y56916667D01*
X18053333Y56983334D01*
X18053333Y57250000D01*
X18386666Y56183334D02*
X18386666Y56583334D01*
X18386666Y56383334D02*
X17686666Y56383334D01*
X17786666Y56450000D01*
X17853333Y56516667D01*
X17886666Y56583334D01*
X17986666Y55783334D02*
X17953333Y55850000D01*
X17920000Y55883334D01*
X17853333Y55916667D01*
X17820000Y55916667D01*
X17753333Y55883334D01*
X17720000Y55850000D01*
X17686666Y55783334D01*
X17686666Y55650000D01*
X17720000Y55583334D01*
X17753333Y55550000D01*
X17820000Y55516667D01*
X17853333Y55516667D01*
X17920000Y55550000D01*
X17953333Y55583334D01*
X17986666Y55650000D01*
X17986666Y55783334D01*
X18020000Y55850000D01*
X18053333Y55883334D01*
X18120000Y55916667D01*
X18253333Y55916667D01*
X18320000Y55883334D01*
X18353333Y55850000D01*
X18386666Y55783334D01*
X18386666Y55650000D01*
X18353333Y55583334D01*
X18320000Y55550000D01*
X18253333Y55516667D01*
X18120000Y55516667D01*
X18053333Y55550000D01*
X18020000Y55583334D01*
X17986666Y55650000D01*
%TO.C,C10*%
X9950000Y40980000D02*
X9983333Y40946667D01*
X10083333Y40913334D01*
X10150000Y40913334D01*
X10250000Y40946667D01*
X10316666Y41013334D01*
X10350000Y41080000D01*
X10383333Y41213334D01*
X10383333Y41313334D01*
X10350000Y41446667D01*
X10316666Y41513334D01*
X10250000Y41580000D01*
X10150000Y41613334D01*
X10083333Y41613334D01*
X9983333Y41580000D01*
X9950000Y41546667D01*
X9283333Y40913334D02*
X9683333Y40913334D01*
X9483333Y40913334D02*
X9483333Y41613334D01*
X9550000Y41513334D01*
X9616666Y41446667D01*
X9683333Y41413334D01*
X8850000Y41613334D02*
X8783333Y41613334D01*
X8716666Y41580000D01*
X8683333Y41546667D01*
X8650000Y41480000D01*
X8616666Y41346667D01*
X8616666Y41180000D01*
X8650000Y41046667D01*
X8683333Y40980000D01*
X8716666Y40946667D01*
X8783333Y40913334D01*
X8850000Y40913334D01*
X8916666Y40946667D01*
X8950000Y40980000D01*
X8983333Y41046667D01*
X9016666Y41180000D01*
X9016666Y41346667D01*
X8983333Y41480000D01*
X8950000Y41546667D01*
X8916666Y41580000D01*
X8850000Y41613334D01*
%TO.C,C2*%
X7316666Y12220000D02*
X7350000Y12186667D01*
X7450000Y12153334D01*
X7516666Y12153334D01*
X7616666Y12186667D01*
X7683333Y12253334D01*
X7716666Y12320000D01*
X7750000Y12453334D01*
X7750000Y12553334D01*
X7716666Y12686667D01*
X7683333Y12753334D01*
X7616666Y12820000D01*
X7516666Y12853334D01*
X7450000Y12853334D01*
X7350000Y12820000D01*
X7316666Y12786667D01*
X7050000Y12786667D02*
X7016666Y12820000D01*
X6950000Y12853334D01*
X6783333Y12853334D01*
X6716666Y12820000D01*
X6683333Y12786667D01*
X6650000Y12720000D01*
X6650000Y12653334D01*
X6683333Y12553334D01*
X7083333Y12153334D01*
X6650000Y12153334D01*
%TO.C,Q4*%
X4683333Y36166667D02*
X4650000Y36233334D01*
X4583333Y36300000D01*
X4483333Y36400000D01*
X4450000Y36466667D01*
X4450000Y36533334D01*
X4616666Y36500000D02*
X4583333Y36566667D01*
X4516666Y36633334D01*
X4383333Y36666667D01*
X4150000Y36666667D01*
X4016666Y36633334D01*
X3950000Y36566667D01*
X3916666Y36500000D01*
X3916666Y36366667D01*
X3950000Y36300000D01*
X4016666Y36233334D01*
X4150000Y36200000D01*
X4383333Y36200000D01*
X4516666Y36233334D01*
X4583333Y36300000D01*
X4616666Y36366667D01*
X4616666Y36500000D01*
X4150000Y35600000D02*
X4616666Y35600000D01*
X3883333Y35766667D02*
X4383333Y35933334D01*
X4383333Y35500000D01*
%TO.C,C9*%
X10616666Y31950000D02*
X10650000Y31916667D01*
X10750000Y31883334D01*
X10816666Y31883334D01*
X10916666Y31916667D01*
X10983333Y31983334D01*
X11016666Y32050000D01*
X11050000Y32183334D01*
X11050000Y32283334D01*
X11016666Y32416667D01*
X10983333Y32483334D01*
X10916666Y32550000D01*
X10816666Y32583334D01*
X10750000Y32583334D01*
X10650000Y32550000D01*
X10616666Y32516667D01*
X10283333Y31883334D02*
X10150000Y31883334D01*
X10083333Y31916667D01*
X10050000Y31950000D01*
X9983333Y32050000D01*
X9950000Y32183334D01*
X9950000Y32450000D01*
X9983333Y32516667D01*
X10016666Y32550000D01*
X10083333Y32583334D01*
X10216666Y32583334D01*
X10283333Y32550000D01*
X10316666Y32516667D01*
X10350000Y32450000D01*
X10350000Y32283334D01*
X10316666Y32216667D01*
X10283333Y32183334D01*
X10216666Y32150000D01*
X10083333Y32150000D01*
X10016666Y32183334D01*
X9983333Y32216667D01*
X9950000Y32283334D01*
%TO.C,C4*%
X9600000Y16466667D02*
X9633333Y16500000D01*
X9666666Y16600000D01*
X9666666Y16666667D01*
X9633333Y16766667D01*
X9566666Y16833334D01*
X9500000Y16866667D01*
X9366666Y16900000D01*
X9266666Y16900000D01*
X9133333Y16866667D01*
X9066666Y16833334D01*
X9000000Y16766667D01*
X8966666Y16666667D01*
X8966666Y16600000D01*
X9000000Y16500000D01*
X9033333Y16466667D01*
X9200000Y15866667D02*
X9666666Y15866667D01*
X8933333Y16033334D02*
X9433333Y16200000D01*
X9433333Y15766667D01*
%TO.C,C15*%
X6800000Y57250000D02*
X6833333Y57216667D01*
X6933333Y57183334D01*
X7000000Y57183334D01*
X7100000Y57216667D01*
X7166666Y57283334D01*
X7200000Y57350000D01*
X7233333Y57483334D01*
X7233333Y57583334D01*
X7200000Y57716667D01*
X7166666Y57783334D01*
X7100000Y57850000D01*
X7000000Y57883334D01*
X6933333Y57883334D01*
X6833333Y57850000D01*
X6800000Y57816667D01*
X6133333Y57183334D02*
X6533333Y57183334D01*
X6333333Y57183334D02*
X6333333Y57883334D01*
X6400000Y57783334D01*
X6466666Y57716667D01*
X6533333Y57683334D01*
X5500000Y57883334D02*
X5833333Y57883334D01*
X5866666Y57550000D01*
X5833333Y57583334D01*
X5766666Y57616667D01*
X5600000Y57616667D01*
X5533333Y57583334D01*
X5500000Y57550000D01*
X5466666Y57483334D01*
X5466666Y57316667D01*
X5500000Y57250000D01*
X5533333Y57216667D01*
X5600000Y57183334D01*
X5766666Y57183334D01*
X5833333Y57216667D01*
X5866666Y57250000D01*
%TO.C,U5*%
X5796666Y52633334D02*
X6363333Y52633334D01*
X6430000Y52600000D01*
X6463333Y52566667D01*
X6496666Y52500000D01*
X6496666Y52366667D01*
X6463333Y52300000D01*
X6430000Y52266667D01*
X6363333Y52233334D01*
X5796666Y52233334D01*
X5796666Y51566667D02*
X5796666Y51900000D01*
X6130000Y51933334D01*
X6096666Y51900000D01*
X6063333Y51833334D01*
X6063333Y51666667D01*
X6096666Y51600000D01*
X6130000Y51566667D01*
X6196666Y51533334D01*
X6363333Y51533334D01*
X6430000Y51566667D01*
X6463333Y51600000D01*
X6496666Y51666667D01*
X6496666Y51833334D01*
X6463333Y51900000D01*
X6430000Y51933334D01*
%TO.C,J3*%
X20766666Y17033334D02*
X21266666Y17033334D01*
X21366666Y17066667D01*
X21433333Y17133334D01*
X21466666Y17233334D01*
X21466666Y17300000D01*
X20766666Y16766667D02*
X20766666Y16333334D01*
X21033333Y16566667D01*
X21033333Y16466667D01*
X21066666Y16400000D01*
X21100000Y16366667D01*
X21166666Y16333334D01*
X21333333Y16333334D01*
X21400000Y16366667D01*
X21433333Y16400000D01*
X21466666Y16466667D01*
X21466666Y16666667D01*
X21433333Y16733334D01*
X21400000Y16766667D01*
%TO.C,R5*%
X16816666Y24983334D02*
X17050000Y25316667D01*
X17216666Y24983334D02*
X17216666Y25683334D01*
X16950000Y25683334D01*
X16883333Y25650000D01*
X16850000Y25616667D01*
X16816666Y25550000D01*
X16816666Y25450000D01*
X16850000Y25383334D01*
X16883333Y25350000D01*
X16950000Y25316667D01*
X17216666Y25316667D01*
X16183333Y25683334D02*
X16516666Y25683334D01*
X16550000Y25350000D01*
X16516666Y25383334D01*
X16450000Y25416667D01*
X16283333Y25416667D01*
X16216666Y25383334D01*
X16183333Y25350000D01*
X16150000Y25283334D01*
X16150000Y25116667D01*
X16183333Y25050000D01*
X16216666Y25016667D01*
X16283333Y24983334D01*
X16450000Y24983334D01*
X16516666Y25016667D01*
X16550000Y25050000D01*
%TO.C,R13*%
X18166666Y41850000D02*
X17833333Y42083334D01*
X18166666Y42250000D02*
X17466666Y42250000D01*
X17466666Y41983334D01*
X17500000Y41916667D01*
X17533333Y41883334D01*
X17600000Y41850000D01*
X17700000Y41850000D01*
X17766666Y41883334D01*
X17800000Y41916667D01*
X17833333Y41983334D01*
X17833333Y42250000D01*
X18166666Y41183334D02*
X18166666Y41583334D01*
X18166666Y41383334D02*
X17466666Y41383334D01*
X17566666Y41450000D01*
X17633333Y41516667D01*
X17666666Y41583334D01*
X17466666Y40950000D02*
X17466666Y40516667D01*
X17733333Y40750000D01*
X17733333Y40650000D01*
X17766666Y40583334D01*
X17800000Y40550000D01*
X17866666Y40516667D01*
X18033333Y40516667D01*
X18100000Y40550000D01*
X18133333Y40583334D01*
X18166666Y40650000D01*
X18166666Y40850000D01*
X18133333Y40916667D01*
X18100000Y40950000D01*
%TO.C,Q1*%
X22933333Y7066667D02*
X22900000Y7133334D01*
X22833333Y7200000D01*
X22733333Y7300000D01*
X22700000Y7366667D01*
X22700000Y7433334D01*
X22866666Y7400000D02*
X22833333Y7466667D01*
X22766666Y7533334D01*
X22633333Y7566667D01*
X22400000Y7566667D01*
X22266666Y7533334D01*
X22200000Y7466667D01*
X22166666Y7400000D01*
X22166666Y7266667D01*
X22200000Y7200000D01*
X22266666Y7133334D01*
X22400000Y7100000D01*
X22633333Y7100000D01*
X22766666Y7133334D01*
X22833333Y7200000D01*
X22866666Y7266667D01*
X22866666Y7400000D01*
X22866666Y6433334D02*
X22866666Y6833334D01*
X22866666Y6633334D02*
X22166666Y6633334D01*
X22266666Y6700000D01*
X22333333Y6766667D01*
X22366666Y6833334D01*
%TO.C,R17*%
X18386666Y60050000D02*
X18053333Y60283334D01*
X18386666Y60450000D02*
X17686666Y60450000D01*
X17686666Y60183334D01*
X17720000Y60116667D01*
X17753333Y60083334D01*
X17820000Y60050000D01*
X17920000Y60050000D01*
X17986666Y60083334D01*
X18020000Y60116667D01*
X18053333Y60183334D01*
X18053333Y60450000D01*
X18386666Y59383334D02*
X18386666Y59783334D01*
X18386666Y59583334D02*
X17686666Y59583334D01*
X17786666Y59650000D01*
X17853333Y59716667D01*
X17886666Y59783334D01*
X17686666Y59150000D02*
X17686666Y58683334D01*
X18386666Y58983334D01*
%TO.C,C7*%
X6120000Y36216667D02*
X6153333Y36250000D01*
X6186666Y36350000D01*
X6186666Y36416667D01*
X6153333Y36516667D01*
X6086666Y36583334D01*
X6020000Y36616667D01*
X5886666Y36650000D01*
X5786666Y36650000D01*
X5653333Y36616667D01*
X5586666Y36583334D01*
X5520000Y36516667D01*
X5486666Y36416667D01*
X5486666Y36350000D01*
X5520000Y36250000D01*
X5553333Y36216667D01*
X5486666Y35983334D02*
X5486666Y35516667D01*
X6186666Y35816667D01*
%TO.C,R2*%
X16766666Y20433334D02*
X17000000Y20766667D01*
X17166666Y20433334D02*
X17166666Y21133334D01*
X16900000Y21133334D01*
X16833333Y21100000D01*
X16800000Y21066667D01*
X16766666Y21000000D01*
X16766666Y20900000D01*
X16800000Y20833334D01*
X16833333Y20800000D01*
X16900000Y20766667D01*
X17166666Y20766667D01*
X16500000Y21066667D02*
X16466666Y21100000D01*
X16400000Y21133334D01*
X16233333Y21133334D01*
X16166666Y21100000D01*
X16133333Y21066667D01*
X16100000Y21000000D01*
X16100000Y20933334D01*
X16133333Y20833334D01*
X16533333Y20433334D01*
X16100000Y20433334D01*
%TO.C,Q2*%
X20883333Y29666667D02*
X20850000Y29733334D01*
X20783333Y29800000D01*
X20683333Y29900000D01*
X20650000Y29966667D01*
X20650000Y30033334D01*
X20816666Y30000000D02*
X20783333Y30066667D01*
X20716666Y30133334D01*
X20583333Y30166667D01*
X20350000Y30166667D01*
X20216666Y30133334D01*
X20150000Y30066667D01*
X20116666Y30000000D01*
X20116666Y29866667D01*
X20150000Y29800000D01*
X20216666Y29733334D01*
X20350000Y29700000D01*
X20583333Y29700000D01*
X20716666Y29733334D01*
X20783333Y29800000D01*
X20816666Y29866667D01*
X20816666Y30000000D01*
X20183333Y29433334D02*
X20150000Y29400000D01*
X20116666Y29333334D01*
X20116666Y29166667D01*
X20150000Y29100000D01*
X20183333Y29066667D01*
X20250000Y29033334D01*
X20316666Y29033334D01*
X20416666Y29066667D01*
X20816666Y29466667D01*
X20816666Y29033334D01*
%TO.C,R4*%
X16766666Y23983334D02*
X17000000Y24316667D01*
X17166666Y23983334D02*
X17166666Y24683334D01*
X16900000Y24683334D01*
X16833333Y24650000D01*
X16800000Y24616667D01*
X16766666Y24550000D01*
X16766666Y24450000D01*
X16800000Y24383334D01*
X16833333Y24350000D01*
X16900000Y24316667D01*
X17166666Y24316667D01*
X16166666Y24450000D02*
X16166666Y23983334D01*
X16333333Y24716667D02*
X16500000Y24216667D01*
X16066666Y24216667D01*
%TO.C,R12*%
X16966666Y41850000D02*
X16633333Y42083334D01*
X16966666Y42250000D02*
X16266666Y42250000D01*
X16266666Y41983334D01*
X16300000Y41916667D01*
X16333333Y41883334D01*
X16400000Y41850000D01*
X16500000Y41850000D01*
X16566666Y41883334D01*
X16600000Y41916667D01*
X16633333Y41983334D01*
X16633333Y42250000D01*
X16966666Y41183334D02*
X16966666Y41583334D01*
X16966666Y41383334D02*
X16266666Y41383334D01*
X16366666Y41450000D01*
X16433333Y41516667D01*
X16466666Y41583334D01*
X16333333Y40916667D02*
X16300000Y40883334D01*
X16266666Y40816667D01*
X16266666Y40650000D01*
X16300000Y40583334D01*
X16333333Y40550000D01*
X16400000Y40516667D01*
X16466666Y40516667D01*
X16566666Y40550000D01*
X16966666Y40950000D01*
X16966666Y40516667D01*
%TO.C,R3*%
X16766666Y19383334D02*
X17000000Y19716667D01*
X17166666Y19383334D02*
X17166666Y20083334D01*
X16900000Y20083334D01*
X16833333Y20050000D01*
X16800000Y20016667D01*
X16766666Y19950000D01*
X16766666Y19850000D01*
X16800000Y19783334D01*
X16833333Y19750000D01*
X16900000Y19716667D01*
X17166666Y19716667D01*
X16533333Y20083334D02*
X16100000Y20083334D01*
X16333333Y19816667D01*
X16233333Y19816667D01*
X16166666Y19783334D01*
X16133333Y19750000D01*
X16100000Y19683334D01*
X16100000Y19516667D01*
X16133333Y19450000D01*
X16166666Y19416667D01*
X16233333Y19383334D01*
X16433333Y19383334D01*
X16500000Y19416667D01*
X16533333Y19450000D01*
%TO.C,C1*%
X15800000Y1016667D02*
X15833333Y1050000D01*
X15866666Y1150000D01*
X15866666Y1216667D01*
X15833333Y1316667D01*
X15766666Y1383334D01*
X15700000Y1416667D01*
X15566666Y1450000D01*
X15466666Y1450000D01*
X15333333Y1416667D01*
X15266666Y1383334D01*
X15200000Y1316667D01*
X15166666Y1216667D01*
X15166666Y1150000D01*
X15200000Y1050000D01*
X15233333Y1016667D01*
X15866666Y350000D02*
X15866666Y750000D01*
X15866666Y550000D02*
X15166666Y550000D01*
X15266666Y616667D01*
X15333333Y683334D01*
X15366666Y750000D01*
%TO.C,D1*%
X15866666Y5716667D02*
X15166666Y5716667D01*
X15166666Y5550000D01*
X15200000Y5450000D01*
X15266666Y5383334D01*
X15333333Y5350000D01*
X15466666Y5316667D01*
X15566666Y5316667D01*
X15700000Y5350000D01*
X15766666Y5383334D01*
X15833333Y5450000D01*
X15866666Y5550000D01*
X15866666Y5716667D01*
X15866666Y4650000D02*
X15866666Y5050000D01*
X15866666Y4850000D02*
X15166666Y4850000D01*
X15266666Y4916667D01*
X15333333Y4983334D01*
X15366666Y5050000D01*
%TO.C,R1*%
X21446666Y2141667D02*
X21113333Y2375000D01*
X21446666Y2541667D02*
X20746666Y2541667D01*
X20746666Y2275000D01*
X20780000Y2208334D01*
X20813333Y2175000D01*
X20880000Y2141667D01*
X20980000Y2141667D01*
X21046666Y2175000D01*
X21080000Y2208334D01*
X21113333Y2275000D01*
X21113333Y2541667D01*
X21446666Y1475000D02*
X21446666Y1875000D01*
X21446666Y1675000D02*
X20746666Y1675000D01*
X20846666Y1741667D01*
X20913333Y1808334D01*
X20946666Y1875000D01*
%TO.C,D2*%
X9854166Y6233334D02*
X9854166Y6933334D01*
X9687500Y6933334D01*
X9587500Y6900000D01*
X9520833Y6833334D01*
X9487500Y6766667D01*
X9454166Y6633334D01*
X9454166Y6533334D01*
X9487500Y6400000D01*
X9520833Y6333334D01*
X9587500Y6266667D01*
X9687500Y6233334D01*
X9854166Y6233334D01*
X9187500Y6866667D02*
X9154166Y6900000D01*
X9087500Y6933334D01*
X8920833Y6933334D01*
X8854166Y6900000D01*
X8820833Y6866667D01*
X8787500Y6800000D01*
X8787500Y6733334D01*
X8820833Y6633334D01*
X9220833Y6233334D01*
X8787500Y6233334D01*
%TO.C,D5*%
X13266666Y5813334D02*
X13266666Y6513334D01*
X13100000Y6513334D01*
X13000000Y6480000D01*
X12933333Y6413334D01*
X12900000Y6346667D01*
X12866666Y6213334D01*
X12866666Y6113334D01*
X12900000Y5980000D01*
X12933333Y5913334D01*
X13000000Y5846667D01*
X13100000Y5813334D01*
X13266666Y5813334D01*
X12233333Y6513334D02*
X12566666Y6513334D01*
X12600000Y6180000D01*
X12566666Y6213334D01*
X12500000Y6246667D01*
X12333333Y6246667D01*
X12266666Y6213334D01*
X12233333Y6180000D01*
X12200000Y6113334D01*
X12200000Y5946667D01*
X12233333Y5880000D01*
X12266666Y5846667D01*
X12333333Y5813334D01*
X12500000Y5813334D01*
X12566666Y5846667D01*
X12600000Y5880000D01*
%TO.C,R14*%
X5950000Y30383334D02*
X6183333Y30716667D01*
X6350000Y30383334D02*
X6350000Y31083334D01*
X6083333Y31083334D01*
X6016666Y31050000D01*
X5983333Y31016667D01*
X5950000Y30950000D01*
X5950000Y30850000D01*
X5983333Y30783334D01*
X6016666Y30750000D01*
X6083333Y30716667D01*
X6350000Y30716667D01*
X5283333Y30383334D02*
X5683333Y30383334D01*
X5483333Y30383334D02*
X5483333Y31083334D01*
X5550000Y30983334D01*
X5616666Y30916667D01*
X5683333Y30883334D01*
X4683333Y30850000D02*
X4683333Y30383334D01*
X4850000Y31116667D02*
X5016666Y30616667D01*
X4583333Y30616667D01*
%TO.C,U3*%
X13433333Y39633334D02*
X13433333Y39066667D01*
X13400000Y39000000D01*
X13366666Y38966667D01*
X13300000Y38933334D01*
X13166666Y38933334D01*
X13100000Y38966667D01*
X13066666Y39000000D01*
X13033333Y39066667D01*
X13033333Y39633334D01*
X12766666Y39633334D02*
X12333333Y39633334D01*
X12566666Y39366667D01*
X12466666Y39366667D01*
X12400000Y39333334D01*
X12366666Y39300000D01*
X12333333Y39233334D01*
X12333333Y39066667D01*
X12366666Y39000000D01*
X12400000Y38966667D01*
X12466666Y38933334D01*
X12666666Y38933334D01*
X12733333Y38966667D01*
X12766666Y39000000D01*
%TO.C,C3*%
X2966666Y15500000D02*
X3000000Y15466667D01*
X3100000Y15433334D01*
X3166666Y15433334D01*
X3266666Y15466667D01*
X3333333Y15533334D01*
X3366666Y15600000D01*
X3400000Y15733334D01*
X3400000Y15833334D01*
X3366666Y15966667D01*
X3333333Y16033334D01*
X3266666Y16100000D01*
X3166666Y16133334D01*
X3100000Y16133334D01*
X3000000Y16100000D01*
X2966666Y16066667D01*
X2733333Y16133334D02*
X2300000Y16133334D01*
X2533333Y15866667D01*
X2433333Y15866667D01*
X2366666Y15833334D01*
X2333333Y15800000D01*
X2300000Y15733334D01*
X2300000Y15566667D01*
X2333333Y15500000D01*
X2366666Y15466667D01*
X2433333Y15433334D01*
X2633333Y15433334D01*
X2700000Y15466667D01*
X2733333Y15500000D01*
D11*
%TO.C,R22*%
X1662742Y30977500D02*
X2137258Y30977500D01*
X1662742Y32022500D02*
X2137258Y32022500D01*
%TO.C,R21*%
X21622500Y52962742D02*
X21622500Y53437258D01*
X20577500Y52962742D02*
X20577500Y53437258D01*
%TO.C,L1*%
X8240000Y59800279D02*
X8240000Y59474721D01*
X9260000Y59800279D02*
X9260000Y59474721D01*
%TO.C,C16*%
X13759420Y57290000D02*
X14040580Y57290000D01*
X13759420Y58310000D02*
X14040580Y58310000D01*
%TO.C,R8*%
X14437258Y27322500D02*
X13962742Y27322500D01*
X14437258Y26277500D02*
X13962742Y26277500D01*
%TO.C,R23*%
X2137258Y33722500D02*
X1662742Y33722500D01*
X2137258Y32677500D02*
X1662742Y32677500D01*
%TO.C,Q3*%
X12940000Y29600000D02*
X12940000Y30250000D01*
X16060000Y29600000D02*
X16060000Y30250000D01*
X12940000Y29600000D02*
X12940000Y28950000D01*
X16060000Y29600000D02*
X16060000Y27925000D01*
%TO.C,C8*%
X14290000Y34759420D02*
X14290000Y35040580D01*
X15310000Y34759420D02*
X15310000Y35040580D01*
%TO.C,R7*%
X17062742Y27322500D02*
X17537258Y27322500D01*
X17062742Y26277500D02*
X17537258Y26277500D01*
%TO.C,C14*%
X13988748Y60810000D02*
X15411252Y60810000D01*
X13988748Y58990000D02*
X15411252Y58990000D01*
%TO.C,U2*%
X6740000Y19590000D02*
X7465000Y19590000D01*
X6740000Y20315000D02*
X6740000Y19590000D01*
X6740000Y24810000D02*
X7465000Y24810000D01*
X11960000Y24810000D02*
X11235000Y24810000D01*
X6740000Y24085000D02*
X6740000Y24810000D01*
X11960000Y24085000D02*
X11960000Y24810000D01*
X11960000Y20315000D02*
X11960000Y19590000D01*
%TO.C,J2*%
X2800000Y60450000D02*
X2800000Y50950000D01*
X2800000Y50950000D02*
X800000Y50950000D01*
X800000Y50950000D02*
X800000Y60450000D01*
X800000Y60450000D02*
X2800000Y60450000D01*
X2550000Y58700000D02*
G75*
G03*
X2550000Y58700000I-750000J0D01*
G01*
%TO.C,J4*%
X3340000Y47035000D02*
X1690000Y47035000D01*
X1690000Y47035000D02*
X1690000Y45185000D01*
X1690000Y40965000D02*
X1690000Y42815000D01*
X3340000Y40965000D02*
X1690000Y40965000D01*
X1690000Y45185000D02*
X900000Y45185000D01*
X6310000Y45715000D02*
X6310000Y42285000D01*
%TO.C,C13*%
X21610000Y56259420D02*
X21610000Y56540580D01*
X20590000Y56259420D02*
X20590000Y56540580D01*
%TO.C,C12*%
X4460000Y59459420D02*
X4460000Y59740580D01*
X3440000Y59459420D02*
X3440000Y59740580D01*
%TO.C,R18*%
X20022500Y56637258D02*
X20022500Y56162742D01*
X18977500Y56637258D02*
X18977500Y56162742D01*
%TO.C,C10*%
X9640580Y39290000D02*
X9359420Y39290000D01*
X9640580Y40310000D02*
X9359420Y40310000D01*
%TO.C,C2*%
X7059420Y14410000D02*
X7340580Y14410000D01*
X7059420Y13390000D02*
X7340580Y13390000D01*
%TO.C,Q4*%
X3460000Y36100000D02*
X3460000Y34425000D01*
X340000Y36100000D02*
X340000Y36750000D01*
X3460000Y36100000D02*
X3460000Y36750000D01*
X340000Y36100000D02*
X340000Y35450000D01*
%TO.C,C9*%
X8240580Y31790000D02*
X7959420Y31790000D01*
X8240580Y32810000D02*
X7959420Y32810000D01*
%TO.C,C4*%
X8460000Y16490580D02*
X8460000Y16209420D01*
X7440000Y16490580D02*
X7440000Y16209420D01*
%TO.C,C15*%
X6209420Y59360000D02*
X6490580Y59360000D01*
X6209420Y58340000D02*
X6490580Y58340000D01*
%TO.C,U5*%
X7390000Y55235000D02*
X7390000Y55710000D01*
X7390000Y48490000D02*
X7865000Y48490000D01*
X14610000Y48490000D02*
X14135000Y48490000D01*
X7390000Y48965000D02*
X7390000Y48490000D01*
X14610000Y55710000D02*
X14135000Y55710000D01*
X14610000Y55235000D02*
X14610000Y55710000D01*
X14610000Y48965000D02*
X14610000Y48490000D01*
%TO.C,J3*%
X18860000Y15535000D02*
X20510000Y15535000D01*
X18860000Y9465000D02*
X20510000Y9465000D01*
X20510000Y9465000D02*
X20510000Y11315000D01*
X15890000Y10785000D02*
X15890000Y14215000D01*
X20510000Y15535000D02*
X20510000Y13685000D01*
X20510000Y11315000D02*
X21300000Y11315000D01*
%TO.C,R5*%
X14487258Y25072500D02*
X14012742Y25072500D01*
X14487258Y24027500D02*
X14012742Y24027500D01*
%TO.C,R13*%
X15822500Y41637258D02*
X15822500Y41162742D01*
X14777500Y41637258D02*
X14777500Y41162742D01*
%TO.C,Q1*%
X21710000Y7000000D02*
X21710000Y7650000D01*
X18590000Y7000000D02*
X18590000Y6350000D01*
X18590000Y7000000D02*
X18590000Y7650000D01*
X21710000Y7000000D02*
X21710000Y5325000D01*
%TO.C,R17*%
X20022500Y59837258D02*
X20022500Y59362742D01*
X18977500Y59837258D02*
X18977500Y59362742D01*
%TO.C,C7*%
X7810000Y36240580D02*
X7810000Y35959420D01*
X6790000Y36240580D02*
X6790000Y35959420D01*
%TO.C,R2*%
X14487258Y20827500D02*
X14012742Y20827500D01*
X14487258Y21872500D02*
X14012742Y21872500D01*
%TO.C,Q2*%
X16540000Y29600000D02*
X16540000Y30250000D01*
X19660000Y29600000D02*
X19660000Y30250000D01*
X19660000Y29600000D02*
X19660000Y27925000D01*
X16540000Y29600000D02*
X16540000Y28950000D01*
%TO.C,R4*%
X14487258Y22427500D02*
X14012742Y22427500D01*
X14487258Y23472500D02*
X14012742Y23472500D01*
%TO.C,R12*%
X13077500Y41637258D02*
X13077500Y41162742D01*
X14122500Y41637258D02*
X14122500Y41162742D01*
%TO.C,R3*%
X14487258Y19227500D02*
X14012742Y19227500D01*
X14487258Y20272500D02*
X14012742Y20272500D01*
%TO.C,C1*%
X18510000Y1988748D02*
X18510000Y3411252D01*
X16690000Y1988748D02*
X16690000Y3411252D01*
%TO.C,D1*%
X16550000Y8200000D02*
X18250000Y8200000D01*
X16550000Y8200000D02*
X16550000Y5650000D01*
X18250000Y8200000D02*
X18250000Y5650000D01*
%TO.C,R1*%
X20222500Y1787742D02*
X20222500Y2262258D01*
X19177500Y1787742D02*
X19177500Y2262258D01*
%TO.C,D2*%
X10837500Y5550000D02*
X8287500Y5550000D01*
X10837500Y5550000D02*
X10837500Y3850000D01*
X10837500Y3850000D02*
X8287500Y3850000D01*
%TO.C,D5*%
X14235000Y5435000D02*
X14235000Y3965000D01*
X11950000Y5435000D02*
X14235000Y5435000D01*
X14235000Y3965000D02*
X11950000Y3965000D01*
%TO.C,R14*%
X8337258Y30177500D02*
X7862742Y30177500D01*
X8337258Y31222500D02*
X7862742Y31222500D01*
D10*
%TO.C,U3*%
X13150000Y38250000D02*
X12625000Y38250000D01*
X8850000Y38250000D02*
X9375000Y38250000D01*
X8850000Y38250000D02*
X8850000Y37725000D01*
X13150000Y33950000D02*
X12625000Y33950000D01*
X8850000Y33950000D02*
X9375000Y33950000D01*
X8850000Y33950000D02*
X8850000Y34475000D01*
X13150000Y33950000D02*
X13150000Y34475000D01*
D11*
%TO.C,C3*%
X3561252Y12990000D02*
X2138748Y12990000D01*
X3561252Y14810000D02*
X2138748Y14810000D01*
%TD*%
M02*
